sinhala-min-base.ufo
<glyph name="exclam" format="1">
  <advance width="203"/>
  <unicode hex="0021"/>
  <note>
    exclam
  </note>
  <outline>
    <contour>
      <point x="167" y="269" type="line"/>
      <point x="32" y="269" type="line"/>
      <point x="32" y="1401" type="line"/>
      <point x="167" y="1401" type="line"/>
    </contour>
    <contour>
      <point x="54" y="124" type="curve"/>
      <point x="66" y="137"/>
      <point x="84" y="146"/>
      <point x="104" y="146" type="curve" smooth="yes"/>
      <point x="143" y="146"/>
      <point x="175" y="113"/>
      <point x="175" y="74" type="curve" smooth="yes"/>
      <point x="175" y="54"/>
      <point x="166" y="36"/>
      <point x="154" y="24" type="curve" smooth="yes"/>
      <point x="141" y="11"/>
      <point x="123" y="2"/>
      <point x="104" y="2" type="curve" smooth="yes"/>
      <point x="65" y="2"/>
      <point x="32" y="35"/>
      <point x="32" y="74" type="curve" smooth="yes"/>
      <point x="32" y="93"/>
      <point x="41" y="111"/>
    </contour>
  </outline>
</glyph>
<glyph name="quotedbl" format="1">
  <advance width="542"/>
  <unicode hex="0022"/>
  <note>
    quotedbl
  </note>
  <outline>
    <contour>
      <point x="210" y="1272" type="curve" smooth="yes"/>
      <point x="209" y="1265"/>
      <point x="208" y="1255"/>
      <point x="207" y="1244" type="curve"/>
      <point x="207" y="1223" type="line" smooth="yes"/>
      <point x="207" y="1218"/>
      <point x="207" y="1213"/>
      <point x="206" y="1210" type="curve" smooth="yes"/>
      <point x="205" y="1207"/>
      <point x="205" y="1204"/>
      <point x="205" y="1203" type="curve"/>
      <point x="155" y="785" type="line"/>
      <point x="92" y="785" type="line"/>
      <point x="39" y="1199" type="line" smooth="yes"/>
      <point x="32" y="1243"/>
      <point x="31" y="1275"/>
      <point x="31" y="1298" type="curve" smooth="yes"/>
      <point x="31" y="1350"/>
      <point x="66" y="1394"/>
      <point x="119" y="1394" type="curve" smooth="yes"/>
      <point x="187" y="1394"/>
      <point x="211" y="1353"/>
      <point x="211" y="1284" type="curve" smooth="yes"/>
      <point x="211" y="1283"/>
      <point x="211" y="1279"/>
    </contour>
    <contour>
      <point x="488" y="1050" type="curve" smooth="yes"/>
      <point x="470" y="912" type="line" smooth="yes"/>
      <point x="463" y="865"/>
      <point x="458" y="823"/>
      <point x="454" y="785" type="curve"/>
      <point x="389" y="785" type="line"/>
      <point x="338" y="1191" type="line" smooth="yes"/>
      <point x="335" y="1213"/>
      <point x="332" y="1230"/>
      <point x="331" y="1242" type="curve"/>
      <point x="329" y="1253"/>
      <point x="328" y="1261"/>
      <point x="328" y="1264" type="curve" smooth="yes"/>
      <point x="328" y="1284" type="line" smooth="yes"/>
      <point x="328" y="1357"/>
      <point x="359" y="1394"/>
      <point x="422" y="1394" type="curve" smooth="yes"/>
      <point x="478" y="1394"/>
      <point x="510" y="1366"/>
      <point x="510" y="1282" type="curve" smooth="yes"/>
      <point x="510" y="1227"/>
      <point x="500" y="1142"/>
    </contour>
  </outline>
</glyph>
<glyph name="numbersign" format="1">
  <advance width="1072"/>
  <unicode hex="0023"/>
  <note>
    numbersign
  </note>
  <outline>
    <contour>
      <point x="437" y="677" type="curve" smooth="yes"/>
      <point x="422" y="625"/>
      <point x="408" y="571"/>
      <point x="393" y="514" type="curve"/>
      <point x="589" y="514" type="line"/>
      <point x="604" y="570"/>
      <point x="618" y="624"/>
      <point x="633" y="676" type="curve" smooth="yes"/>
      <point x="647" y="727"/>
      <point x="661" y="781"/>
      <point x="676" y="838" type="curve"/>
      <point x="480" y="838" type="line"/>
      <point x="465" y="782"/>
      <point x="451" y="728"/>
    </contour>
    <contour>
      <point x="110" y="-10" type="line"/>
      <point x="226" y="418" type="line"/>
      <point x="12" y="418" type="line"/>
      <point x="34" y="514" type="line"/>
      <point x="251" y="514" type="line"/>
      <point x="266" y="571"/>
      <point x="281" y="625"/>
      <point x="296" y="677" type="curve" smooth="yes"/>
      <point x="311" y="729"/>
      <point x="326" y="783"/>
      <point x="341" y="840" type="curve"/>
      <point x="124" y="840" type="line"/>
      <point x="144" y="934" type="line"/>
      <point x="364" y="934" type="line"/>
      <point x="383" y="1005"/>
      <point x="403" y="1076"/>
      <point x="423" y="1149" type="curve" smooth="yes"/>
      <point x="443" y="1222"/>
      <point x="463" y="1293"/>
      <point x="482" y="1364" type="curve"/>
      <point x="627" y="1364" type="line"/>
      <point x="508" y="934" type="line"/>
      <point x="701" y="934" type="line"/>
      <point x="720" y="1006"/>
      <point x="740" y="1078"/>
      <point x="760" y="1149" type="curve" smooth="yes"/>
      <point x="779" y="1220"/>
      <point x="799" y="1292"/>
      <point x="818" y="1364" type="curve"/>
      <point x="961" y="1364" type="line"/>
      <point x="842" y="934" type="line"/>
      <point x="1060" y="934" type="line"/>
      <point x="1035" y="840" type="line"/>
      <point x="818" y="840" type="line"/>
      <point x="803" y="783"/>
      <point x="789" y="729"/>
      <point x="775" y="677" type="curve" smooth="yes"/>
      <point x="760" y="625"/>
      <point x="746" y="571"/>
      <point x="731" y="514" type="curve"/>
      <point x="949" y="514" type="line"/>
      <point x="922" y="418" type="line"/>
      <point x="707" y="418" type="line"/>
      <point x="688" y="347"/>
      <point x="668" y="276"/>
      <point x="649" y="204" type="curve" smooth="yes"/>
      <point x="629" y="132"/>
      <point x="609" y="61"/>
      <point x="590" y="-10" type="curve"/>
      <point x="444" y="-10" type="line"/>
      <point x="564" y="418" type="line"/>
      <point x="369" y="418" type="line"/>
      <point x="350" y="347"/>
      <point x="331" y="276"/>
      <point x="311" y="204" type="curve" smooth="yes"/>
      <point x="291" y="132"/>
      <point x="272" y="61"/>
      <point x="253" y="-10" type="curve"/>
    </contour>
  </outline>
</glyph>
<glyph name="percent" format="1">
  <advance width="1035"/>
  <unicode hex="0025"/>
  <note>
    percent
  </note>
  <outline>
    <contour>
      <point x="750" y="369" type="curve" smooth="yes"/>
      <point x="726" y="369"/>
      <point x="702" y="362"/>
      <point x="679" y="349" type="curve" smooth="yes"/>
      <point x="636" y="324"/>
      <point x="614" y="286"/>
      <point x="614" y="236" type="curve" smooth="yes"/>
      <point x="614" y="196"/>
      <point x="631" y="162"/>
      <point x="656" y="139" type="curve" smooth="yes"/>
      <point x="681" y="115"/>
      <point x="715" y="102"/>
      <point x="748" y="102" type="curve" smooth="yes"/>
      <point x="789" y="102"/>
      <point x="823" y="119"/>
      <point x="847" y="144" type="curve" smooth="yes"/>
      <point x="870" y="169"/>
      <point x="883" y="203"/>
      <point x="883" y="238" type="curve" smooth="yes"/>
      <point x="883" y="275"/>
      <point x="867" y="309"/>
      <point x="843" y="332" type="curve" smooth="yes"/>
      <point x="818" y="355"/>
      <point x="785" y="369"/>
    </contour>
    <contour>
      <point x="289" y="1192" type="curve" smooth="yes"/>
      <point x="262" y="1192"/>
      <point x="239" y="1185"/>
      <point x="218" y="1172" type="curve"/>
      <point x="218" y="1171" type="line"/>
      <point x="175" y="1144"/>
      <point x="153" y="1106"/>
      <point x="153" y="1057" type="curve" smooth="yes"/>
      <point x="153" y="1016"/>
      <point x="170" y="983"/>
      <point x="195" y="960" type="curve" smooth="yes"/>
      <point x="220" y="936"/>
      <point x="254" y="923"/>
      <point x="289" y="923" type="curve" smooth="yes"/>
      <point x="330" y="923"/>
      <point x="364" y="940"/>
      <point x="388" y="966" type="curve" smooth="yes"/>
      <point x="411" y="992"/>
      <point x="424" y="1024"/>
      <point x="424" y="1059" type="curve" smooth="yes"/>
      <point x="424" y="1099"/>
      <point x="407" y="1133"/>
      <point x="382" y="1156" type="curve" smooth="yes"/>
      <point x="357" y="1179"/>
      <point x="322" y="1192"/>
    </contour>
    <contour>
      <point x="908" y="1321" type="line"/>
      <point x="221" y="-10" type="line"/>
      <point x="87" y="-10" type="line"/>
      <point x="774" y="1321" type="line"/>
    </contour>
    <contour>
      <point x="488" y="236" type="curve" smooth="yes"/>
      <point x="488" y="323"/>
      <point x="521" y="391"/>
      <point x="588" y="442" type="curve" smooth="yes"/>
      <point x="635" y="477"/>
      <point x="688" y="495"/>
      <point x="748" y="495" type="curve" smooth="yes"/>
      <point x="816" y="495"/>
      <point x="881" y="468"/>
      <point x="930" y="422" type="curve" smooth="yes"/>
      <point x="978" y="376"/>
      <point x="1009" y="311"/>
      <point x="1009" y="236" type="curve" smooth="yes"/>
      <point x="1009" y="165"/>
      <point x="980" y="100"/>
      <point x="933" y="52" type="curve" smooth="yes"/>
      <point x="886" y="4"/>
      <point x="821" y="-26"/>
      <point x="748" y="-26" type="curve" smooth="yes"/>
      <point x="676" y="-26"/>
      <point x="612" y="3"/>
      <point x="565" y="51" type="curve" smooth="yes"/>
      <point x="517" y="99"/>
      <point x="488" y="164"/>
    </contour>
    <contour>
      <point x="27" y="1057" type="curve" smooth="yes"/>
      <point x="27" y="1144"/>
      <point x="60" y="1212"/>
      <point x="127" y="1263" type="curve" smooth="yes"/>
      <point x="173" y="1299"/>
      <point x="226" y="1317"/>
      <point x="287" y="1317" type="curve" smooth="yes"/>
      <point x="356" y="1317"/>
      <point x="422" y="1288"/>
      <point x="470" y="1241" type="curve" smooth="yes"/>
      <point x="518" y="1193"/>
      <point x="549" y="1129"/>
      <point x="549" y="1057" type="curve" smooth="yes"/>
      <point x="549" y="985"/>
      <point x="520" y="920"/>
      <point x="473" y="873" type="curve" smooth="yes"/>
      <point x="425" y="825"/>
      <point x="359" y="795"/>
      <point x="287" y="795" type="curve" smooth="yes"/>
      <point x="215" y="795"/>
      <point x="151" y="824"/>
      <point x="104" y="872" type="curve" smooth="yes"/>
      <point x="56" y="920"/>
      <point x="27" y="985"/>
    </contour>
  </outline>
</glyph>
<glyph name="quotesingle" format="1">
  <advance width="314"/>
  <unicode hex="0027"/>
  <note>
    quotesingle
  </note>
  <outline>
    <contour>
      <point x="113" y="1314" type="curve" smooth="yes"/>
      <point x="113" y="1374"/>
      <point x="99" y="1431"/>
      <point x="68" y="1491" type="curve"/>
      <point x="257" y="1491" type="line"/>
      <point x="277" y="1452"/>
      <point x="287" y="1406"/>
      <point x="287" y="1354" type="curve" smooth="yes"/>
      <point x="287" y="1233"/>
      <point x="242" y="1131"/>
      <point x="177" y="1063" type="curve"/>
      <point x="19" y="1063" type="line"/>
      <point x="84" y="1143"/>
      <point x="113" y="1230"/>
    </contour>
  </outline>
</glyph>
<glyph name="parenleft" format="1">
  <advance width="473"/>
  <unicode hex="0028"/>
  <note>
    parenleft
  </note>
  <outline>
    <contour>
      <point x="240" y="317" type="curve" smooth="yes"/>
      <point x="279" y="208"/>
      <point x="351" y="73"/>
      <point x="451" y="-80" type="curve"/>
      <point x="301" y="-80" type="line"/>
      <point x="255" y="-29"/>
      <point x="221" y="15"/>
      <point x="198" y="54" type="curve"/>
      <point x="199" y="53" type="line"/>
      <point x="180" y="80"/>
      <point x="152" y="133"/>
      <point x="112" y="213" type="curve" smooth="yes"/>
      <point x="77" y="289"/>
      <point x="52" y="366"/>
      <point x="37" y="438" type="curve" smooth="yes"/>
      <point x="25" y="494"/>
      <point x="17" y="564"/>
      <point x="17" y="641" type="curve" smooth="yes"/>
      <point x="17" y="650"/>
      <point x="17" y="663"/>
      <point x="18" y="679" type="curve" smooth="yes"/>
      <point x="19" y="695"/>
      <point x="19" y="714"/>
      <point x="19" y="737" type="curve" smooth="yes"/>
      <point x="19" y="741"/>
      <point x="19" y="749"/>
      <point x="20" y="761" type="curve"/>
      <point x="20" y="785"/>
      <point x="24" y="822"/>
      <point x="33" y="868" type="curve" smooth="yes"/>
      <point x="37" y="891"/>
      <point x="43" y="915"/>
      <point x="51" y="941" type="curve"/>
      <point x="54" y="949"/>
      <point x="57" y="960"/>
      <point x="62" y="973" type="curve" smooth="yes"/>
      <point x="67" y="986"/>
      <point x="72" y="1003"/>
      <point x="79" y="1022" type="curve"/>
      <point x="78" y="1022" type="line"/>
      <point x="87" y="1054"/>
      <point x="108" y="1094"/>
      <point x="133" y="1137" type="curve" smooth="yes"/>
      <point x="157" y="1180"/>
      <point x="186" y="1224"/>
      <point x="213" y="1261" type="curve" smooth="yes"/>
      <point x="236" y="1292"/>
      <point x="270" y="1331"/>
      <point x="313" y="1374" type="curve"/>
      <point x="454" y="1374" type="line"/>
      <point x="423" y="1334"/>
      <point x="380" y="1270"/>
      <point x="323" y="1181" type="curve" smooth="yes"/>
      <point x="290" y="1129"/>
      <point x="259" y="1064"/>
      <point x="232" y="980" type="curve" smooth="yes"/>
      <point x="201" y="890"/>
      <point x="186" y="778"/>
      <point x="186" y="644" type="curve" smooth="yes"/>
      <point x="186" y="534"/>
      <point x="204" y="425"/>
    </contour>
  </outline>
</glyph>
<glyph name="parenright" format="1">
  <advance width="471"/>
  <unicode hex="0029"/>
  <note>
    parenright
  </note>
  <outline>
    <contour>
      <point x="277" y="87" type="curve" smooth="yes"/>
      <point x="249" y="43"/>
      <point x="215" y="-3"/>
      <point x="172" y="-59" type="curve"/>
      <point x="23" y="-59" type="line"/>
      <point x="84" y="29"/>
      <point x="142" y="133"/>
      <point x="189" y="225" type="curve"/>
      <point x="202" y="256"/>
      <point x="219" y="294"/>
      <point x="238" y="345" type="curve" smooth="yes"/>
      <point x="269" y="432"/>
      <point x="285" y="541"/>
      <point x="286" y="674" type="curve" smooth="yes"/>
      <point x="286" y="736"/>
      <point x="282" y="795"/>
      <point x="274" y="851" type="curve"/>
      <point x="274" y="850" type="line"/>
      <point x="266" y="903"/>
      <point x="248" y="965"/>
      <point x="225" y="1026" type="curve" smooth="yes"/>
      <point x="201" y="1087"/>
      <point x="172" y="1149"/>
      <point x="141" y="1205" type="curve" smooth="yes"/>
      <point x="128" y="1228"/>
      <point x="108" y="1258"/>
      <point x="87" y="1291" type="curve"/>
      <point x="76" y="1307"/>
      <point x="65" y="1324"/>
      <point x="54" y="1342" type="curve"/>
      <point x="42" y="1359"/>
      <point x="30" y="1377"/>
      <point x="19" y="1394" type="curve"/>
      <point x="159" y="1394" type="line"/>
      <point x="258" y="1295"/>
      <point x="332" y="1184"/>
      <point x="381" y="1063" type="curve" smooth="yes"/>
      <point x="400" y="1014"/>
      <point x="410" y="981"/>
      <point x="418" y="950" type="curve"/>
      <point x="421" y="934"/>
      <point x="425" y="918"/>
      <point x="428" y="901" type="curve" smooth="yes"/>
      <point x="431" y="884"/>
      <point x="436" y="864"/>
      <point x="441" y="841" type="curve"/>
      <point x="446" y="806"/>
      <point x="451" y="751"/>
      <point x="455" y="662" type="curve"/>
      <point x="455" y="589"/>
      <point x="448" y="523"/>
      <point x="435" y="459" type="curve" smooth="yes"/>
      <point x="418" y="383"/>
      <point x="393" y="314"/>
      <point x="364" y="246" type="curve" smooth="yes"/>
      <point x="343" y="199"/>
      <point x="313" y="147"/>
    </contour>
  </outline>
</glyph>
<glyph name="asterisk" format="1">
  <advance width="674"/>
  <unicode hex="002A"/>
  <note>
    asterisk
  </note>
  <outline>
    <contour>
      <point x="618" y="1131" type="curve"/>
      <point x="660" y="1023" type="line"/>
      <point x="422" y="957" type="line"/>
      <point x="582" y="752" type="line"/>
      <point x="483" y="686" type="line"/>
      <point x="335" y="892" type="line"/>
      <point x="313" y="858"/>
      <point x="289" y="823"/>
      <point x="264" y="787" type="curve" smooth="yes"/>
      <point x="239" y="751"/>
      <point x="215" y="716"/>
      <point x="194" y="682" type="curve"/>
      <point x="89" y="756" type="line"/>
      <point x="246" y="952" type="line"/>
      <point x="208" y="963"/>
      <point x="169" y="974"/>
      <point x="130" y="986" type="curve" smooth="yes"/>
      <point x="91" y="997"/>
      <point x="52" y="1008"/>
      <point x="14" y="1019" type="curve"/>
      <point x="48" y="1135" type="line"/>
      <point x="279" y="1061" type="line"/>
      <point x="279" y="1298" type="line"/>
      <point x="391" y="1298" type="line"/>
      <point x="391" y="1060" type="line"/>
      <point x="408" y="1065"/>
      <point x="427" y="1071"/>
      <point x="447" y="1078" type="curve" smooth="yes"/>
      <point x="466" y="1084"/>
      <point x="486" y="1090"/>
      <point x="506" y="1096" type="curve" smooth="yes"/>
      <point x="525" y="1102"/>
      <point x="545" y="1108"/>
      <point x="564" y="1114" type="curve" smooth="yes"/>
      <point x="583" y="1120"/>
      <point x="601" y="1126"/>
    </contour>
  </outline>
</glyph>
<glyph name="plus" format="1">
  <advance width="773"/>
  <unicode hex="002B"/>
  <note>
    plus
  </note>
  <outline>
    <contour>
      <point x="315" y="146" type="line"/>
      <point x="315" y="445" type="line"/>
      <point x="6" y="445" type="line"/>
      <point x="6" y="567" type="line"/>
      <point x="315" y="567" type="line"/>
      <point x="315" y="874" type="line"/>
      <point x="456" y="874" type="line"/>
      <point x="456" y="567" type="line"/>
      <point x="767" y="567" type="line"/>
      <point x="767" y="445" type="line"/>
      <point x="456" y="445" type="line"/>
      <point x="456" y="146" type="line"/>
    </contour>
  </outline>
</glyph>
<glyph name="comma" format="1">
  <advance width="315"/>
  <unicode hex="002C"/>
  <note>
    comma
  </note>
  <outline>
    <contour>
      <point x="113" y="27" type="curve" smooth="yes"/>
      <point x="113" y="84"/>
      <point x="98" y="142"/>
      <point x="69" y="203" type="curve"/>
      <point x="257" y="203" type="line"/>
      <point x="278" y="164"/>
      <point x="288" y="119"/>
      <point x="288" y="66" type="curve" smooth="yes"/>
      <point x="288" y="-55"/>
      <point x="242" y="-156"/>
      <point x="178" y="-225" type="curve"/>
      <point x="19" y="-225" type="line"/>
      <point x="87" y="-144"/>
      <point x="113" y="-61"/>
    </contour>
  </outline>
</glyph>
<glyph name="hyphen" format="1">
  <advance width="619"/>
  <unicode hex="002D"/>
  <note>
    hyphen
  </note>
  <outline>
    <contour>
      <point x="580" y="583" type="line"/>
      <point x="580" y="459" type="line"/>
      <point x="38" y="459" type="line"/>
      <point x="38" y="583" type="line"/>
    </contour>
  </outline>
</glyph>
<glyph name="period" format="1">
  <advance width="291"/>
  <unicode hex="002E"/>
  <note>
    period
  </note>
  <outline>
    <contour>
      <point x="27" y="92" type="curve" smooth="yes"/>
      <point x="27" y="141"/>
      <point x="47" y="176"/>
      <point x="87" y="197" type="curve"/>
      <point x="106" y="208"/>
      <point x="125" y="213"/>
      <point x="145" y="213" type="curve" smooth="yes"/>
      <point x="178" y="213"/>
      <point x="208" y="199"/>
      <point x="229" y="178" type="curve" smooth="yes"/>
      <point x="250" y="157"/>
      <point x="264" y="127"/>
      <point x="264" y="94" type="curve" smooth="yes"/>
      <point x="264" y="59"/>
      <point x="250" y="30"/>
      <point x="229" y="10" type="curve" smooth="yes"/>
      <point x="208" y="-10"/>
      <point x="178" y="-22"/>
      <point x="147" y="-22" type="curve" smooth="yes"/>
      <point x="78" y="-22"/>
      <point x="27" y="24"/>
    </contour>
  </outline>
</glyph>
<glyph name="slash" format="1">
  <advance width="652"/>
  <unicode hex="002F"/>
  <note>
    slash
  </note>
  <outline>
    <contour>
      <point x="648" y="1472" type="line"/>
      <point x="155" y="-16" type="line"/>
      <point x="4" y="-16" type="line"/>
      <point x="501" y="1472" type="line"/>
    </contour>
  </outline>
</glyph>
<glyph name="zero" format="1">
  <advance width="963"/>
  <unicode hex="0030"/>
  <note>
    zero
  </note>
  <outline>
    <contour>
      <point x="796" y="666" type="curve" smooth="yes"/>
      <point x="796" y="1023"/>
      <point x="693" y="1202"/>
      <point x="487" y="1202" type="curve" smooth="yes"/>
      <point x="271" y="1202"/>
      <point x="163" y="1018"/>
      <point x="163" y="651" type="curve" smooth="yes"/>
      <point x="163" y="296"/>
      <point x="272" y="119"/>
      <point x="491" y="119" type="curve" smooth="yes"/>
      <point x="588" y="119"/>
      <point x="665" y="171"/>
      <point x="717" y="267" type="curve" smooth="yes"/>
      <point x="769" y="362"/>
      <point x="796" y="498"/>
    </contour>
    <contour>
      <point x="146" y="1154" type="curve" smooth="yes"/>
      <point x="224" y="1268"/>
      <point x="338" y="1327"/>
      <point x="489" y="1327" type="curve" smooth="yes"/>
      <point x="629" y="1327"/>
      <point x="741" y="1261"/>
      <point x="818" y="1147" type="curve" smooth="yes"/>
      <point x="894" y="1033"/>
      <point x="935" y="871"/>
      <point x="935" y="680" type="curve" smooth="yes"/>
      <point x="935" y="463"/>
      <point x="895" y="291"/>
      <point x="819" y="174" type="curve" smooth="yes"/>
      <point x="743" y="57"/>
      <point x="631" y="-6"/>
      <point x="487" y="-6" type="curve" smooth="yes"/>
      <point x="339" y="-6"/>
      <point x="225" y="56"/>
      <point x="147" y="169" type="curve" smooth="yes"/>
      <point x="69" y="282"/>
      <point x="28" y="448"/>
      <point x="28" y="659" type="curve" smooth="yes"/>
      <point x="28" y="872"/>
      <point x="68" y="1040"/>
    </contour>
  </outline>
</glyph>
<glyph name="one" format="1">
  <advance width="440"/>
  <unicode hex="0031"/>
  <note>
    one
  </note>
  <outline>
    <contour>
      <point x="401" y="2" type="line"/>
      <point x="260" y="2" type="line"/>
      <point x="260" y="1002" type="line"/>
      <point x="0" y="1002" type="line"/>
      <point x="0" y="1110" type="line"/>
      <point x="99" y="1110"/>
      <point x="165" y="1122"/>
      <point x="209" y="1153" type="curve" smooth="yes"/>
      <point x="253" y="1184"/>
      <point x="275" y="1233"/>
      <point x="286" y="1306" type="curve"/>
      <point x="401" y="1306" type="line"/>
    </contour>
  </outline>
</glyph>
<glyph name="two" format="1">
  <advance width="925"/>
  <unicode hex="0032"/>
  <note>
    two
  </note>
  <outline>
    <contour>
      <point x="234" y="237" type="curve"/>
      <point x="235" y="237" type="line"/>
      <point x="214" y="202"/>
      <point x="198" y="166"/>
      <point x="185" y="127" type="curve"/>
      <point x="896" y="127" type="line"/>
      <point x="896" y="6" type="line"/>
      <point x="30" y="6" type="line"/>
      <point x="31" y="89"/>
      <point x="39" y="153"/>
      <point x="54" y="199" type="curve" smooth="yes"/>
      <point x="69" y="247"/>
      <point x="103" y="301"/>
      <point x="150" y="361" type="curve" smooth="yes"/>
      <point x="199" y="421"/>
      <point x="263" y="474"/>
      <point x="340" y="519" type="curve"/>
      <point x="348" y="523"/>
      <point x="373" y="536"/>
      <point x="402" y="553" type="curve"/>
      <point x="417" y="561"/>
      <point x="432" y="570"/>
      <point x="449" y="579" type="curve" smooth="yes"/>
      <point x="482" y="597"/>
      <point x="513" y="614"/>
      <point x="535" y="627" type="curve" smooth="yes"/>
      <point x="546" y="633"/>
      <point x="553" y="637"/>
      <point x="557" y="640" type="curve"/>
      <point x="636" y="688"/>
      <point x="686" y="730"/>
      <point x="717" y="772" type="curve" smooth="yes"/>
      <point x="748" y="814"/>
      <point x="759" y="856"/>
      <point x="759" y="907" type="curve" smooth="yes"/>
      <point x="759" y="986"/>
      <point x="730" y="1055"/>
      <point x="682" y="1105" type="curve" smooth="yes"/>
      <point x="633" y="1155"/>
      <point x="563" y="1184"/>
      <point x="480" y="1184" type="curve" smooth="yes"/>
      <point x="385" y="1184"/>
      <point x="309" y="1155"/>
      <point x="256" y="1102" type="curve" smooth="yes"/>
      <point x="203" y="1049"/>
      <point x="174" y="971"/>
      <point x="174" y="874" type="curve" smooth="yes"/>
      <point x="174" y="861"/>
      <point x="175" y="839"/>
      <point x="176" y="824" type="curve"/>
      <point x="35" y="824" type="line"/>
      <point x="34" y="840"/>
      <point x="32" y="866"/>
      <point x="32" y="883" type="curve" smooth="yes"/>
      <point x="32" y="1011"/>
      <point x="77" y="1118"/>
      <point x="156" y="1192" type="curve" smooth="yes"/>
      <point x="235" y="1266"/>
      <point x="345" y="1308"/>
      <point x="476" y="1308" type="curve" smooth="yes"/>
      <point x="604" y="1308"/>
      <point x="711" y="1269"/>
      <point x="787" y="1198" type="curve" smooth="yes"/>
      <point x="862" y="1126"/>
      <point x="904" y="1025"/>
      <point x="904" y="901" type="curve" smooth="yes"/>
      <point x="904" y="742"/>
      <point x="836" y="659"/>
      <point x="661" y="544" type="curve"/>
      <point x="621" y="521"/>
      <point x="582" y="499"/>
      <point x="543" y="477" type="curve" smooth="yes"/>
      <point x="504" y="454"/>
      <point x="464" y="432"/>
      <point x="424" y="411" type="curve"/>
      <point x="340" y="360"/>
      <point x="274" y="301"/>
    </contour>
  </outline>
</glyph>
<glyph name="three" format="1">
  <advance width="972"/>
  <unicode hex="0033"/>
  <note>
    three
  </note>
  <outline>
    <contour>
      <point x="271" y="1117" type="curve" smooth="yes"/>
      <point x="221" y="1063"/>
      <point x="193" y="984"/>
      <point x="193" y="887" type="curve"/>
      <point x="57" y="887" type="line"/>
      <point x="56" y="894"/>
      <point x="55" y="900"/>
      <point x="55" y="905" type="curve" smooth="yes"/>
      <point x="55" y="916" type="line"/>
      <point x="55" y="929" type="line" smooth="yes"/>
      <point x="55" y="1045"/>
      <point x="101" y="1145"/>
      <point x="178" y="1217" type="curve" smooth="yes"/>
      <point x="255" y="1288"/>
      <point x="362" y="1331"/>
      <point x="486" y="1331" type="curve" smooth="yes"/>
      <point x="611" y="1331"/>
      <point x="712" y="1298"/>
      <point x="783" y="1237" type="curve" smooth="yes"/>
      <point x="854" y="1176"/>
      <point x="893" y="1088"/>
      <point x="893" y="977" type="curve" smooth="yes"/>
      <point x="893" y="864"/>
      <point x="839" y="776"/>
      <point x="743" y="720" type="curve"/>
      <point x="799" y="704"/>
      <point x="850" y="661"/>
      <point x="886" y="604" type="curve" smooth="yes"/>
      <point x="922" y="547"/>
      <point x="944" y="477"/>
      <point x="944" y="406" type="curve" smooth="yes"/>
      <point x="944" y="274"/>
      <point x="899" y="169"/>
      <point x="819" y="97" type="curve" smooth="yes"/>
      <point x="738" y="25"/>
      <point x="621" y="-14"/>
      <point x="480" y="-14" type="curve" smooth="yes"/>
      <point x="343" y="-14"/>
      <point x="231" y="26"/>
      <point x="152" y="102" type="curve" smooth="yes"/>
      <point x="72" y="178"/>
      <point x="27" y="291"/>
      <point x="23" y="436" type="curve"/>
      <point x="172" y="436" type="line"/>
      <point x="173" y="336"/>
      <point x="203" y="257"/>
      <point x="258" y="203" type="curve" smooth="yes"/>
      <point x="313" y="149"/>
      <point x="391" y="119"/>
      <point x="490" y="119" type="curve" smooth="yes"/>
      <point x="578" y="119"/>
      <point x="651" y="147"/>
      <point x="703" y="196" type="curve" smooth="yes"/>
      <point x="755" y="244"/>
      <point x="785" y="314"/>
      <point x="785" y="397" type="curve" smooth="yes"/>
      <point x="785" y="474"/>
      <point x="755" y="537"/>
      <point x="702" y="580" type="curve" smooth="yes"/>
      <point x="649" y="623"/>
      <point x="573" y="647"/>
      <point x="480" y="647" type="curve" smooth="yes"/>
      <point x="373" y="647" type="line"/>
      <point x="373" y="768" type="line"/>
      <point x="484" y="768" type="line" smooth="yes"/>
      <point x="553" y="768"/>
      <point x="616" y="789"/>
      <point x="662" y="826" type="curve" smooth="yes"/>
      <point x="708" y="862"/>
      <point x="736" y="916"/>
      <point x="736" y="981" type="curve" smooth="yes"/>
      <point x="736" y="1047"/>
      <point x="712" y="1101"/>
      <point x="663" y="1143" type="curve"/>
      <point x="664" y="1143" type="line"/>
      <point x="616" y="1181"/>
      <point x="557" y="1200"/>
      <point x="488" y="1200" type="curve" smooth="yes"/>
      <point x="395" y="1200"/>
      <point x="321" y="1171"/>
    </contour>
  </outline>
</glyph>
<glyph name="four" format="1">
  <advance width="898"/>
  <unicode hex="0034"/>
  <note>
    four
  </note>
  <outline>
    <contour>
      <point x="345" y="744" type="curve" smooth="yes"/>
      <point x="281" y="648"/>
      <point x="218" y="552"/>
      <point x="153" y="452" type="curve"/>
      <point x="538" y="452" type="line"/>
      <point x="538" y="1032" type="line"/>
      <point x="471" y="933"/>
      <point x="408" y="839"/>
    </contour>
    <contour>
      <point x="882" y="322" type="line"/>
      <point x="691" y="322" type="line"/>
      <point x="691" y="6" type="line"/>
      <point x="540" y="6" type="line"/>
      <point x="540" y="322" type="line"/>
      <point x="5" y="322" type="line"/>
      <point x="5" y="451" type="line"/>
      <point x="572" y="1319" type="line"/>
      <point x="691" y="1319" type="line"/>
      <point x="691" y="442" type="line"/>
      <point x="882" y="442" type="line"/>
    </contour>
  </outline>
</glyph>
<glyph name="five" format="1">
  <advance width="926"/>
  <unicode hex="0035"/>
  <note>
    five
  </note>
  <outline>
    <contour>
      <point x="173" y="1300" type="line"/>
      <point x="831" y="1300" type="line"/>
      <point x="831" y="1174" type="line"/>
      <point x="293" y="1174" type="line"/>
      <point x="284" y="1107"/>
      <point x="275" y="1045"/>
      <point x="267" y="985" type="curve" smooth="yes"/>
      <point x="255" y="892" type="line" smooth="yes"/>
      <point x="251" y="861"/>
      <point x="247" y="828"/>
      <point x="242" y="795" type="curve"/>
      <point x="313" y="841"/>
      <point x="396" y="864"/>
      <point x="491" y="864" type="curve" smooth="yes"/>
      <point x="608" y="864"/>
      <point x="712" y="822"/>
      <point x="786" y="749" type="curve" smooth="yes"/>
      <point x="860" y="676"/>
      <point x="905" y="571"/>
      <point x="905" y="446" type="curve" smooth="yes"/>
      <point x="905" y="314"/>
      <point x="861" y="197"/>
      <point x="782" y="114" type="curve" smooth="yes"/>
      <point x="702" y="30"/>
      <point x="590" y="-20"/>
      <point x="454" y="-20" type="curve" smooth="yes"/>
      <point x="333" y="-20"/>
      <point x="229" y="13"/>
      <point x="154" y="77" type="curve" smooth="yes"/>
      <point x="78" y="141"/>
      <point x="32" y="236"/>
      <point x="25" y="360" type="curve"/>
      <point x="164" y="360" type="line"/>
      <point x="182" y="201"/>
      <point x="283" y="121"/>
      <point x="467" y="121" type="curve" smooth="yes"/>
      <point x="546" y="121"/>
      <point x="616" y="157"/>
      <point x="667" y="214" type="curve" smooth="yes"/>
      <point x="718" y="270"/>
      <point x="749" y="347"/>
      <point x="749" y="430" type="curve" smooth="yes"/>
      <point x="749" y="509"/>
      <point x="723" y="583"/>
      <point x="677" y="639" type="curve" smooth="yes"/>
      <point x="631" y="694"/>
      <point x="564" y="729"/>
      <point x="487" y="729" type="curve" smooth="yes"/>
      <point x="422" y="729"/>
      <point x="373" y="721"/>
      <point x="330" y="700" type="curve" smooth="yes"/>
      <point x="286" y="679"/>
      <point x="250" y="643"/>
      <point x="209" y="586" type="curve"/>
      <point x="74" y="586" type="line"/>
    </contour>
  </outline>
</glyph>
<glyph name="six" format="1">
  <advance width="938"/>
  <unicode hex="0036"/>
  <note>
    six
  </note>
  <outline>
    <contour>
      <point x="503" y="1182" type="curve" smooth="yes"/>
      <point x="359" y="1182"/>
      <point x="262" y="1109"/>
      <point x="213" y="964" type="curve" smooth="yes"/>
      <point x="186" y="885"/>
      <point x="169" y="794"/>
      <point x="163" y="691" type="curve"/>
      <point x="244" y="793"/>
      <point x="356" y="844"/>
      <point x="501" y="844" type="curve" smooth="yes"/>
      <point x="621" y="844"/>
      <point x="723" y="803"/>
      <point x="795" y="729" type="curve" smooth="yes"/>
      <point x="867" y="655"/>
      <point x="910" y="549"/>
      <point x="910" y="422" type="curve" smooth="yes"/>
      <point x="910" y="290"/>
      <point x="869" y="179"/>
      <point x="795" y="103" type="curve" smooth="yes"/>
      <point x="721" y="26"/>
      <point x="615" y="-18"/>
      <point x="487" y="-18" type="curve" smooth="yes"/>
      <point x="181" y="-18"/>
      <point x="28" y="189"/>
      <point x="28" y="602" type="curve" smooth="yes"/>
      <point x="28" y="1066"/>
      <point x="183" y="1298"/>
      <point x="493" y="1298" type="curve" smooth="yes"/>
      <point x="610" y="1298"/>
      <point x="700" y="1272"/>
      <point x="757" y="1227" type="curve"/>
      <point x="837" y="1159"/>
      <point x="883" y="1063"/>
      <point x="884" y="942" type="curve"/>
      <point x="749" y="942" type="line"/>
      <point x="748" y="1019"/>
      <point x="723" y="1080"/>
      <point x="680" y="1121" type="curve" smooth="yes"/>
      <point x="637" y="1161"/>
      <point x="576" y="1182"/>
    </contour>
    <contour>
      <point x="491" y="719" type="curve" smooth="yes"/>
      <point x="393" y="719"/>
      <point x="313" y="681"/>
      <point x="251" y="606" type="curve" smooth="yes"/>
      <point x="208" y="555"/>
      <point x="187" y="491"/>
      <point x="187" y="414" type="curve" smooth="yes"/>
      <point x="187" y="319"/>
      <point x="219" y="242"/>
      <point x="271" y="190" type="curve" smooth="yes"/>
      <point x="323" y="137"/>
      <point x="395" y="108"/>
      <point x="478" y="108" type="curve" smooth="yes"/>
      <point x="566" y="108"/>
      <point x="639" y="141"/>
      <point x="691" y="197" type="curve" smooth="yes"/>
      <point x="742" y="252"/>
      <point x="772" y="329"/>
      <point x="772" y="420" type="curve" smooth="yes"/>
      <point x="772" y="513"/>
      <point x="743" y="588"/>
      <point x="694" y="640" type="curve" smooth="yes"/>
      <point x="645" y="691"/>
      <point x="574" y="719"/>
    </contour>
  </outline>
</glyph>
<glyph name="seven" format="1">
  <advance width="913"/>
  <unicode hex="0037"/>
  <note>
    seven
  </note>
  <outline>
    <contour>
      <point x="738" y="1143" type="curve"/>
      <point x="10" y="1143" type="line"/>
      <point x="10" y="1263" type="line"/>
      <point x="904" y="1263" type="line"/>
      <point x="904" y="1152" type="line"/>
      <point x="816" y="1040"/>
      <point x="740" y="929"/>
      <point x="676" y="818" type="curve" smooth="yes"/>
      <point x="600" y="689"/>
      <point x="530" y="543"/>
      <point x="477" y="402" type="curve" smooth="yes"/>
      <point x="444" y="313"/>
      <point x="408" y="178"/>
      <point x="368" y="-2" type="curve"/>
      <point x="226" y="-2" type="line"/>
      <point x="259" y="155"/>
      <point x="301" y="306"/>
      <point x="349" y="443" type="curve" smooth="yes"/>
      <point x="390" y="560"/>
      <point x="460" y="708"/>
      <point x="552" y="873" type="curve" smooth="yes"/>
      <point x="599" y="957"/>
      <point x="662" y="1050"/>
    </contour>
  </outline>
</glyph>
<glyph name="eight" format="1">
  <advance width="940"/>
  <unicode hex="0038"/>
  <note>
    eight
  </note>
  <outline>
    <contour>
      <point x="653" y="1121" type="curve" smooth="yes"/>
      <point x="605" y="1158"/>
      <point x="541" y="1180"/>
      <point x="477" y="1180" type="curve" smooth="yes"/>
      <point x="404" y="1180"/>
      <point x="338" y="1157"/>
      <point x="290" y="1118" type="curve" smooth="yes"/>
      <point x="242" y="1079"/>
      <point x="213" y="1024"/>
      <point x="213" y="963" type="curve" smooth="yes"/>
      <point x="213" y="823"/>
      <point x="302" y="753"/>
      <point x="481" y="753" type="curve" smooth="yes"/>
      <point x="550" y="753"/>
      <point x="613" y="774"/>
      <point x="658" y="811" type="curve" smooth="yes"/>
      <point x="703" y="847"/>
      <point x="731" y="899"/>
      <point x="731" y="963" type="curve" smooth="yes"/>
      <point x="731" y="1028"/>
      <point x="700" y="1084"/>
    </contour>
    <contour>
      <point x="689" y="562" type="curve" smooth="yes"/>
      <point x="636" y="606"/>
      <point x="561" y="631"/>
      <point x="473" y="631" type="curve" smooth="yes"/>
      <point x="380" y="631"/>
      <point x="303" y="607"/>
      <point x="250" y="563" type="curve" smooth="yes"/>
      <point x="197" y="519"/>
      <point x="166" y="455"/>
      <point x="166" y="375" type="curve" smooth="yes"/>
      <point x="166" y="296"/>
      <point x="199" y="229"/>
      <point x="254" y="182" type="curve" smooth="yes"/>
      <point x="309" y="135"/>
      <point x="384" y="108"/>
      <point x="471" y="108" type="curve" smooth="yes"/>
      <point x="555" y="108"/>
      <point x="629" y="134"/>
      <point x="684" y="182" type="curve" smooth="yes"/>
      <point x="739" y="229"/>
      <point x="772" y="295"/>
      <point x="772" y="375" type="curve" smooth="yes"/>
      <point x="772" y="452"/>
      <point x="741" y="517"/>
    </contour>
    <contour>
      <point x="190" y="1207" type="curve" smooth="yes"/>
      <point x="262" y="1266"/>
      <point x="364" y="1300"/>
      <point x="477" y="1300" type="curve" smooth="yes"/>
      <point x="586" y="1300"/>
      <point x="684" y="1266"/>
      <point x="756" y="1207" type="curve" smooth="yes"/>
      <point x="827" y="1148"/>
      <point x="870" y="1066"/>
      <point x="870" y="971" type="curve" smooth="yes"/>
      <point x="870" y="850"/>
      <point x="815" y="758"/>
      <point x="718" y="702" type="curve"/>
      <point x="848" y="633"/>
      <point x="913" y="530"/>
      <point x="913" y="393" type="curve" smooth="yes"/>
      <point x="913" y="270"/>
      <point x="867" y="168"/>
      <point x="790" y="96" type="curve" smooth="yes"/>
      <point x="713" y="24"/>
      <point x="604" y="-18"/>
      <point x="479" y="-18" type="curve" smooth="yes"/>
      <point x="347" y="-18"/>
      <point x="234" y="22"/>
      <point x="154" y="91" type="curve" smooth="yes"/>
      <point x="74" y="160"/>
      <point x="27" y="261"/>
      <point x="27" y="381" type="curve" smooth="yes"/>
      <point x="27" y="450"/>
      <point x="46" y="517"/>
      <point x="80" y="572" type="curve" smooth="yes"/>
      <point x="114" y="627"/>
      <point x="163" y="672"/>
      <point x="226" y="700" type="curve"/>
      <point x="123" y="746"/>
      <point x="72" y="834"/>
      <point x="72" y="965" type="curve" smooth="yes"/>
      <point x="72" y="1064"/>
      <point x="117" y="1147"/>
    </contour>
  </outline>
</glyph>
<glyph name="nine" format="1">
  <advance width="938"/>
  <unicode hex="0039"/>
  <note>
    nine
  </note>
  <outline>
    <contour>
      <point x="447" y="561" type="curve" smooth="yes"/>
      <point x="544" y="561"/>
      <point x="624" y="599"/>
      <point x="686" y="674" type="curve" smooth="yes"/>
      <point x="729" y="725"/>
      <point x="750" y="789"/>
      <point x="750" y="866" type="curve" smooth="yes"/>
      <point x="750" y="959"/>
      <point x="719" y="1037"/>
      <point x="667" y="1090" type="curve" smooth="yes"/>
      <point x="615" y="1142"/>
      <point x="542" y="1172"/>
      <point x="459" y="1172" type="curve" smooth="yes"/>
      <point x="372" y="1172"/>
      <point x="299" y="1140"/>
      <point x="248" y="1085" type="curve" smooth="yes"/>
      <point x="196" y="1029"/>
      <point x="166" y="951"/>
      <point x="166" y="860" type="curve" smooth="yes"/>
      <point x="166" y="768"/>
      <point x="195" y="693"/>
      <point x="244" y="641" type="curve" smooth="yes"/>
      <point x="292" y="589"/>
      <point x="363" y="561"/>
    </contour>
    <contour>
      <point x="434" y="98" type="curve" smooth="yes"/>
      <point x="578" y="98"/>
      <point x="675" y="171"/>
      <point x="724" y="316" type="curve" smooth="yes"/>
      <point x="750" y="393"/>
      <point x="767" y="484"/>
      <point x="775" y="588" type="curve"/>
      <point x="694" y="487"/>
      <point x="581" y="436"/>
      <point x="436" y="436" type="curve" smooth="yes"/>
      <point x="317" y="436"/>
      <point x="215" y="479"/>
      <point x="143" y="553" type="curve" smooth="yes"/>
      <point x="70" y="627"/>
      <point x="27" y="731"/>
      <point x="27" y="858" type="curve" smooth="yes"/>
      <point x="27" y="993"/>
      <point x="69" y="1103"/>
      <point x="144" y="1179" type="curve" smooth="yes"/>
      <point x="219" y="1255"/>
      <point x="324" y="1298"/>
      <point x="451" y="1298" type="curve" smooth="yes"/>
      <point x="756" y="1298"/>
      <point x="909" y="1091"/>
      <point x="909" y="678" type="curve" smooth="yes"/>
      <point x="909" y="214"/>
      <point x="754" y="-18"/>
      <point x="445" y="-18" type="curve" smooth="yes"/>
      <point x="328" y="-18"/>
      <point x="238" y="8"/>
      <point x="181" y="53" type="curve"/>
      <point x="101" y="121"/>
      <point x="55" y="217"/>
      <point x="54" y="338" type="curve"/>
      <point x="188" y="338" type="line"/>
      <point x="189" y="259"/>
      <point x="214" y="200"/>
      <point x="258" y="160" type="curve" smooth="yes"/>
      <point x="301" y="119"/>
      <point x="361" y="98"/>
    </contour>
  </outline>
</glyph>
<glyph name="colon" format="1">
  <advance width="286"/>
  <unicode hex="003A"/>
  <note>
    colon
  </note>
  <outline>
    <contour>
      <point x="63" y="338" type="curve" smooth="yes"/>
      <point x="83" y="358"/>
      <point x="112" y="370"/>
      <point x="143" y="370" type="curve" smooth="yes"/>
      <point x="174" y="370"/>
      <point x="202" y="357"/>
      <point x="223" y="337" type="curve" smooth="yes"/>
      <point x="243" y="317"/>
      <point x="256" y="289"/>
      <point x="256" y="258" type="curve" smooth="yes"/>
      <point x="256" y="226"/>
      <point x="243" y="198"/>
      <point x="223" y="178" type="curve" smooth="yes"/>
      <point x="203" y="158"/>
      <point x="175" y="146"/>
      <point x="143" y="146" type="curve" smooth="yes"/>
      <point x="112" y="146"/>
      <point x="83" y="158"/>
      <point x="63" y="178" type="curve" smooth="yes"/>
      <point x="42" y="198"/>
      <point x="29" y="226"/>
      <point x="29" y="258" type="curve" smooth="yes"/>
      <point x="29" y="290"/>
      <point x="42" y="318"/>
    </contour>
    <contour>
      <point x="63" y="787" type="curve" smooth="yes"/>
      <point x="83" y="807"/>
      <point x="112" y="819"/>
      <point x="143" y="819" type="curve" smooth="yes"/>
      <point x="174" y="819"/>
      <point x="202" y="806"/>
      <point x="223" y="786" type="curve" smooth="yes"/>
      <point x="243" y="766"/>
      <point x="256" y="738"/>
      <point x="256" y="707" type="curve" smooth="yes"/>
      <point x="256" y="675"/>
      <point x="243" y="647"/>
      <point x="223" y="627" type="curve" smooth="yes"/>
      <point x="203" y="607"/>
      <point x="175" y="594"/>
      <point x="143" y="594" type="curve" smooth="yes"/>
      <point x="112" y="594"/>
      <point x="83" y="607"/>
      <point x="63" y="627" type="curve" smooth="yes"/>
      <point x="42" y="647"/>
      <point x="29" y="675"/>
      <point x="29" y="707" type="curve" smooth="yes"/>
      <point x="29" y="739"/>
      <point x="42" y="767"/>
    </contour>
  </outline>
</glyph>
<glyph name="semicolon" format="1">
  <advance width="318"/>
  <unicode hex="003B"/>
  <note>
    semicolon
  </note>
  <outline>
    <contour>
      <point x="53" y="477" type="curve" smooth="yes"/>
      <point x="53" y="526"/>
      <point x="73" y="561"/>
      <point x="113" y="582" type="curve"/>
      <point x="132" y="593"/>
      <point x="151" y="598"/>
      <point x="171" y="598" type="curve" smooth="yes"/>
      <point x="204" y="598"/>
      <point x="235" y="584"/>
      <point x="256" y="563" type="curve" smooth="yes"/>
      <point x="277" y="542"/>
      <point x="290" y="512"/>
      <point x="290" y="479" type="curve" smooth="yes"/>
      <point x="290" y="444"/>
      <point x="276" y="415"/>
      <point x="255" y="395" type="curve" smooth="yes"/>
      <point x="234" y="375"/>
      <point x="205" y="363"/>
      <point x="174" y="363" type="curve" smooth="yes"/>
      <point x="105" y="363"/>
      <point x="53" y="405"/>
    </contour>
    <contour>
      <point x="113" y="27" type="curve" smooth="yes"/>
      <point x="113" y="84"/>
      <point x="98" y="142"/>
      <point x="69" y="203" type="curve"/>
      <point x="257" y="203" type="line"/>
      <point x="278" y="164"/>
      <point x="288" y="119"/>
      <point x="288" y="66" type="curve" smooth="yes"/>
      <point x="288" y="-55"/>
      <point x="242" y="-156"/>
      <point x="178" y="-225" type="curve"/>
      <point x="19" y="-225" type="line"/>
      <point x="87" y="-144"/>
      <point x="113" y="-61"/>
    </contour>
  </outline>
</glyph>
<glyph name="less" format="1">
  <advance width="1093"/>
  <unicode hex="003C"/>
  <note>
    less
  </note>
  <outline>
    <contour>
      <point x="1055" y="1069" type="line"/>
      <point x="1055" y="893" type="line"/>
      <point x="301" y="518" type="line"/>
      <point x="1055" y="141" type="line"/>
      <point x="1055" y="-32" type="line"/>
      <point x="1" y="483" type="line"/>
      <point x="1" y="551" type="line"/>
    </contour>
  </outline>
</glyph>
<glyph name="equal" format="1">
  <advance width="608"/>
  <unicode hex="003D"/>
  <note>
    equal
  </note>
  <outline>
    <contour>
      <point x="580" y="604" type="line"/>
      <point x="580" y="451" type="line"/>
      <point x="38" y="451" type="line"/>
      <point x="38" y="604" type="line"/>
    </contour>
    <contour>
      <point x="580" y="397" type="line"/>
      <point x="580" y="244" type="line"/>
      <point x="38" y="244" type="line"/>
      <point x="38" y="397" type="line"/>
    </contour>
  </outline>
</glyph>
<glyph name="greater" format="1">
  <advance width="1173"/>
  <unicode hex="003E"/>
  <note>
    greater
  </note>
  <outline>
    <contour>
      <point x="38" y="-31" type="line"/>
      <point x="38" y="141" type="line"/>
      <point x="871" y="518" type="line"/>
      <point x="38" y="893" type="line"/>
      <point x="38" y="1068" type="line"/>
      <point x="1172" y="551" type="line"/>
      <point x="1172" y="483" type="line"/>
    </contour>
  </outline>
</glyph>
<glyph name="question" format="1">
  <advance width="843"/>
  <unicode hex="003F"/>
  <note>
    question
  </note>
  <outline>
    <contour>
      <point x="164" y="76" type="curve" smooth="yes"/>
      <point x="164" y="132"/>
      <point x="204" y="172"/>
      <point x="260" y="172" type="curve" smooth="yes"/>
      <point x="285" y="172"/>
      <point x="310" y="162"/>
      <point x="328" y="146" type="curve" smooth="yes"/>
      <point x="346" y="129"/>
      <point x="356" y="106"/>
      <point x="356" y="78" type="curve" smooth="yes"/>
      <point x="356" y="22"/>
      <point x="318" y="-18"/>
      <point x="262" y="-18" type="curve" smooth="yes"/>
      <point x="235" y="-18"/>
      <point x="212" y="-8"/>
      <point x="194" y="9" type="curve" smooth="yes"/>
      <point x="176" y="26"/>
      <point x="164" y="49"/>
    </contour>
    <contour>
      <point x="381" y="829" type="curve" smooth="yes"/>
      <point x="381" y="874"/>
      <point x="363" y="915"/>
      <point x="328" y="950" type="curve"/>
      <point x="476" y="950" type="line"/>
      <point x="505" y="913"/>
      <point x="520" y="863"/>
      <point x="520" y="801" type="curve" smooth="yes"/>
      <point x="520" y="736"/>
      <point x="493" y="686"/>
      <point x="439" y="651" type="curve"/>
      <point x="440" y="651" type="line"/>
      <point x="397" y="624"/>
      <point x="347" y="610"/>
      <point x="291" y="610" type="curve" smooth="yes"/>
      <point x="208" y="610"/>
      <point x="141" y="638"/>
      <point x="94" y="688" type="curve" smooth="yes"/>
      <point x="47" y="738"/>
      <point x="21" y="808"/>
      <point x="21" y="895" type="curve" smooth="yes"/>
      <point x="21" y="1003"/>
      <point x="60" y="1090"/>
      <point x="129" y="1151" type="curve" smooth="yes"/>
      <point x="197" y="1211"/>
      <point x="294" y="1245"/>
      <point x="410" y="1245" type="curve" smooth="yes"/>
      <point x="534" y="1245"/>
      <point x="638" y="1197"/>
      <point x="713" y="1116" type="curve" smooth="yes"/>
      <point x="788" y="1035"/>
      <point x="831" y="922"/>
      <point x="831" y="791" type="curve" smooth="yes"/>
      <point x="831" y="651"/>
      <point x="769" y="537"/>
      <point x="645" y="449" type="curve" smooth="yes"/>
      <point x="614" y="426"/>
      <point x="544" y="394"/>
      <point x="452" y="358" type="curve" smooth="yes"/>
      <point x="401" y="338"/>
      <point x="369" y="320"/>
      <point x="350" y="303" type="curve" smooth="yes"/>
      <point x="330" y="286"/>
      <point x="323" y="269"/>
      <point x="323" y="249" type="curve" smooth="yes"/>
      <point x="323" y="233"/>
      <point x="325" y="218"/>
      <point x="328" y="199" type="curve"/>
      <point x="193" y="199" type="line"/>
      <point x="187" y="227"/>
      <point x="184" y="250"/>
      <point x="184" y="268" type="curve" smooth="yes"/>
      <point x="184" y="327"/>
      <point x="204" y="361"/>
      <point x="256" y="395" type="curve" smooth="yes"/>
      <point x="282" y="412"/>
      <point x="317" y="430"/>
      <point x="360" y="449" type="curve" smooth="yes"/>
      <point x="403" y="468"/>
      <point x="456" y="493"/>
      <point x="520" y="523" type="curve"/>
      <point x="519" y="523" type="line"/>
      <point x="634" y="582"/>
      <point x="692" y="673"/>
      <point x="692" y="795" type="curve" smooth="yes"/>
      <point x="692" y="887"/>
      <point x="663" y="970"/>
      <point x="614" y="1030" type="curve" smooth="yes"/>
      <point x="565" y="1089"/>
      <point x="494" y="1125"/>
      <point x="410" y="1125" type="curve" smooth="yes"/>
      <point x="338" y="1125"/>
      <point x="274" y="1104"/>
      <point x="229" y="1066" type="curve" smooth="yes"/>
      <point x="184" y="1028"/>
      <point x="157" y="973"/>
      <point x="157" y="905" type="curve" smooth="yes"/>
      <point x="157" y="796"/>
      <point x="201" y="737"/>
      <point x="290" y="737" type="curve" smooth="yes"/>
      <point x="351" y="737"/>
      <point x="381" y="768"/>
    </contour>
  </outline>
</glyph>
<glyph name="bracketleft" format="1">
  <advance width="503"/>
  <unicode hex="005B"/>
  <note>
    bracketleft
  </note>
  <outline>
    <contour>
      <point x="208" y="1299" type="line"/>
      <point x="208" y="-318" type="line"/>
      <point x="499" y="-318" type="line"/>
      <point x="499" y="-416" type="line"/>
      <point x="38" y="-416" type="line"/>
      <point x="38" y="1396" type="line"/>
      <point x="499" y="1396" type="line"/>
      <point x="499" y="1299" type="line"/>
    </contour>
  </outline>
</glyph>
<glyph name="backslash" format="1">
  <advance width="603"/>
  <unicode hex="005C"/>
  <note>
    backslash
  </note>
  <outline>
    <contour>
      <point x="600" y="-39" type="line"/>
      <point x="501" y="-39" type="line"/>
      <point x="3" y="1431" type="line"/>
      <point x="105" y="1431" type="line"/>
    </contour>
  </outline>
</glyph>
<glyph name="bracketright" format="1">
  <advance width="501"/>
  <unicode hex="005D"/>
  <note>
    bracketright
  </note>
  <outline>
    <contour>
      <point x="293" y="-318" type="line"/>
      <point x="293" y="1299" type="line"/>
      <point x="4" y="1299" type="line"/>
      <point x="4" y="1396" type="line"/>
      <point x="462" y="1396" type="line"/>
      <point x="462" y="-418" type="line"/>
      <point x="4" y="-418" type="line"/>
      <point x="4" y="-318" type="line"/>
    </contour>
  </outline>
</glyph>
<glyph name="asciicircum" format="1">
  <advance width="949"/>
  <unicode hex="005E"/>
  <note>
    asciicircum
  </note>
  <outline>
    <contour>
      <point x="132" y="658" type="curve"/>
      <point x="13" y="658" type="line"/>
      <point x="458" y="1394" type="line"/>
      <point x="498" y="1394" type="line"/>
      <point x="936" y="658" type="line"/>
      <point x="820" y="658" type="line"/>
      <point x="476" y="1233" type="line"/>
      <point x="419" y="1138"/>
      <point x="362" y="1042"/>
      <point x="304" y="946" type="curve" smooth="yes"/>
      <point x="246" y="849"/>
      <point x="189" y="753"/>
    </contour>
  </outline>
</glyph>
<glyph name="underscore" format="1">
  <advance width="517"/>
  <unicode hex="005F"/>
  <note>
    underscore
  </note>
  <outline>
    <contour>
      <point x="478" y="30" type="line"/>
      <point x="478" y="-37" type="line"/>
      <point x="38" y="-37" type="line"/>
      <point x="38" y="30" type="line"/>
    </contour>
  </outline>
</glyph>
<glyph name="grave" format="1">
  <advance width="315"/>
  <unicode hex="0060"/>
  <note>
    grave
  </note>
  <outline>
    <contour>
      <point x="26" y="1354" type="curve" smooth="yes"/>
      <point x="26" y="1407"/>
      <point x="36" y="1452"/>
      <point x="57" y="1491" type="curve"/>
      <point x="244" y="1491" type="line"/>
      <point x="215" y="1431"/>
      <point x="200" y="1373"/>
      <point x="200" y="1318" type="curve" smooth="yes"/>
      <point x="200" y="1234"/>
      <point x="227" y="1143"/>
      <point x="295" y="1063" type="curve"/>
      <point x="136" y="1063" type="line"/>
      <point x="72" y="1132"/>
      <point x="26" y="1233"/>
    </contour>
  </outline>
</glyph>
<glyph name="braceleft" format="1">
  <advance width="479"/>
  <unicode hex="007B"/>
  <note>
    braceleft
  </note>
  <outline>
    <contour>
      <point x="309" y="350" type="curve" smooth="yes"/>
      <point x="309" y="59" type="line" smooth="yes"/>
      <point x="309" y="-24"/>
      <point x="334" y="-72"/>
      <point x="383" y="-84" type="curve"/>
      <point x="458" y="-84" type="line"/>
      <point x="458" y="-207" type="line"/>
      <point x="345" y="-207" type="line"/>
      <point x="293" y="-202"/>
      <point x="247" y="-173"/>
      <point x="212" y="-132" type="curve" smooth="yes"/>
      <point x="177" y="-91"/>
      <point x="156" y="-34"/>
      <point x="156" y="27" type="curve" smooth="yes"/>
      <point x="156" y="319" type="line" smooth="yes"/>
      <point x="156" y="408"/>
      <point x="148" y="469"/>
      <point x="125" y="509" type="curve" smooth="yes"/>
      <point x="102" y="548"/>
      <point x="65" y="566"/>
      <point x="8" y="573" type="curve"/>
      <point x="8" y="703" type="line"/>
      <point x="65" y="708"/>
      <point x="102" y="728"/>
      <point x="125" y="768" type="curve" smooth="yes"/>
      <point x="148" y="808"/>
      <point x="156" y="870"/>
      <point x="156" y="961" type="curve" smooth="yes"/>
      <point x="156" y="1255" type="line" smooth="yes"/>
      <point x="156" y="1315"/>
      <point x="178" y="1371"/>
      <point x="212" y="1414" type="curve" smooth="yes"/>
      <point x="246" y="1457"/>
      <point x="293" y="1485"/>
      <point x="345" y="1489" type="curve"/>
      <point x="458" y="1489" type="line"/>
      <point x="458" y="1366" type="line"/>
      <point x="383" y="1366" type="line"/>
      <point x="334" y="1354"/>
      <point x="309" y="1306"/>
      <point x="309" y="1223" type="curve" smooth="yes"/>
      <point x="309" y="930" type="line" smooth="yes"/>
      <point x="309" y="815"/>
      <point x="267" y="718"/>
      <point x="182" y="639" type="curve"/>
      <point x="267" y="571"/>
      <point x="309" y="475"/>
    </contour>
  </outline>
</glyph>
<glyph name="braceright" format="1">
  <advance width="479"/>
  <unicode hex="007D"/>
  <note>
    braceright
  </note>
  <outline>
    <contour>
      <point x="170" y="932" type="curve" smooth="yes"/>
      <point x="170" y="1223" type="line" smooth="yes"/>
      <point x="170" y="1306"/>
      <point x="145" y="1354"/>
      <point x="96" y="1366" type="curve"/>
      <point x="21" y="1366" type="line"/>
      <point x="21" y="1489" type="line"/>
      <point x="134" y="1489" type="line"/>
      <point x="186" y="1485"/>
      <point x="233" y="1456"/>
      <point x="268" y="1413" type="curve" smooth="yes"/>
      <point x="303" y="1370"/>
      <point x="324" y="1314"/>
      <point x="324" y="1255" type="curve" smooth="yes"/>
      <point x="324" y="963" type="line" smooth="yes"/>
      <point x="324" y="872"/>
      <point x="332" y="811"/>
      <point x="356" y="771" type="curve" smooth="yes"/>
      <point x="379" y="731"/>
      <point x="415" y="712"/>
      <point x="471" y="707" type="curve"/>
      <point x="471" y="577" type="line"/>
      <point x="406" y="570"/>
      <point x="364" y="540"/>
      <point x="343" y="485" type="curve"/>
      <point x="343" y="486" type="line"/>
      <point x="330" y="452"/>
      <point x="324" y="397"/>
      <point x="324" y="322" type="curve" smooth="yes"/>
      <point x="324" y="27" type="line" smooth="yes"/>
      <point x="324" y="-33"/>
      <point x="303" y="-88"/>
      <point x="268" y="-130" type="curve" smooth="yes"/>
      <point x="233" y="-172"/>
      <point x="186" y="-202"/>
      <point x="134" y="-207" type="curve"/>
      <point x="21" y="-207" type="line"/>
      <point x="21" y="-84" type="line"/>
      <point x="96" y="-84" type="line"/>
      <point x="145" y="-72"/>
      <point x="170" y="-24"/>
      <point x="170" y="59" type="curve" smooth="yes"/>
      <point x="170" y="352" type="line" smooth="yes"/>
      <point x="170" y="467"/>
      <point x="213" y="564"/>
      <point x="298" y="643" type="curve"/>
      <point x="213" y="712"/>
      <point x="170" y="809"/>
    </contour>
  </outline>
</glyph>
<glyph name="sinAnusvara" format="1">
  <advance width="919"/>
  <unicode hex="0D82"/>
  <note>
    sinAnusvara
  </note>
  <outline>
    <contour>
      <point x="426" y="660" type="curve" smooth="yes"/>
      <point x="364" y="660"/>
      <point x="311" y="641"/>
      <point x="266" y="604" type="curve" smooth="yes"/>
      <point x="210" y="557"/>
      <point x="171" y="484"/>
      <point x="171" y="400" type="curve" smooth="yes"/>
      <point x="171" y="313"/>
      <point x="203" y="245"/>
      <point x="252" y="198" type="curve" smooth="yes"/>
      <point x="301" y="151"/>
      <point x="368" y="127"/>
      <point x="436" y="127" type="curve" smooth="yes"/>
      <point x="509" y="127"/>
      <point x="576" y="157"/>
      <point x="624" y="206" type="curve" smooth="yes"/>
      <point x="671" y="255"/>
      <point x="700" y="323"/>
      <point x="700" y="399" type="curve" smooth="yes"/>
      <point x="700" y="474"/>
      <point x="666" y="539"/>
      <point x="615" y="586" type="curve" smooth="yes"/>
      <point x="564" y="633"/>
      <point x="495" y="660"/>
    </contour>
    <contour>
      <point x="26" y="401" type="curve" smooth="yes"/>
      <point x="26" y="518"/>
      <point x="69" y="618"/>
      <point x="154" y="699" type="curve" smooth="yes"/>
      <point x="233" y="774"/>
      <point x="327" y="811"/>
      <point x="436" y="811" type="curve" smooth="yes"/>
      <point x="548" y="811"/>
      <point x="650" y="766"/>
      <point x="725" y="691" type="curve" smooth="yes"/>
      <point x="800" y="616"/>
      <point x="847" y="514"/>
      <point x="847" y="399" type="curve" smooth="yes"/>
      <point x="847" y="287"/>
      <point x="801" y="186"/>
      <point x="726" y="112" type="curve" smooth="yes"/>
      <point x="651" y="38"/>
      <point x="550" y="-8"/>
      <point x="438" y="-8" type="curve" smooth="yes"/>
      <point x="325" y="-8"/>
      <point x="222" y="38"/>
      <point x="147" y="112" type="curve" smooth="yes"/>
      <point x="72" y="186"/>
      <point x="26" y="288"/>
    </contour>
  </outline>
</glyph>
<glyph name="sinVisarga" format="1">
  <advance width="496"/>
  <unicode hex="0D83"/>
  <note>
    sinVisarga
  </note>
  <outline>
    <contour>
      <point x="222" y="303" type="curve" smooth="yes"/>
      <point x="186" y="303"/>
      <point x="154" y="271"/>
      <point x="154" y="236" type="curve" smooth="yes"/>
      <point x="154" y="197"/>
      <point x="184" y="168"/>
      <point x="220" y="168" type="curve" smooth="yes"/>
      <point x="259" y="168"/>
      <point x="288" y="200"/>
      <point x="288" y="236" type="curve" smooth="yes"/>
      <point x="288" y="273"/>
      <point x="261" y="303"/>
    </contour>
    <contour>
      <point x="222" y="795" type="curve" smooth="yes"/>
      <point x="186" y="795"/>
      <point x="154" y="763"/>
      <point x="154" y="727" type="curve" smooth="yes"/>
      <point x="154" y="688"/>
      <point x="184" y="659"/>
      <point x="220" y="659" type="curve" smooth="yes"/>
      <point x="259" y="659"/>
      <point x="288" y="691"/>
      <point x="288" y="727" type="curve" smooth="yes"/>
      <point x="288" y="766"/>
      <point x="261" y="795"/>
    </contour>
    <contour>
      <point x="28" y="242" type="curve" smooth="yes"/>
      <point x="28" y="291"/>
      <point x="44" y="334"/>
      <point x="75" y="371" type="curve"/>
      <point x="75" y="372" type="line"/>
      <point x="114" y="417"/>
      <point x="165" y="440"/>
      <point x="226" y="440" type="curve" smooth="yes"/>
      <point x="282" y="440"/>
      <point x="331" y="418"/>
      <point x="367" y="382" type="curve" smooth="yes"/>
      <point x="403" y="346"/>
      <point x="424" y="297"/>
      <point x="424" y="242" type="curve" smooth="yes"/>
      <point x="424" y="192"/>
      <point x="408" y="149"/>
      <point x="377" y="112" type="curve"/>
      <point x="377" y="113" type="line"/>
      <point x="338" y="66"/>
      <point x="288" y="43"/>
      <point x="226" y="43" type="curve" smooth="yes"/>
      <point x="170" y="43"/>
      <point x="120" y="65"/>
      <point x="85" y="101" type="curve" smooth="yes"/>
      <point x="49" y="137"/>
      <point x="28" y="187"/>
    </contour>
    <contour>
      <point x="28" y="733" type="curve" smooth="yes"/>
      <point x="28" y="783"/>
      <point x="44" y="826"/>
      <point x="75" y="863" type="curve"/>
      <point x="75" y="862" type="line"/>
      <point x="114" y="909"/>
      <point x="164" y="932"/>
      <point x="226" y="932" type="curve" smooth="yes"/>
      <point x="282" y="932"/>
      <point x="332" y="910"/>
      <point x="368" y="874" type="curve" smooth="yes"/>
      <point x="403" y="838"/>
      <point x="424" y="788"/>
      <point x="424" y="733" type="curve" smooth="yes"/>
      <point x="424" y="677"/>
      <point x="402" y="628"/>
      <point x="366" y="592" type="curve" smooth="yes"/>
      <point x="330" y="556"/>
      <point x="281" y="535"/>
      <point x="226" y="535" type="curve" smooth="yes"/>
      <point x="170" y="535"/>
      <point x="120" y="557"/>
      <point x="85" y="593" type="curve" smooth="yes"/>
      <point x="49" y="629"/>
      <point x="28" y="678"/>
    </contour>
  </outline>
</glyph>
<glyph name="sinA" format="1">
  <advance width="1270"/>
  <unicode hex="0D85"/>
  <note>
    sinA
  </note>
  <outline>
    <contour>
      <point x="1065" y="680" type="curve" smooth="yes"/>
      <point x="1065" y="711"/>
      <point x="1041" y="760"/>
      <point x="997" y="821" type="curve" smooth="yes"/>
      <point x="972" y="856"/>
      <point x="959" y="891"/>
      <point x="959" y="928" type="curve"/>
      <point x="918" y="913"/>
      <point x="898" y="874"/>
      <point x="898" y="809" type="curve" smooth="yes"/>
      <point x="898" y="582" type="line"/>
      <point x="917" y="582" type="line" smooth="yes"/>
      <point x="1016" y="582"/>
      <point x="1065" y="615"/>
    </contour>
    <contour>
      <point x="438" y="782" type="curve" smooth="yes"/>
      <point x="649" y="782" type="line"/>
      <point x="641" y="879"/>
      <point x="583" y="928"/>
      <point x="475" y="928" type="curve" smooth="yes"/>
      <point x="337" y="928"/>
      <point x="268" y="870"/>
      <point x="268" y="754" type="curve"/>
      <point x="316" y="773"/>
      <point x="373" y="782"/>
    </contour>
    <contour>
      <point x="712" y="111" type="curve" smooth="yes"/>
      <point x="739" y="111" type="line" smooth="yes"/>
      <point x="748" y="111"/>
      <point x="757" y="112"/>
      <point x="768" y="113" type="curve"/>
      <point x="768" y="664" type="line"/>
      <point x="462" y="664" type="line" smooth="yes"/>
      <point x="379" y="664"/>
      <point x="306" y="640"/>
      <point x="254" y="596" type="curve" smooth="yes"/>
      <point x="202" y="552"/>
      <point x="171" y="489"/>
      <point x="171" y="412" type="curve" smooth="yes"/>
      <point x="171" y="284"/>
      <point x="231" y="208"/>
      <point x="329" y="165" type="curve" smooth="yes"/>
      <point x="427" y="122"/>
      <point x="561" y="111"/>
    </contour>
    <contour>
      <point x="30" y="403" type="curve" smooth="yes"/>
      <point x="30" y="520"/>
      <point x="70" y="614"/>
      <point x="150" y="685" type="curve" smooth="yes"/>
      <point x="178" y="709"/>
      <point x="207" y="729"/>
      <point x="242" y="744" type="curve"/>
      <point x="129" y="744" type="line"/>
      <point x="134" y="948"/>
      <point x="247" y="1050"/>
      <point x="469" y="1050" type="curve" smooth="yes"/>
      <point x="629" y="1050"/>
      <point x="729" y="981"/>
      <point x="772" y="848" type="curve"/>
      <point x="776" y="904"/>
      <point x="797" y="954"/>
      <point x="838" y="990" type="curve" smooth="yes"/>
      <point x="878" y="1026"/>
      <point x="939" y="1048"/>
      <point x="1024" y="1048" type="curve" smooth="yes"/>
      <point x="1179" y="1048" type="line"/>
      <point x="1179" y="925" type="line"/>
      <point x="1147" y="934"/>
      <point x="1122" y="938"/>
      <point x="1105" y="938" type="curve" smooth="yes"/>
      <point x="1089" y="938"/>
      <point x="1087" y="929"/>
      <point x="1087" y="922" type="curve" smooth="yes"/>
      <point x="1087" y="920"/>
      <point x="1090" y="914"/>
      <point x="1096" y="905" type="curve"/>
      <point x="1108" y="885"/>
      <point x="1126" y="855"/>
      <point x="1147" y="819" type="curve" smooth="yes"/>
      <point x="1167" y="783"/>
      <point x="1185" y="746"/>
      <point x="1197" y="712" type="curve" smooth="yes"/>
      <point x="1203" y="695"/>
      <point x="1206" y="679"/>
      <point x="1206" y="666" type="curve" smooth="yes"/>
      <point x="1206" y="594"/>
      <point x="1175" y="542"/>
      <point x="1124" y="510" type="curve" smooth="yes"/>
      <point x="1072" y="477"/>
      <point x="1002" y="461"/>
      <point x="925" y="461" type="curve" smooth="yes"/>
      <point x="913" y="461" type="line" smooth="yes"/>
      <point x="908" y="461"/>
      <point x="903" y="461"/>
      <point x="898" y="462" type="curve"/>
      <point x="898" y="127" type="line"/>
      <point x="922" y="132"/>
      <point x="980" y="152"/>
      <point x="1040" y="174" type="curve" smooth="yes"/>
      <point x="1099" y="196"/>
      <point x="1158" y="220"/>
      <point x="1185" y="233" type="curve"/>
      <point x="1185" y="94" type="line"/>
      <point x="1073" y="41"/>
      <point x="974" y="12"/>
      <point x="898" y="1" type="curve"/>
      <point x="898" y="-346" type="line"/>
      <point x="768" y="-346" type="line"/>
      <point x="768" y="-11" type="line"/>
      <point x="733" y="-14"/>
      <point x="699" y="-15"/>
      <point x="656" y="-15" type="curve" smooth="yes"/>
      <point x="556" y="-15"/>
      <point x="448" y="-6"/>
      <point x="364" y="15" type="curve" smooth="yes"/>
      <point x="237" y="46"/>
      <point x="146" y="106"/>
      <point x="90" y="194" type="curve"/>
      <point x="90" y="193" type="line"/>
      <point x="50" y="254"/>
      <point x="30" y="324"/>
    </contour>
  </outline>
</glyph>
<glyph name="sinAa" format="1">
  <advance width="1962"/>
  <unicode hex="0D86"/>
  <note>
    sinAa
  </note>
  <outline>
    <contour>
      <point x="363" y="241" type="curve" smooth="yes"/>
      <point x="405" y="316"/>
      <point x="430" y="418"/>
      <point x="430" y="522" type="curve" smooth="yes"/>
      <point x="430" y="625"/>
      <point x="405" y="725"/>
      <point x="363" y="800" type="curve" smooth="yes"/>
      <point x="321" y="875"/>
      <point x="262" y="924"/>
      <point x="195" y="924" type="curve" smooth="yes"/>
      <point x="122" y="924"/>
      <point x="57" y="905"/>
      <point x="0" y="866" type="curve"/>
      <point x="0" y="998" type="line"/>
      <point x="32" y="1018"/>
      <point x="63" y="1032"/>
      <point x="94" y="1040" type="curve"/>
      <point x="93" y="1040" type="line"/>
      <point x="117" y="1047"/>
      <point x="154" y="1050"/>
      <point x="205" y="1050" type="curve" smooth="yes"/>
      <point x="322" y="1050"/>
      <point x="414" y="985"/>
      <point x="475" y="886" type="curve" smooth="yes"/>
      <point x="536" y="787"/>
      <point x="569" y="655"/>
      <point x="569" y="522" type="curve" smooth="yes"/>
      <point x="569" y="386"/>
      <point x="536" y="254"/>
      <point x="475" y="155" type="curve" smooth="yes"/>
      <point x="414" y="55"/>
      <point x="322" y="-10"/>
      <point x="205" y="-10" type="curve" smooth="yes"/>
      <point x="150" y="-10"/>
      <point x="114" y="-6"/>
      <point x="83" y="2" type="curve" smooth="yes"/>
      <point x="51" y="10"/>
      <point x="28" y="22"/>
      <point x="0" y="41" type="curve"/>
      <point x="0" y="175" type="line"/>
      <point x="59" y="136"/>
      <point x="124" y="116"/>
      <point x="195" y="116" type="curve" smooth="yes"/>
      <point x="262" y="116"/>
      <point x="321" y="165"/>
    </contour>
    <contour>
      <point x="1757" y="680" type="curve" smooth="yes"/>
      <point x="1757" y="711"/>
      <point x="1733" y="760"/>
      <point x="1689" y="821" type="curve" smooth="yes"/>
      <point x="1664" y="856"/>
      <point x="1651" y="891"/>
      <point x="1651" y="928" type="curve"/>
      <point x="1610" y="913"/>
      <point x="1590" y="874"/>
      <point x="1590" y="809" type="curve" smooth="yes"/>
      <point x="1590" y="582" type="line"/>
      <point x="1609" y="582" type="line" smooth="yes"/>
      <point x="1708" y="582"/>
      <point x="1757" y="615"/>
    </contour>
    <contour>
      <point x="1130" y="782" type="curve" smooth="yes"/>
      <point x="1341" y="782" type="line"/>
      <point x="1333" y="879"/>
      <point x="1275" y="928"/>
      <point x="1167" y="928" type="curve" smooth="yes"/>
      <point x="1029" y="928"/>
      <point x="960" y="870"/>
      <point x="960" y="754" type="curve"/>
      <point x="1008" y="773"/>
      <point x="1065" y="782"/>
    </contour>
    <contour>
      <point x="1404" y="111" type="curve" smooth="yes"/>
      <point x="1431" y="111" type="line" smooth="yes"/>
      <point x="1440" y="111"/>
      <point x="1449" y="112"/>
      <point x="1460" y="113" type="curve"/>
      <point x="1460" y="664" type="line"/>
      <point x="1154" y="664" type="line" smooth="yes"/>
      <point x="1071" y="664"/>
      <point x="998" y="640"/>
      <point x="946" y="596" type="curve" smooth="yes"/>
      <point x="894" y="552"/>
      <point x="863" y="489"/>
      <point x="863" y="412" type="curve" smooth="yes"/>
      <point x="863" y="284"/>
      <point x="923" y="208"/>
      <point x="1021" y="165" type="curve" smooth="yes"/>
      <point x="1119" y="122"/>
      <point x="1253" y="111"/>
    </contour>
    <contour>
      <point x="722" y="403" type="curve" smooth="yes"/>
      <point x="722" y="520"/>
      <point x="762" y="614"/>
      <point x="842" y="685" type="curve" smooth="yes"/>
      <point x="870" y="709"/>
      <point x="899" y="729"/>
      <point x="934" y="744" type="curve"/>
      <point x="821" y="744" type="line"/>
      <point x="826" y="948"/>
      <point x="939" y="1050"/>
      <point x="1161" y="1050" type="curve" smooth="yes"/>
      <point x="1321" y="1050"/>
      <point x="1421" y="981"/>
      <point x="1464" y="848" type="curve"/>
      <point x="1468" y="904"/>
      <point x="1489" y="954"/>
      <point x="1530" y="990" type="curve" smooth="yes"/>
      <point x="1570" y="1026"/>
      <point x="1631" y="1048"/>
      <point x="1716" y="1048" type="curve" smooth="yes"/>
      <point x="1871" y="1048" type="line"/>
      <point x="1871" y="925" type="line"/>
      <point x="1839" y="934"/>
      <point x="1814" y="938"/>
      <point x="1797" y="938" type="curve" smooth="yes"/>
      <point x="1781" y="938"/>
      <point x="1779" y="929"/>
      <point x="1779" y="922" type="curve" smooth="yes"/>
      <point x="1779" y="920"/>
      <point x="1782" y="914"/>
      <point x="1788" y="905" type="curve"/>
      <point x="1800" y="885"/>
      <point x="1818" y="855"/>
      <point x="1839" y="819" type="curve" smooth="yes"/>
      <point x="1859" y="783"/>
      <point x="1877" y="746"/>
      <point x="1889" y="712" type="curve" smooth="yes"/>
      <point x="1895" y="695"/>
      <point x="1898" y="679"/>
      <point x="1898" y="666" type="curve" smooth="yes"/>
      <point x="1898" y="594"/>
      <point x="1867" y="542"/>
      <point x="1816" y="510" type="curve" smooth="yes"/>
      <point x="1764" y="477"/>
      <point x="1694" y="461"/>
      <point x="1617" y="461" type="curve" smooth="yes"/>
      <point x="1605" y="461" type="line" smooth="yes"/>
      <point x="1600" y="461"/>
      <point x="1595" y="461"/>
      <point x="1590" y="462" type="curve"/>
      <point x="1590" y="127" type="line"/>
      <point x="1614" y="132"/>
      <point x="1672" y="152"/>
      <point x="1732" y="174" type="curve" smooth="yes"/>
      <point x="1791" y="196"/>
      <point x="1850" y="220"/>
      <point x="1877" y="233" type="curve"/>
      <point x="1877" y="94" type="line"/>
      <point x="1765" y="41"/>
      <point x="1666" y="12"/>
      <point x="1590" y="1" type="curve"/>
      <point x="1590" y="-346" type="line"/>
      <point x="1460" y="-346" type="line"/>
      <point x="1460" y="-11" type="line"/>
      <point x="1425" y="-14"/>
      <point x="1391" y="-15"/>
      <point x="1348" y="-15" type="curve" smooth="yes"/>
      <point x="1248" y="-15"/>
      <point x="1140" y="-6"/>
      <point x="1056" y="15" type="curve" smooth="yes"/>
      <point x="929" y="46"/>
      <point x="838" y="106"/>
      <point x="782" y="194" type="curve"/>
      <point x="782" y="193" type="line"/>
      <point x="742" y="254"/>
      <point x="722" y="324"/>
    </contour>
  </outline>
</glyph>
<glyph name="sinAe" format="1">
  <advance width="1995"/>
  <unicode hex="0D87"/>
  <note>
    sinAe
  </note>
  <outline>
    <contour>
      <point x="340" y="877" type="curve"/>
      <point x="0" y="877" type="line"/>
      <point x="0" y="995" type="line"/>
      <point x="655" y="995" type="line"/>
      <point x="655" y="887" type="line"/>
      <point x="352" y="751" type="line"/>
      <point x="655" y="751" type="line"/>
      <point x="655" y="636" type="line"/>
      <point x="503" y="605"/>
      <point x="383" y="541"/>
      <point x="300" y="470" type="curve" smooth="yes"/>
      <point x="216" y="399"/>
      <point x="171" y="321"/>
      <point x="171" y="264" type="curve" smooth="yes"/>
      <point x="171" y="163"/>
      <point x="235" y="112"/>
      <point x="364" y="112" type="curve" smooth="yes"/>
      <point x="417" y="112"/>
      <point x="466" y="129"/>
      <point x="500" y="159" type="curve" smooth="yes"/>
      <point x="534" y="189"/>
      <point x="555" y="231"/>
      <point x="555" y="283" type="curve" smooth="yes"/>
      <point x="555" y="310"/>
      <point x="546" y="342"/>
      <point x="528" y="379" type="curve"/>
      <point x="671" y="379" type="line"/>
      <point x="686" y="350"/>
      <point x="694" y="312"/>
      <point x="694" y="266" type="curve" smooth="yes"/>
      <point x="694" y="197"/>
      <point x="666" y="127"/>
      <point x="611" y="75" type="curve" smooth="yes"/>
      <point x="555" y="22"/>
      <point x="472" y="-14"/>
      <point x="360" y="-14" type="curve" smooth="yes"/>
      <point x="256" y="-14"/>
      <point x="172" y="16"/>
      <point x="115" y="65" type="curve" smooth="yes"/>
      <point x="58" y="113"/>
      <point x="26" y="181"/>
      <point x="26" y="258" type="curve" smooth="yes"/>
      <point x="26" y="342"/>
      <point x="59" y="419"/>
      <point x="115" y="483" type="curve" smooth="yes"/>
      <point x="170" y="547"/>
      <point x="246" y="598"/>
      <point x="334" y="631" type="curve"/>
      <point x="53" y="631" type="line"/>
      <point x="53" y="739" type="line"/>
      <point x="327" y="871" type="line"/>
      <point x="331" y="874"/>
      <point x="335" y="876"/>
    </contour>
    <contour>
      <point x="1790" y="680" type="curve" smooth="yes"/>
      <point x="1790" y="711"/>
      <point x="1766" y="760"/>
      <point x="1722" y="821" type="curve" smooth="yes"/>
      <point x="1697" y="856"/>
      <point x="1684" y="891"/>
      <point x="1684" y="928" type="curve"/>
      <point x="1643" y="913"/>
      <point x="1623" y="874"/>
      <point x="1623" y="809" type="curve" smooth="yes"/>
      <point x="1623" y="582" type="line"/>
      <point x="1642" y="582" type="line" smooth="yes"/>
      <point x="1741" y="582"/>
      <point x="1790" y="615"/>
    </contour>
    <contour>
      <point x="1163" y="782" type="curve" smooth="yes"/>
      <point x="1374" y="782" type="line"/>
      <point x="1366" y="879"/>
      <point x="1308" y="928"/>
      <point x="1200" y="928" type="curve" smooth="yes"/>
      <point x="1062" y="928"/>
      <point x="993" y="870"/>
      <point x="993" y="754" type="curve"/>
      <point x="1041" y="773"/>
      <point x="1098" y="782"/>
    </contour>
    <contour>
      <point x="1437" y="111" type="curve" smooth="yes"/>
      <point x="1464" y="111" type="line" smooth="yes"/>
      <point x="1473" y="111"/>
      <point x="1482" y="112"/>
      <point x="1493" y="113" type="curve"/>
      <point x="1493" y="664" type="line"/>
      <point x="1187" y="664" type="line" smooth="yes"/>
      <point x="1104" y="664"/>
      <point x="1031" y="640"/>
      <point x="979" y="596" type="curve" smooth="yes"/>
      <point x="927" y="552"/>
      <point x="896" y="489"/>
      <point x="896" y="412" type="curve" smooth="yes"/>
      <point x="896" y="284"/>
      <point x="956" y="208"/>
      <point x="1054" y="165" type="curve" smooth="yes"/>
      <point x="1152" y="122"/>
      <point x="1286" y="111"/>
    </contour>
    <contour>
      <point x="755" y="403" type="curve" smooth="yes"/>
      <point x="755" y="520"/>
      <point x="795" y="614"/>
      <point x="875" y="685" type="curve" smooth="yes"/>
      <point x="903" y="709"/>
      <point x="932" y="729"/>
      <point x="967" y="744" type="curve"/>
      <point x="854" y="744" type="line"/>
      <point x="859" y="948"/>
      <point x="972" y="1050"/>
      <point x="1194" y="1050" type="curve" smooth="yes"/>
      <point x="1354" y="1050"/>
      <point x="1454" y="981"/>
      <point x="1497" y="848" type="curve"/>
      <point x="1501" y="904"/>
      <point x="1522" y="954"/>
      <point x="1563" y="990" type="curve" smooth="yes"/>
      <point x="1603" y="1026"/>
      <point x="1664" y="1048"/>
      <point x="1749" y="1048" type="curve" smooth="yes"/>
      <point x="1904" y="1048" type="line"/>
      <point x="1904" y="925" type="line"/>
      <point x="1872" y="934"/>
      <point x="1847" y="938"/>
      <point x="1830" y="938" type="curve" smooth="yes"/>
      <point x="1814" y="938"/>
      <point x="1812" y="929"/>
      <point x="1812" y="922" type="curve" smooth="yes"/>
      <point x="1812" y="920"/>
      <point x="1815" y="914"/>
      <point x="1821" y="905" type="curve"/>
      <point x="1833" y="885"/>
      <point x="1851" y="855"/>
      <point x="1872" y="819" type="curve" smooth="yes"/>
      <point x="1892" y="783"/>
      <point x="1910" y="746"/>
      <point x="1922" y="712" type="curve" smooth="yes"/>
      <point x="1928" y="695"/>
      <point x="1931" y="679"/>
      <point x="1931" y="666" type="curve" smooth="yes"/>
      <point x="1931" y="594"/>
      <point x="1900" y="542"/>
      <point x="1849" y="510" type="curve" smooth="yes"/>
      <point x="1797" y="477"/>
      <point x="1727" y="461"/>
      <point x="1650" y="461" type="curve" smooth="yes"/>
      <point x="1638" y="461" type="line" smooth="yes"/>
      <point x="1633" y="461"/>
      <point x="1628" y="461"/>
      <point x="1623" y="462" type="curve"/>
      <point x="1623" y="127" type="line"/>
      <point x="1647" y="132"/>
      <point x="1705" y="152"/>
      <point x="1765" y="174" type="curve" smooth="yes"/>
      <point x="1824" y="196"/>
      <point x="1883" y="220"/>
      <point x="1910" y="233" type="curve"/>
      <point x="1910" y="94" type="line"/>
      <point x="1798" y="41"/>
      <point x="1699" y="12"/>
      <point x="1623" y="1" type="curve"/>
      <point x="1623" y="-346" type="line"/>
      <point x="1493" y="-346" type="line"/>
      <point x="1493" y="-11" type="line"/>
      <point x="1458" y="-14"/>
      <point x="1424" y="-15"/>
      <point x="1381" y="-15" type="curve" smooth="yes"/>
      <point x="1281" y="-15"/>
      <point x="1173" y="-6"/>
      <point x="1089" y="15" type="curve" smooth="yes"/>
      <point x="962" y="46"/>
      <point x="871" y="106"/>
      <point x="815" y="194" type="curve"/>
      <point x="815" y="193" type="line"/>
      <point x="775" y="254"/>
      <point x="755" y="324"/>
    </contour>
  </outline>
</glyph>
<glyph name="sinAae" format="1">
  <advance width="1989"/>
  <unicode hex="0D88"/>
  <note>
    sinAae
  </note>
  <outline>
    <contour>
      <point x="338" y="658" type="curve" smooth="yes"/>
      <point x="303" y="627"/>
      <point x="276" y="601"/>
      <point x="264" y="586" type="curve" smooth="yes"/>
      <point x="194" y="498"/>
      <point x="159" y="410"/>
      <point x="159" y="322" type="curve" smooth="yes"/>
      <point x="159" y="257"/>
      <point x="180" y="205"/>
      <point x="217" y="169" type="curve" smooth="yes"/>
      <point x="253" y="133"/>
      <point x="305" y="114"/>
      <point x="366" y="114" type="curve" smooth="yes"/>
      <point x="472" y="114"/>
      <point x="533" y="165"/>
      <point x="549" y="268" type="curve"/>
      <point x="549" y="267" type="line"/>
      <point x="551" y="282"/>
      <point x="552" y="296"/>
      <point x="552" y="310" type="curve" smooth="yes"/>
      <point x="552" y="353"/>
      <point x="538" y="397"/>
      <point x="510" y="442" type="curve"/>
      <point x="656" y="442" type="line"/>
      <point x="664" y="429"/>
      <point x="672" y="400"/>
      <point x="679" y="369" type="curve" smooth="yes"/>
      <point x="686" y="338"/>
      <point x="690" y="305"/>
      <point x="690" y="284" type="curve" smooth="yes"/>
      <point x="690" y="188"/>
      <point x="652" y="113"/>
      <point x="592" y="63" type="curve" smooth="yes"/>
      <point x="531" y="13"/>
      <point x="448" y="-14"/>
      <point x="356" y="-14" type="curve" smooth="yes"/>
      <point x="260" y="-14"/>
      <point x="176" y="17"/>
      <point x="116" y="76" type="curve" smooth="yes"/>
      <point x="55" y="135"/>
      <point x="18" y="220"/>
      <point x="18" y="328" type="curve" smooth="yes"/>
      <point x="18" y="383"/>
      <point x="25" y="429"/>
      <point x="40" y="465" type="curve"/>
      <point x="40" y="464" type="line"/>
      <point x="71" y="552"/>
      <point x="126" y="637"/>
      <point x="198" y="714" type="curve" smooth="yes"/>
      <point x="255" y="775"/>
      <point x="324" y="834"/>
      <point x="396" y="877" type="curve"/>
      <point x="0" y="877" type="line"/>
      <point x="0" y="995" type="line"/>
      <point x="651" y="995" type="line"/>
      <point x="651" y="887" type="line"/>
      <point x="636" y="878"/>
      <point x="617" y="867"/>
      <point x="596" y="855" type="curve" smooth="yes"/>
      <point x="575" y="843"/>
      <point x="552" y="829"/>
      <point x="527" y="814" type="curve"/>
      <point x="527" y="815" type="line"/>
      <point x="512" y="806"/>
      <point x="482" y="781"/>
      <point x="447" y="752" type="curve" smooth="yes"/>
      <point x="412" y="723"/>
      <point x="373" y="689"/>
    </contour>
    <contour>
      <point x="1784" y="680" type="curve" smooth="yes"/>
      <point x="1784" y="711"/>
      <point x="1760" y="760"/>
      <point x="1716" y="821" type="curve" smooth="yes"/>
      <point x="1691" y="856"/>
      <point x="1678" y="891"/>
      <point x="1678" y="928" type="curve"/>
      <point x="1637" y="913"/>
      <point x="1617" y="874"/>
      <point x="1617" y="809" type="curve" smooth="yes"/>
      <point x="1617" y="582" type="line"/>
      <point x="1636" y="582" type="line" smooth="yes"/>
      <point x="1735" y="582"/>
      <point x="1784" y="615"/>
    </contour>
    <contour>
      <point x="1157" y="782" type="curve" smooth="yes"/>
      <point x="1368" y="782" type="line"/>
      <point x="1360" y="879"/>
      <point x="1302" y="928"/>
      <point x="1194" y="928" type="curve" smooth="yes"/>
      <point x="1056" y="928"/>
      <point x="987" y="870"/>
      <point x="987" y="754" type="curve"/>
      <point x="1035" y="773"/>
      <point x="1092" y="782"/>
    </contour>
    <contour>
      <point x="1431" y="111" type="curve" smooth="yes"/>
      <point x="1458" y="111" type="line" smooth="yes"/>
      <point x="1467" y="111"/>
      <point x="1476" y="112"/>
      <point x="1487" y="113" type="curve"/>
      <point x="1487" y="664" type="line"/>
      <point x="1181" y="664" type="line" smooth="yes"/>
      <point x="1098" y="664"/>
      <point x="1025" y="640"/>
      <point x="973" y="596" type="curve" smooth="yes"/>
      <point x="921" y="552"/>
      <point x="890" y="489"/>
      <point x="890" y="412" type="curve" smooth="yes"/>
      <point x="890" y="284"/>
      <point x="950" y="208"/>
      <point x="1048" y="165" type="curve" smooth="yes"/>
      <point x="1146" y="122"/>
      <point x="1280" y="111"/>
    </contour>
    <contour>
      <point x="749" y="403" type="curve" smooth="yes"/>
      <point x="749" y="520"/>
      <point x="789" y="614"/>
      <point x="869" y="685" type="curve" smooth="yes"/>
      <point x="897" y="709"/>
      <point x="926" y="729"/>
      <point x="961" y="744" type="curve"/>
      <point x="848" y="744" type="line"/>
      <point x="853" y="948"/>
      <point x="966" y="1050"/>
      <point x="1188" y="1050" type="curve" smooth="yes"/>
      <point x="1348" y="1050"/>
      <point x="1448" y="981"/>
      <point x="1491" y="848" type="curve"/>
      <point x="1495" y="904"/>
      <point x="1516" y="954"/>
      <point x="1557" y="990" type="curve" smooth="yes"/>
      <point x="1597" y="1026"/>
      <point x="1658" y="1048"/>
      <point x="1743" y="1048" type="curve" smooth="yes"/>
      <point x="1898" y="1048" type="line"/>
      <point x="1898" y="925" type="line"/>
      <point x="1866" y="934"/>
      <point x="1841" y="938"/>
      <point x="1824" y="938" type="curve" smooth="yes"/>
      <point x="1808" y="938"/>
      <point x="1806" y="929"/>
      <point x="1806" y="922" type="curve" smooth="yes"/>
      <point x="1806" y="920"/>
      <point x="1809" y="914"/>
      <point x="1815" y="905" type="curve"/>
      <point x="1827" y="885"/>
      <point x="1845" y="855"/>
      <point x="1866" y="819" type="curve" smooth="yes"/>
      <point x="1886" y="783"/>
      <point x="1904" y="746"/>
      <point x="1916" y="712" type="curve" smooth="yes"/>
      <point x="1922" y="695"/>
      <point x="1925" y="679"/>
      <point x="1925" y="666" type="curve" smooth="yes"/>
      <point x="1925" y="594"/>
      <point x="1894" y="542"/>
      <point x="1843" y="510" type="curve" smooth="yes"/>
      <point x="1791" y="477"/>
      <point x="1721" y="461"/>
      <point x="1644" y="461" type="curve" smooth="yes"/>
      <point x="1632" y="461" type="line" smooth="yes"/>
      <point x="1627" y="461"/>
      <point x="1622" y="461"/>
      <point x="1617" y="462" type="curve"/>
      <point x="1617" y="127" type="line"/>
      <point x="1641" y="132"/>
      <point x="1699" y="152"/>
      <point x="1759" y="174" type="curve" smooth="yes"/>
      <point x="1818" y="196"/>
      <point x="1877" y="220"/>
      <point x="1904" y="233" type="curve"/>
      <point x="1904" y="94" type="line"/>
      <point x="1792" y="41"/>
      <point x="1693" y="12"/>
      <point x="1617" y="1" type="curve"/>
      <point x="1617" y="-346" type="line"/>
      <point x="1487" y="-346" type="line"/>
      <point x="1487" y="-11" type="line"/>
      <point x="1452" y="-14"/>
      <point x="1418" y="-15"/>
      <point x="1375" y="-15" type="curve" smooth="yes"/>
      <point x="1275" y="-15"/>
      <point x="1167" y="-6"/>
      <point x="1083" y="15" type="curve" smooth="yes"/>
      <point x="956" y="46"/>
      <point x="865" y="106"/>
      <point x="809" y="194" type="curve"/>
      <point x="809" y="193" type="line"/>
      <point x="769" y="254"/>
      <point x="749" y="324"/>
    </contour>
  </outline>
</glyph>
<glyph name="sinI" format="1">
  <advance width="1279"/>
  <unicode hex="0D89"/>
  <note>
    sinI
  </note>
  <outline>
    <contour>
      <point x="766" y="580" type="curve" smooth="yes"/>
      <point x="766" y="640"/>
      <point x="720" y="680"/>
      <point x="620" y="680" type="curve" smooth="yes"/>
      <point x="587" y="680"/>
      <point x="554" y="671"/>
      <point x="530" y="655" type="curve" smooth="yes"/>
      <point x="505" y="638"/>
      <point x="489" y="612"/>
      <point x="489" y="580" type="curve" smooth="yes"/>
      <point x="489" y="514"/>
      <point x="535" y="481"/>
      <point x="626" y="481" type="curve" smooth="yes"/>
      <point x="665" y="481"/>
      <point x="700" y="491"/>
      <point x="725" y="508" type="curve" smooth="yes"/>
      <point x="750" y="525"/>
      <point x="766" y="549"/>
    </contour>
    <contour>
      <point x="350" y="585" type="curve"/>
      <point x="350" y="588" type="line"/>
      <point x="353" y="645"/>
      <point x="378" y="698"/>
      <point x="425" y="736" type="curve" smooth="yes"/>
      <point x="472" y="774"/>
      <point x="538" y="798"/>
      <point x="625" y="798" type="curve" smooth="yes"/>
      <point x="704" y="798"/>
      <point x="776" y="775"/>
      <point x="829" y="729" type="curve" smooth="yes"/>
      <point x="882" y="683"/>
      <point x="915" y="612"/>
      <point x="918" y="519" type="curve" smooth="yes"/>
      <point x="918" y="430"/>
      <point x="888" y="344"/>
      <point x="822" y="280" type="curve" smooth="yes"/>
      <point x="756" y="216"/>
      <point x="653" y="174"/>
      <point x="512" y="174" type="curve" smooth="yes"/>
      <point x="377" y="174"/>
      <point x="263" y="216"/>
      <point x="183" y="289" type="curve" smooth="yes"/>
      <point x="102" y="361"/>
      <point x="55" y="466"/>
      <point x="55" y="590" type="curve" smooth="yes"/>
      <point x="55" y="730"/>
      <point x="114" y="844"/>
      <point x="217" y="924" type="curve" smooth="yes"/>
      <point x="320" y="1004"/>
      <point x="466" y="1048"/>
      <point x="639" y="1048" type="curve" smooth="yes"/>
      <point x="811" y="1048"/>
      <point x="955" y="998"/>
      <point x="1056" y="907" type="curve" smooth="yes"/>
      <point x="1156" y="816"/>
      <point x="1214" y="685"/>
      <point x="1214" y="524" type="curve" smooth="yes"/>
      <point x="1214" y="408"/>
      <point x="1179" y="307"/>
      <point x="1123" y="228" type="curve" smooth="yes"/>
      <point x="1067" y="149"/>
      <point x="989" y="93"/>
      <point x="902" y="66" type="curve"/>
      <point x="937" y="54"/>
      <point x="969" y="36"/>
      <point x="993" y="10" type="curve" smooth="yes"/>
      <point x="1017" y="-16"/>
      <point x="1032" y="-51"/>
      <point x="1032" y="-92" type="curve" smooth="yes"/>
      <point x="1032" y="-157"/>
      <point x="997" y="-215"/>
      <point x="931" y="-256" type="curve" smooth="yes"/>
      <point x="865" y="-297"/>
      <point x="768" y="-322"/>
      <point x="647" y="-322" type="curve" smooth="yes"/>
      <point x="528" y="-322"/>
      <point x="432" y="-290"/>
      <point x="365" y="-233" type="curve" smooth="yes"/>
      <point x="298" y="-177"/>
      <point x="260" y="-95"/>
      <point x="260" y="8" type="curve"/>
      <point x="397" y="8" type="line"/>
      <point x="397" y="-47"/>
      <point x="417" y="-99"/>
      <point x="460" y="-137" type="curve" smooth="yes"/>
      <point x="503" y="-175"/>
      <point x="567" y="-200"/>
      <point x="658" y="-200" type="curve" smooth="yes"/>
      <point x="714" y="-200"/>
      <point x="769" y="-191"/>
      <point x="811" y="-174" type="curve" smooth="yes"/>
      <point x="853" y="-157"/>
      <point x="880" y="-130"/>
      <point x="880" y="-94" type="curve" smooth="yes"/>
      <point x="880" y="-38"/>
      <point x="831" y="-10"/>
      <point x="733" y="-10" type="curve" smooth="yes"/>
      <point x="494" y="-10" type="line"/>
      <point x="494" y="108" type="line"/>
      <point x="670" y="108"/>
      <point x="816" y="146"/>
      <point x="917" y="218" type="curve" smooth="yes"/>
      <point x="1017" y="290"/>
      <point x="1075" y="395"/>
      <point x="1075" y="528" type="curve" smooth="yes"/>
      <point x="1075" y="647"/>
      <point x="1034" y="746"/>
      <point x="958" y="815" type="curve" smooth="yes"/>
      <point x="882" y="884"/>
      <point x="771" y="924"/>
      <point x="631" y="924" type="curve" smooth="yes"/>
      <point x="498" y="924"/>
      <point x="389" y="887"/>
      <point x="313" y="827" type="curve" smooth="yes"/>
      <point x="237" y="767"/>
      <point x="194" y="684"/>
      <point x="194" y="592" type="curve" smooth="yes"/>
      <point x="194" y="505"/>
      <point x="228" y="432"/>
      <point x="287" y="380" type="curve" smooth="yes"/>
      <point x="346" y="328"/>
      <point x="429" y="297"/>
      <point x="526" y="297" type="curve" smooth="yes"/>
      <point x="634" y="297"/>
      <point x="709" y="332"/>
      <point x="750" y="402" type="curve"/>
      <point x="719" y="379"/>
      <point x="678" y="367"/>
      <point x="602" y="367" type="curve" smooth="yes"/>
      <point x="538" y="367"/>
      <point x="475" y="386"/>
      <point x="428" y="422" type="curve" smooth="yes"/>
      <point x="380" y="457"/>
      <point x="349" y="509"/>
      <point x="349" y="574" type="curve" smooth="yes"/>
      <point x="349" y="581" type="line" smooth="yes"/>
      <point x="349" y="582"/>
      <point x="349" y="584"/>
    </contour>
  </outline>
</glyph>
<glyph name="sinIi" format="1">
  <advance width="1271"/>
  <unicode hex="0D8A"/>
  <note>
    sinIi
  </note>
  <outline>
    <contour>
      <point x="981" y="1247" type="curve" smooth="yes"/>
      <point x="938" y="1247"/>
      <point x="905" y="1214"/>
      <point x="905" y="1171" type="curve" smooth="yes"/>
      <point x="905" y="1128"/>
      <point x="940" y="1095"/>
      <point x="983" y="1095" type="curve" smooth="yes"/>
      <point x="1026" y="1095"/>
      <point x="1059" y="1128"/>
      <point x="1059" y="1171" type="curve" smooth="yes"/>
      <point x="1059" y="1214"/>
      <point x="1024" y="1247"/>
    </contour>
    <contour>
      <point x="362" y="1311" type="curve" smooth="yes"/>
      <point x="319" y="1311"/>
      <point x="286" y="1278"/>
      <point x="286" y="1235" type="curve" smooth="yes"/>
      <point x="286" y="1192"/>
      <point x="321" y="1159"/>
      <point x="364" y="1159" type="curve" smooth="yes"/>
      <point x="407" y="1159"/>
      <point x="440" y="1192"/>
      <point x="440" y="1235" type="curve" smooth="yes"/>
      <point x="440" y="1278"/>
      <point x="405" y="1311"/>
    </contour>
    <contour>
      <point x="180" y="1235" type="curve" smooth="yes"/>
      <point x="180" y="1272"/>
      <point x="192" y="1308"/>
      <point x="215" y="1341" type="curve" smooth="yes"/>
      <point x="251" y="1393"/>
      <point x="301" y="1419"/>
      <point x="364" y="1419" type="curve" smooth="yes"/>
      <point x="416" y="1419"/>
      <point x="463" y="1397"/>
      <point x="496" y="1363" type="curve" smooth="yes"/>
      <point x="528" y="1329"/>
      <point x="548" y="1283"/>
      <point x="548" y="1235" type="curve" smooth="yes"/>
      <point x="548" y="1183"/>
      <point x="526" y="1136"/>
      <point x="492" y="1104" type="curve" smooth="yes"/>
      <point x="458" y="1071"/>
      <point x="412" y="1051"/>
      <point x="364" y="1051" type="curve" smooth="yes"/>
      <point x="312" y="1051"/>
      <point x="265" y="1073"/>
      <point x="233" y="1107" type="curve" smooth="yes"/>
      <point x="200" y="1141"/>
      <point x="180" y="1187"/>
    </contour>
    <contour>
      <point x="799" y="1171" type="curve" smooth="yes"/>
      <point x="799" y="1209"/>
      <point x="810" y="1245"/>
      <point x="833" y="1278" type="curve" smooth="yes"/>
      <point x="869" y="1330"/>
      <point x="919" y="1356"/>
      <point x="983" y="1356" type="curve" smooth="yes"/>
      <point x="1035" y="1356"/>
      <point x="1082" y="1334"/>
      <point x="1115" y="1300" type="curve" smooth="yes"/>
      <point x="1147" y="1266"/>
      <point x="1167" y="1219"/>
      <point x="1167" y="1171" type="curve" smooth="yes"/>
      <point x="1167" y="1119"/>
      <point x="1145" y="1072"/>
      <point x="1111" y="1040" type="curve" smooth="yes"/>
      <point x="1077" y="1007"/>
      <point x="1031" y="987"/>
      <point x="983" y="987" type="curve" smooth="yes"/>
      <point x="928" y="987"/>
      <point x="883" y="1009"/>
      <point x="851" y="1043" type="curve" smooth="yes"/>
      <point x="818" y="1077"/>
      <point x="799" y="1122"/>
    </contour>
    <contour>
      <point x="929" y="810" type="curve" smooth="yes"/>
      <point x="852" y="881"/>
      <point x="747" y="925"/>
      <point x="634" y="926" type="curve" smooth="yes"/>
      <point x="518" y="926"/>
      <point x="412" y="880"/>
      <point x="335" y="806" type="curve" smooth="yes"/>
      <point x="258" y="732"/>
      <point x="210" y="629"/>
      <point x="210" y="516" type="curve" smooth="yes"/>
      <point x="210" y="409"/>
      <point x="251" y="310"/>
      <point x="327" y="238" type="curve" smooth="yes"/>
      <point x="403" y="165"/>
      <point x="513" y="119"/>
      <point x="650" y="119" type="curve" smooth="yes"/>
      <point x="761" y="119"/>
      <point x="863" y="163"/>
      <point x="936" y="236" type="curve" smooth="yes"/>
      <point x="1009" y="309"/>
      <point x="1055" y="409"/>
      <point x="1055" y="524" type="curve" smooth="yes"/>
      <point x="1055" y="637"/>
      <point x="1006" y="738"/>
    </contour>
    <contour>
      <point x="1022" y="912" type="curve" smooth="yes"/>
      <point x="1123" y="823"/>
      <point x="1190" y="693"/>
      <point x="1193" y="524" type="curve" smooth="yes"/>
      <point x="1193" y="365"/>
      <point x="1134" y="232"/>
      <point x="1035" y="138" type="curve" smooth="yes"/>
      <point x="935" y="44"/>
      <point x="795" y="-10"/>
      <point x="634" y="-10" type="curve" smooth="yes"/>
      <point x="474" y="-10"/>
      <point x="333" y="44"/>
      <point x="233" y="137" type="curve" smooth="yes"/>
      <point x="132" y="229"/>
      <point x="71" y="361"/>
      <point x="71" y="520" type="curve" smooth="yes"/>
      <point x="71" y="617"/>
      <point x="94" y="703"/>
      <point x="140" y="777" type="curve"/>
      <point x="139" y="773" type="line"/>
      <point x="144" y="783"/>
      <point x="174" y="822"/>
      <point x="229" y="891" type="curve" smooth="yes"/>
      <point x="237" y="901"/>
      <point x="256" y="916"/>
      <point x="287" y="937" type="curve" smooth="yes"/>
      <point x="317" y="957"/>
      <point x="358" y="984"/>
      <point x="410" y="1018" type="curve" smooth="yes"/>
      <point x="494" y="1074"/>
      <point x="570" y="1152"/>
      <point x="630" y="1248" type="curve"/>
      <point x="639" y="1261"/>
      <point x="647" y="1277"/>
      <point x="654" y="1296" type="curve" smooth="yes"/>
      <point x="661" y="1315"/>
      <point x="671" y="1337"/>
      <point x="682" y="1362" type="curve"/>
      <point x="828" y="1362" type="line"/>
      <point x="812" y="1297"/>
      <point x="788" y="1240"/>
      <point x="757" y="1189" type="curve" smooth="yes"/>
      <point x="721" y="1133"/>
      <point x="688" y="1091"/>
      <point x="648" y="1054" type="curve"/>
      <point x="785" y="1047"/>
      <point x="921" y="1000"/>
    </contour>
  </outline>
</glyph>
<glyph name="sinU" format="1">
  <advance width="1419"/>
  <unicode hex="0D8B"/>
  <note>
    sinU
  </note>
  <outline>
    <contour>
      <point x="769" y="928" type="curve" smooth="yes"/>
      <point x="584" y="928"/>
      <point x="478" y="876"/>
      <point x="451" y="772" type="curve"/>
      <point x="312" y="772" type="line"/>
      <point x="347" y="959"/>
      <point x="495" y="1052"/>
      <point x="757" y="1052" type="curve" smooth="yes"/>
      <point x="906" y="1052"/>
      <point x="1017" y="1025"/>
      <point x="1093" y="962" type="curve" smooth="yes"/>
      <point x="1169" y="898"/>
      <point x="1212" y="800"/>
      <point x="1228" y="660" type="curve"/>
      <point x="687" y="660" type="line" smooth="yes"/>
      <point x="514" y="660"/>
      <point x="394" y="613"/>
      <point x="316" y="538" type="curve" smooth="yes"/>
      <point x="238" y="463"/>
      <point x="203" y="361"/>
      <point x="203" y="250" type="curve" smooth="yes"/>
      <point x="203" y="95"/>
      <point x="248" y="-29"/>
      <point x="338" y="-116" type="curve" smooth="yes"/>
      <point x="428" y="-204"/>
      <point x="563" y="-252"/>
      <point x="746" y="-252" type="curve" smooth="yes"/>
      <point x="879" y="-252"/>
      <point x="999" y="-208"/>
      <point x="1086" y="-132" type="curve" smooth="yes"/>
      <point x="1173" y="-56"/>
      <point x="1226" y="51"/>
      <point x="1226" y="176" type="curve" smooth="yes"/>
      <point x="1226" y="192" type="line"/>
      <point x="1369" y="192" type="line"/>
      <point x="1369" y="69"/>
      <point x="1335" y="-35"/>
      <point x="1279" y="-120" type="curve" smooth="yes"/>
      <point x="1222" y="-205"/>
      <point x="1141" y="-271"/>
      <point x="1047" y="-315" type="curve" smooth="yes"/>
      <point x="953" y="-360"/>
      <point x="845" y="-383"/>
      <point x="734" y="-383" type="curve" smooth="yes"/>
      <point x="513" y="-380"/>
      <point x="345" y="-317"/>
      <point x="233" y="-208" type="curve" smooth="yes"/>
      <point x="120" y="-99"/>
      <point x="62" y="55"/>
      <point x="62" y="242" type="curve" smooth="yes"/>
      <point x="62" y="406"/>
      <point x="125" y="543"/>
      <point x="242" y="652" type="curve" smooth="yes"/>
      <point x="335" y="736"/>
      <point x="483" y="782"/>
      <point x="679" y="782" type="curve" smooth="yes"/>
      <point x="1058" y="782" type="line"/>
      <point x="1025" y="879"/>
      <point x="928" y="928"/>
    </contour>
  </outline>
</glyph>
<glyph name="sinUu" format="1">
  <advance width="2175"/>
  <unicode hex="0D8C"/>
  <note>
    sinUu
  </note>
  <outline>
    <contour>
      <point x="769" y="928" type="curve" smooth="yes"/>
      <point x="584" y="928"/>
      <point x="478" y="876"/>
      <point x="451" y="772" type="curve"/>
      <point x="312" y="772" type="line"/>
      <point x="347" y="959"/>
      <point x="495" y="1052"/>
      <point x="757" y="1052" type="curve" smooth="yes"/>
      <point x="906" y="1052"/>
      <point x="1017" y="1025"/>
      <point x="1093" y="962" type="curve" smooth="yes"/>
      <point x="1169" y="898"/>
      <point x="1212" y="800"/>
      <point x="1228" y="660" type="curve"/>
      <point x="687" y="660" type="line" smooth="yes"/>
      <point x="514" y="660"/>
      <point x="394" y="613"/>
      <point x="316" y="538" type="curve" smooth="yes"/>
      <point x="238" y="463"/>
      <point x="203" y="361"/>
      <point x="203" y="250" type="curve" smooth="yes"/>
      <point x="203" y="95"/>
      <point x="248" y="-29"/>
      <point x="338" y="-116" type="curve" smooth="yes"/>
      <point x="428" y="-204"/>
      <point x="563" y="-252"/>
      <point x="746" y="-252" type="curve" smooth="yes"/>
      <point x="879" y="-252"/>
      <point x="999" y="-208"/>
      <point x="1086" y="-132" type="curve" smooth="yes"/>
      <point x="1173" y="-56"/>
      <point x="1226" y="51"/>
      <point x="1226" y="176" type="curve" smooth="yes"/>
      <point x="1226" y="192" type="line"/>
      <point x="1369" y="192" type="line"/>
      <point x="1369" y="69"/>
      <point x="1335" y="-35"/>
      <point x="1279" y="-120" type="curve" smooth="yes"/>
      <point x="1222" y="-205"/>
      <point x="1141" y="-271"/>
      <point x="1047" y="-315" type="curve" smooth="yes"/>
      <point x="953" y="-360"/>
      <point x="845" y="-383"/>
      <point x="734" y="-383" type="curve" smooth="yes"/>
      <point x="513" y="-380"/>
      <point x="345" y="-317"/>
      <point x="233" y="-208" type="curve" smooth="yes"/>
      <point x="120" y="-99"/>
      <point x="62" y="55"/>
      <point x="62" y="242" type="curve" smooth="yes"/>
      <point x="62" y="406"/>
      <point x="125" y="543"/>
      <point x="242" y="652" type="curve" smooth="yes"/>
      <point x="335" y="736"/>
      <point x="483" y="782"/>
      <point x="679" y="782" type="curve" smooth="yes"/>
      <point x="1058" y="782" type="line"/>
      <point x="1025" y="879"/>
      <point x="928" y="928"/>
    </contour>
    <contour>
      <point x="1419" y="731" type="curve" smooth="yes"/>
      <point x="1419" y="847"/>
      <point x="1444" y="951"/>
      <point x="1495" y="1044" type="curve"/>
      <point x="1641" y="1044" type="line"/>
      <point x="1584" y="961"/>
      <point x="1556" y="860"/>
      <point x="1556" y="739" type="curve" smooth="yes"/>
      <point x="1556" y="610"/>
      <point x="1584" y="545"/>
      <point x="1640" y="545" type="curve" smooth="yes"/>
      <point x="1680" y="545"/>
      <point x="1700" y="567"/>
      <point x="1700" y="610" type="curve" smooth="yes"/>
      <point x="1700" y="645"/>
      <point x="1689" y="662"/>
      <point x="1667" y="662" type="curve"/>
      <point x="1647" y="658" type="line"/>
      <point x="1624" y="701"/>
      <point x="1612" y="746"/>
      <point x="1612" y="793" type="curve" smooth="yes"/>
      <point x="1612" y="878"/>
      <point x="1637" y="944"/>
      <point x="1678" y="988" type="curve" smooth="yes"/>
      <point x="1719" y="1032"/>
      <point x="1778" y="1054"/>
      <point x="1847" y="1054" type="curve" smooth="yes"/>
      <point x="1946" y="1054"/>
      <point x="2021" y="1001"/>
      <point x="2071" y="906" type="curve" smooth="yes"/>
      <point x="2121" y="811"/>
      <point x="2146" y="677"/>
      <point x="2146" y="514" type="curve" smooth="yes"/>
      <point x="2146" y="350"/>
      <point x="2107" y="218"/>
      <point x="2041" y="127" type="curve" smooth="yes"/>
      <point x="1975" y="35"/>
      <point x="1882" y="-14"/>
      <point x="1775" y="-14" type="curve" smooth="yes"/>
      <point x="1667" y="-14"/>
      <point x="1584" y="17"/>
      <point x="1528" y="71" type="curve" smooth="yes"/>
      <point x="1472" y="125"/>
      <point x="1444" y="202"/>
      <point x="1444" y="297" type="curve" smooth="yes"/>
      <point x="1444" y="310" type="line" smooth="yes"/>
      <point x="1444" y="314"/>
      <point x="1444" y="318"/>
      <point x="1445" y="323" type="curve"/>
      <point x="1581" y="323" type="line"/>
      <point x="1582" y="187"/>
      <point x="1643" y="119"/>
      <point x="1765" y="119" type="curve" smooth="yes"/>
      <point x="1838" y="119"/>
      <point x="1899" y="164"/>
      <point x="1940" y="237" type="curve" smooth="yes"/>
      <point x="1980" y="309"/>
      <point x="2003" y="409"/>
      <point x="2003" y="520" type="curve" smooth="yes"/>
      <point x="2003" y="623"/>
      <point x="1986" y="726"/>
      <point x="1959" y="803" type="curve" smooth="yes"/>
      <point x="1931" y="879"/>
      <point x="1894" y="930"/>
      <point x="1855" y="930" type="curve" smooth="yes"/>
      <point x="1802" y="930"/>
      <point x="1755" y="878"/>
      <point x="1755" y="786" type="curve" smooth="yes"/>
      <point x="1755" y="774" type="line" smooth="yes"/>
      <point x="1755" y="770"/>
      <point x="1755" y="765"/>
      <point x="1756" y="760" type="curve"/>
      <point x="1813" y="744"/>
      <point x="1841" y="693"/>
      <point x="1841" y="606" type="curve" smooth="yes"/>
      <point x="1841" y="559"/>
      <point x="1823" y="514"/>
      <point x="1789" y="480" type="curve" smooth="yes"/>
      <point x="1755" y="446"/>
      <point x="1704" y="424"/>
      <point x="1640" y="424" type="curve" smooth="yes"/>
      <point x="1500" y="424"/>
      <point x="1419" y="534"/>
    </contour>
  </outline>
</glyph>
<glyph name="sinVocalicR" format="1">
  <advance width="2102"/>
  <unicode hex="0D8D"/>
  <note>
    sinVocalicR
  </note>
  <outline>
    <contour>
      <point x="569" y="883" type="curve" smooth="yes"/>
      <point x="549" y="910"/>
      <point x="519" y="926"/>
      <point x="471" y="926" type="curve" smooth="yes"/>
      <point x="381" y="926"/>
      <point x="336" y="873"/>
      <point x="336" y="766" type="curve"/>
      <point x="197" y="766" type="line"/>
      <point x="197" y="897"/>
      <point x="243" y="985"/>
      <point x="336" y="1031" type="curve"/>
      <point x="335" y="1031" type="line"/>
      <point x="363" y="1046"/>
      <point x="402" y="1052"/>
      <point x="458" y="1052" type="curve" smooth="yes"/>
      <point x="641" y="1052"/>
      <point x="737" y="956"/>
      <point x="737" y="729" type="curve" smooth="yes"/>
      <point x="737" y="664" type="line"/>
      <point x="514" y="664" type="line" smooth="yes"/>
      <point x="335" y="664"/>
      <point x="233" y="569"/>
      <point x="233" y="401" type="curve" smooth="yes"/>
      <point x="233" y="324"/>
      <point x="253" y="254"/>
      <point x="290" y="203" type="curve" smooth="yes"/>
      <point x="326" y="151"/>
      <point x="380" y="119"/>
      <point x="451" y="119" type="curve" smooth="yes"/>
      <point x="527" y="119"/>
      <point x="585" y="147"/>
      <point x="622" y="185" type="curve" smooth="yes"/>
      <point x="659" y="223"/>
      <point x="678" y="269"/>
      <point x="678" y="309" type="curve" smooth="yes"/>
      <point x="678" y="440" type="line"/>
      <point x="809" y="440" type="line"/>
      <point x="809" y="317" type="line" smooth="yes"/>
      <point x="809" y="269"/>
      <point x="829" y="220"/>
      <point x="868" y="181" type="curve" smooth="yes"/>
      <point x="907" y="142"/>
      <point x="963" y="116"/>
      <point x="1038" y="116" type="curve" smooth="yes"/>
      <point x="1099" y="116"/>
      <point x="1153" y="150"/>
      <point x="1192" y="202" type="curve" smooth="yes"/>
      <point x="1231" y="253"/>
      <point x="1254" y="322"/>
      <point x="1254" y="394" type="curve" smooth="yes"/>
      <point x="1254" y="473"/>
      <point x="1229" y="540"/>
      <point x="1179" y="593" type="curve" smooth="yes"/>
      <point x="1148" y="626"/>
      <point x="1120" y="644"/>
      <point x="1087" y="653" type="curve" smooth="yes"/>
      <point x="1054" y="662"/>
      <point x="1018" y="664"/>
      <point x="971" y="664" type="curve" smooth="yes"/>
      <point x="750" y="664" type="line"/>
      <point x="750" y="727" type="line" smooth="yes"/>
      <point x="750" y="767"/>
      <point x="751" y="801"/>
      <point x="754" y="824" type="curve" smooth="yes"/>
      <point x="775" y="969"/>
      <point x="871" y="1052"/>
      <point x="1016" y="1052" type="curve" smooth="yes"/>
      <point x="1192" y="1052"/>
      <point x="1290" y="965"/>
      <point x="1290" y="766" type="curve"/>
      <point x="1151" y="766" type="line"/>
      <point x="1151" y="810"/>
      <point x="1146" y="851"/>
      <point x="1128" y="880" type="curve" smooth="yes"/>
      <point x="1110" y="908"/>
      <point x="1079" y="926"/>
      <point x="1030" y="926" type="curve" smooth="yes"/>
      <point x="979" y="926"/>
      <point x="946" y="912"/>
      <point x="924" y="888" type="curve" smooth="yes"/>
      <point x="902" y="863"/>
      <point x="892" y="826"/>
      <point x="891" y="782" type="curve"/>
      <point x="1008" y="782" type="line" smooth="yes"/>
      <point x="1141" y="782"/>
      <point x="1231" y="743"/>
      <point x="1304" y="655" type="curve"/>
      <point x="1304" y="656" type="line"/>
      <point x="1363" y="589"/>
      <point x="1392" y="499"/>
      <point x="1392" y="385" type="curve" smooth="yes"/>
      <point x="1392" y="232"/>
      <point x="1318" y="97"/>
      <point x="1208" y="34" type="curve" smooth="yes"/>
      <point x="1153" y="2"/>
      <point x="1082" y="-14"/>
      <point x="995" y="-14" type="curve" smooth="yes"/>
      <point x="874" y="-14"/>
      <point x="800" y="29"/>
      <point x="744" y="117" type="curve"/>
      <point x="700" y="29"/>
      <point x="596" y="-15"/>
      <point x="459" y="-15" type="curve" smooth="yes"/>
      <point x="343" y="-15"/>
      <point x="252" y="32"/>
      <point x="190" y="106" type="curve" smooth="yes"/>
      <point x="128" y="180"/>
      <point x="94" y="278"/>
      <point x="94" y="385" type="curve" smooth="yes"/>
      <point x="94" y="493"/>
      <point x="128" y="593"/>
      <point x="189" y="665" type="curve" smooth="yes"/>
      <point x="250" y="737"/>
      <point x="338" y="782"/>
      <point x="446" y="782" type="curve" smooth="yes"/>
      <point x="596" y="782" type="line"/>
      <point x="595" y="821"/>
      <point x="588" y="856"/>
    </contour>
    <contour>
      <point x="1853" y="334" type="curve"/>
      <point x="1854" y="349"/>
      <point x="1855" y="356"/>
      <point x="1855" y="357" type="curve"/>
      <point x="1859" y="386"/>
      <point x="1866" y="432"/>
      <point x="1879" y="500" type="curve"/>
      <point x="1835" y="525"/>
      <point x="1793" y="539"/>
      <point x="1750" y="539" type="curve" smooth="yes"/>
      <point x="1687" y="539"/>
      <point x="1639" y="515"/>
      <point x="1604" y="475" type="curve" smooth="yes"/>
      <point x="1569" y="434"/>
      <point x="1551" y="376"/>
      <point x="1551" y="309" type="curve" smooth="yes"/>
      <point x="1554" y="180"/>
      <point x="1599" y="116"/>
      <point x="1687" y="116" type="curve" smooth="yes"/>
      <point x="1787" y="116"/>
      <point x="1832" y="166"/>
      <point x="1845" y="267" type="curve" smooth="yes"/>
      <point x="1848" y="297"/>
      <point x="1851" y="319"/>
    </contour>
    <contour>
      <point x="1724" y="932" type="curve" smooth="yes"/>
      <point x="1627" y="932"/>
      <point x="1569" y="892"/>
      <point x="1551" y="811" type="curve"/>
      <point x="1416" y="811" type="line"/>
      <point x="1450" y="972"/>
      <point x="1555" y="1052"/>
      <point x="1732" y="1052" type="curve" smooth="yes"/>
      <point x="1821" y="1052"/>
      <point x="1898" y="1013"/>
      <point x="1952" y="949" type="curve" smooth="yes"/>
      <point x="2006" y="885"/>
      <point x="2037" y="796"/>
      <point x="2037" y="696" type="curve" smooth="yes"/>
      <point x="2037" y="620"/>
      <point x="2028" y="543"/>
      <point x="2012" y="459" type="curve" smooth="yes"/>
      <point x="1993" y="367"/>
      <point x="1978" y="276"/>
      <point x="1978" y="196" type="curve" smooth="yes"/>
      <point x="1978" y="131"/>
      <point x="1992" y="65"/>
      <point x="2021" y="0" type="curve"/>
      <point x="1881" y="0" type="line"/>
      <point x="1870" y="21"/>
      <point x="1861" y="41"/>
      <point x="1855" y="62" type="curve"/>
      <point x="1820" y="13"/>
      <point x="1757" y="-12"/>
      <point x="1667" y="-12" type="curve" smooth="yes"/>
      <point x="1588" y="-12"/>
      <point x="1525" y="16"/>
      <point x="1481" y="72" type="curve" smooth="yes"/>
      <point x="1436" y="127"/>
      <point x="1411" y="208"/>
      <point x="1411" y="313" type="curve" smooth="yes"/>
      <point x="1411" y="413"/>
      <point x="1446" y="500"/>
      <point x="1504" y="562" type="curve" smooth="yes"/>
      <point x="1562" y="624"/>
      <point x="1642" y="661"/>
      <point x="1737" y="661" type="curve" smooth="yes"/>
      <point x="1801" y="661"/>
      <point x="1851" y="651"/>
      <point x="1896" y="626" type="curve"/>
      <point x="1899" y="658"/>
      <point x="1900" y="682"/>
      <point x="1900" y="709" type="curve" smooth="yes"/>
      <point x="1900" y="770"/>
      <point x="1882" y="827"/>
      <point x="1851" y="867" type="curve" smooth="yes"/>
      <point x="1819" y="907"/>
      <point x="1775" y="932"/>
    </contour>
  </outline>
</glyph>
<glyph name="sinEe" format="1">
  <advance width="1448"/>
  <unicode hex="0D92"/>
  <note>
    sinEe
  </note>
  <outline>
    <contour>
      <point x="481" y="1184" type="curve"/>
      <point x="480" y="1184" type="line"/>
      <point x="493" y="1178"/>
      <point x="549" y="1173"/>
      <point x="648" y="1169" type="curve"/>
      <point x="653" y="1168"/>
      <point x="659" y="1168"/>
      <point x="664" y="1168" type="curve" smooth="yes"/>
      <point x="679" y="1168" type="line" smooth="yes"/>
      <point x="754" y="1168"/>
      <point x="807" y="1181"/>
      <point x="840" y="1208" type="curve"/>
      <point x="823" y="1217"/>
      <point x="794" y="1230"/>
      <point x="752" y="1240" type="curve" smooth="yes"/>
      <point x="710" y="1250"/>
      <point x="654" y="1257"/>
      <point x="585" y="1257" type="curve" smooth="yes"/>
      <point x="553" y="1257"/>
      <point x="514" y="1256"/>
      <point x="468" y="1254" type="curve"/>
      <point x="457" y="1254"/>
      <point x="446" y="1245"/>
      <point x="446" y="1229" type="curve" smooth="yes"/>
      <point x="446" y="1213"/>
      <point x="456" y="1197"/>
    </contour>
    <contour>
      <point x="577" y="849" type="curve" smooth="yes"/>
      <point x="548" y="873"/>
      <point x="508" y="887"/>
      <point x="471" y="887" type="curve" smooth="yes"/>
      <point x="440" y="887"/>
      <point x="404" y="877"/>
      <point x="375" y="856" type="curve" smooth="yes"/>
      <point x="346" y="835"/>
      <point x="322" y="801"/>
      <point x="317" y="753" type="curve"/>
      <point x="630" y="753" type="line"/>
      <point x="627" y="792"/>
      <point x="606" y="825"/>
    </contour>
    <contour>
      <point x="261" y="938" type="curve" smooth="yes"/>
      <point x="312" y="982"/>
      <point x="385" y="1008"/>
      <point x="474" y="1009" type="curve" smooth="yes"/>
      <point x="487" y="1009" type="line" smooth="yes"/>
      <point x="672" y="1009"/>
      <point x="772" y="890"/>
      <point x="779" y="637" type="curve"/>
      <point x="529" y="637" type="line" smooth="yes"/>
      <point x="480" y="637"/>
      <point x="411" y="620"/>
      <point x="355" y="580" type="curve" smooth="yes"/>
      <point x="299" y="540"/>
      <point x="255" y="478"/>
      <point x="255" y="387" type="curve" smooth="yes"/>
      <point x="255" y="316"/>
      <point x="296" y="248"/>
      <point x="364" y="197" type="curve" smooth="yes"/>
      <point x="432" y="146"/>
      <point x="527" y="112"/>
      <point x="638" y="112" type="curve" smooth="yes"/>
      <point x="734" y="112"/>
      <point x="830" y="130"/>
      <point x="894" y="154" type="curve"/>
      <point x="1003" y="210"/>
      <point x="1087" y="301"/>
      <point x="1127" y="433" type="curve" smooth="yes"/>
      <point x="1146" y="496"/>
      <point x="1156" y="567"/>
      <point x="1156" y="645" type="curve" smooth="yes"/>
      <point x="1156" y="806"/>
      <point x="1109" y="947"/>
      <point x="1033" y="1051" type="curve" smooth="yes"/>
      <point x="1018" y="1072"/>
      <point x="1003" y="1089"/>
      <point x="989" y="1104" type="curve" smooth="yes"/>
      <point x="975" y="1119"/>
      <point x="964" y="1131"/>
      <point x="955" y="1140" type="curve"/>
      <point x="907" y="1103"/>
      <point x="849" y="1076"/>
      <point x="789" y="1061" type="curve" smooth="yes"/>
      <point x="745" y="1050"/>
      <point x="677" y="1045"/>
      <point x="589" y="1045" type="curve" smooth="yes"/>
      <point x="517" y="1045"/>
      <point x="445" y="1060"/>
      <point x="393" y="1087" type="curve" smooth="yes"/>
      <point x="340" y="1114"/>
      <point x="304" y="1154"/>
      <point x="304" y="1203" type="curve" smooth="yes"/>
      <point x="304" y="1204" type="line"/>
      <point x="303" y="1204" type="line"/>
      <point x="302" y="1203"/>
      <point x="302" y="1203"/>
      <point x="301" y="1203" type="curve" smooth="yes"/>
      <point x="280" y="1203"/>
      <point x="248" y="1210"/>
      <point x="206" y="1224" type="curve"/>
      <point x="206" y="1342" type="line"/>
      <point x="233" y="1346"/>
      <point x="290" y="1354"/>
      <point x="358" y="1362" type="curve" smooth="yes"/>
      <point x="425" y="1369"/>
      <point x="503" y="1375"/>
      <point x="568" y="1375" type="curve" smooth="yes"/>
      <point x="701" y="1375"/>
      <point x="816" y="1361"/>
      <point x="896" y="1330" type="curve" smooth="yes"/>
      <point x="952" y="1309"/>
      <point x="1013" y="1262"/>
      <point x="1073" y="1211" type="curve" smooth="yes"/>
      <point x="1141" y="1150"/>
      <point x="1196" y="1064"/>
      <point x="1237" y="960" type="curve" smooth="yes"/>
      <point x="1277" y="856"/>
      <point x="1295" y="759"/>
      <point x="1295" y="658" type="curve" smooth="yes"/>
      <point x="1295" y="465"/>
      <point x="1254" y="319"/>
      <point x="1178" y="215" type="curve" smooth="yes"/>
      <point x="1130" y="151"/>
      <point x="1058" y="93"/>
      <point x="978" y="50" type="curve" smooth="yes"/>
      <point x="939" y="29"/>
      <point x="888" y="13"/>
      <point x="828" y="0" type="curve" smooth="yes"/>
      <point x="790" y="-8"/>
      <point x="731" y="-12"/>
      <point x="650" y="-12" type="curve" smooth="yes"/>
      <point x="510" y="-12"/>
      <point x="376" y="21"/>
      <point x="277" y="90" type="curve" smooth="yes"/>
      <point x="177" y="158"/>
      <point x="114" y="264"/>
      <point x="114" y="412" type="curve" smooth="yes"/>
      <point x="114" y="501"/>
      <point x="155" y="586"/>
      <point x="227" y="637" type="curve"/>
      <point x="65" y="637" type="line"/>
      <point x="65" y="753" type="line"/>
      <point x="179" y="753" type="line"/>
      <point x="180" y="829"/>
      <point x="210" y="893"/>
    </contour>
    <contour>
      <point x="1176" y="1462" type="curve" smooth="yes"/>
      <point x="1143" y="1462"/>
      <point x="1115" y="1440"/>
      <point x="1115" y="1420" type="curve" smooth="yes"/>
      <point x="1115" y="1344" type="line"/>
      <point x="1128" y="1335"/>
      <point x="1144" y="1330"/>
      <point x="1161" y="1330" type="curve" smooth="yes"/>
      <point x="1212" y="1330"/>
      <point x="1240" y="1356"/>
      <point x="1240" y="1394" type="curve" smooth="yes"/>
      <point x="1240" y="1424"/>
      <point x="1231" y="1441"/>
      <point x="1218" y="1451" type="curve" smooth="yes"/>
      <point x="1204" y="1461"/>
      <point x="1188" y="1462"/>
    </contour>
    <contour>
      <point x="1052" y="1111" type="curve"/>
      <point x="1053" y="1110" type="line"/>
      <point x="1034" y="1119"/>
      <point x="1017" y="1128"/>
      <point x="996" y="1133" type="curve"/>
      <point x="996" y="1412" type="line" smooth="yes"/>
      <point x="996" y="1442"/>
      <point x="975" y="1456"/>
      <point x="945" y="1456" type="curve" smooth="yes"/>
      <point x="914" y="1456"/>
      <point x="884" y="1441"/>
      <point x="851" y="1390" type="curve"/>
      <point x="851" y="1517" type="line"/>
      <point x="887" y="1546"/>
      <point x="931" y="1558"/>
      <point x="974" y="1558" type="curve" smooth="yes"/>
      <point x="1009" y="1558"/>
      <point x="1036" y="1545"/>
      <point x="1069" y="1520" type="curve"/>
      <point x="1096" y="1542"/>
      <point x="1137" y="1558"/>
      <point x="1188" y="1558" type="curve" smooth="yes"/>
      <point x="1238" y="1558"/>
      <point x="1282" y="1543"/>
      <point x="1314" y="1516" type="curve" smooth="yes"/>
      <point x="1346" y="1490"/>
      <point x="1365" y="1450"/>
      <point x="1365" y="1399" type="curve" smooth="yes"/>
      <point x="1365" y="1345"/>
      <point x="1343" y="1307"/>
      <point x="1310" y="1281" type="curve" smooth="yes"/>
      <point x="1278" y="1255"/>
      <point x="1233" y="1242"/>
      <point x="1187" y="1242" type="curve" smooth="yes"/>
      <point x="1155" y="1242"/>
      <point x="1131" y="1245"/>
      <point x="1115" y="1253" type="curve"/>
      <point x="1115" y="1056" type="line"/>
      <point x="1097" y="1076"/>
      <point x="1076" y="1094"/>
    </contour>
  </outline>
</glyph>
<glyph name="sinAi" format="1">
  <advance width="2468"/>
  <unicode hex="0D93"/>
  <note>
    sinAi
  </note>
  <outline>
    <contour>
      <point x="481" y="1184" type="curve"/>
      <point x="480" y="1184" type="line"/>
      <point x="493" y="1178"/>
      <point x="549" y="1173"/>
      <point x="648" y="1169" type="curve"/>
      <point x="653" y="1168"/>
      <point x="659" y="1168"/>
      <point x="664" y="1168" type="curve" smooth="yes"/>
      <point x="679" y="1168" type="line" smooth="yes"/>
      <point x="754" y="1168"/>
      <point x="807" y="1181"/>
      <point x="840" y="1208" type="curve"/>
      <point x="823" y="1217"/>
      <point x="794" y="1230"/>
      <point x="752" y="1240" type="curve" smooth="yes"/>
      <point x="710" y="1250"/>
      <point x="654" y="1257"/>
      <point x="585" y="1257" type="curve" smooth="yes"/>
      <point x="553" y="1257"/>
      <point x="514" y="1256"/>
      <point x="468" y="1254" type="curve"/>
      <point x="457" y="1254"/>
      <point x="446" y="1245"/>
      <point x="446" y="1229" type="curve" smooth="yes"/>
      <point x="446" y="1213"/>
      <point x="456" y="1197"/>
    </contour>
    <contour>
      <point x="577" y="849" type="curve" smooth="yes"/>
      <point x="548" y="873"/>
      <point x="508" y="887"/>
      <point x="471" y="887" type="curve" smooth="yes"/>
      <point x="440" y="887"/>
      <point x="404" y="877"/>
      <point x="375" y="856" type="curve" smooth="yes"/>
      <point x="346" y="835"/>
      <point x="322" y="801"/>
      <point x="317" y="753" type="curve"/>
      <point x="630" y="753" type="line"/>
      <point x="627" y="792"/>
      <point x="606" y="825"/>
    </contour>
    <contour>
      <point x="261" y="938" type="curve" smooth="yes"/>
      <point x="312" y="982"/>
      <point x="385" y="1008"/>
      <point x="474" y="1009" type="curve" smooth="yes"/>
      <point x="487" y="1009" type="line" smooth="yes"/>
      <point x="672" y="1009"/>
      <point x="772" y="890"/>
      <point x="779" y="637" type="curve"/>
      <point x="529" y="637" type="line" smooth="yes"/>
      <point x="480" y="637"/>
      <point x="411" y="620"/>
      <point x="355" y="580" type="curve" smooth="yes"/>
      <point x="299" y="540"/>
      <point x="255" y="478"/>
      <point x="255" y="387" type="curve" smooth="yes"/>
      <point x="255" y="316"/>
      <point x="296" y="248"/>
      <point x="364" y="197" type="curve" smooth="yes"/>
      <point x="432" y="146"/>
      <point x="527" y="112"/>
      <point x="638" y="112" type="curve" smooth="yes"/>
      <point x="734" y="112"/>
      <point x="830" y="130"/>
      <point x="894" y="154" type="curve"/>
      <point x="1003" y="210"/>
      <point x="1087" y="301"/>
      <point x="1127" y="433" type="curve" smooth="yes"/>
      <point x="1146" y="496"/>
      <point x="1156" y="567"/>
      <point x="1156" y="645" type="curve" smooth="yes"/>
      <point x="1156" y="806"/>
      <point x="1109" y="947"/>
      <point x="1033" y="1051" type="curve" smooth="yes"/>
      <point x="1018" y="1072"/>
      <point x="1003" y="1089"/>
      <point x="989" y="1104" type="curve" smooth="yes"/>
      <point x="975" y="1119"/>
      <point x="964" y="1131"/>
      <point x="955" y="1140" type="curve"/>
      <point x="907" y="1103"/>
      <point x="849" y="1076"/>
      <point x="789" y="1061" type="curve" smooth="yes"/>
      <point x="745" y="1050"/>
      <point x="677" y="1045"/>
      <point x="589" y="1045" type="curve" smooth="yes"/>
      <point x="517" y="1045"/>
      <point x="445" y="1060"/>
      <point x="393" y="1087" type="curve" smooth="yes"/>
      <point x="340" y="1114"/>
      <point x="304" y="1154"/>
      <point x="304" y="1203" type="curve" smooth="yes"/>
      <point x="304" y="1204" type="line"/>
      <point x="303" y="1204" type="line"/>
      <point x="302" y="1203"/>
      <point x="302" y="1203"/>
      <point x="301" y="1203" type="curve" smooth="yes"/>
      <point x="280" y="1203"/>
      <point x="248" y="1210"/>
      <point x="206" y="1224" type="curve"/>
      <point x="206" y="1342" type="line"/>
      <point x="233" y="1346"/>
      <point x="290" y="1354"/>
      <point x="358" y="1362" type="curve" smooth="yes"/>
      <point x="425" y="1369"/>
      <point x="503" y="1375"/>
      <point x="568" y="1375" type="curve" smooth="yes"/>
      <point x="701" y="1375"/>
      <point x="816" y="1361"/>
      <point x="896" y="1330" type="curve" smooth="yes"/>
      <point x="952" y="1309"/>
      <point x="1013" y="1262"/>
      <point x="1073" y="1211" type="curve" smooth="yes"/>
      <point x="1141" y="1150"/>
      <point x="1196" y="1064"/>
      <point x="1237" y="960" type="curve" smooth="yes"/>
      <point x="1277" y="856"/>
      <point x="1295" y="759"/>
      <point x="1295" y="658" type="curve" smooth="yes"/>
      <point x="1295" y="465"/>
      <point x="1254" y="319"/>
      <point x="1178" y="215" type="curve" smooth="yes"/>
      <point x="1130" y="151"/>
      <point x="1058" y="93"/>
      <point x="978" y="50" type="curve" smooth="yes"/>
      <point x="939" y="29"/>
      <point x="888" y="13"/>
      <point x="828" y="0" type="curve" smooth="yes"/>
      <point x="790" y="-8"/>
      <point x="731" y="-12"/>
      <point x="650" y="-12" type="curve" smooth="yes"/>
      <point x="510" y="-12"/>
      <point x="376" y="21"/>
      <point x="277" y="90" type="curve" smooth="yes"/>
      <point x="177" y="158"/>
      <point x="114" y="264"/>
      <point x="114" y="412" type="curve" smooth="yes"/>
      <point x="114" y="501"/>
      <point x="155" y="586"/>
      <point x="227" y="637" type="curve"/>
      <point x="65" y="637" type="line"/>
      <point x="65" y="753" type="line"/>
      <point x="179" y="753" type="line"/>
      <point x="180" y="829"/>
      <point x="210" y="893"/>
    </contour>
    <contour>
      <point x="2108" y="522" type="curve" smooth="yes"/>
      <point x="2108" y="599"/>
      <point x="2067" y="656"/>
      <point x="1991" y="656" type="curve" smooth="yes"/>
      <point x="1952" y="656"/>
      <point x="1920" y="642"/>
      <point x="1897" y="619" type="curve" smooth="yes"/>
      <point x="1874" y="595"/>
      <point x="1860" y="564"/>
      <point x="1860" y="528" type="curve" smooth="yes"/>
      <point x="1860" y="493"/>
      <point x="1871" y="461"/>
      <point x="1892" y="438" type="curve" smooth="yes"/>
      <point x="1912" y="415"/>
      <point x="1943" y="401"/>
      <point x="1983" y="401" type="curve" smooth="yes"/>
      <point x="2060" y="401"/>
      <point x="2108" y="450"/>
    </contour>
    <contour>
      <point x="2250" y="545" type="curve" smooth="yes"/>
      <point x="2251" y="530"/>
      <point x="2251" y="521"/>
      <point x="2251" y="516" type="curve" smooth="yes"/>
      <point x="2251" y="439"/>
      <point x="2226" y="378"/>
      <point x="2175" y="333" type="curve"/>
      <point x="2175" y="334" type="line"/>
      <point x="2124" y="289"/>
      <point x="2060" y="266"/>
      <point x="1983" y="266" type="curve" smooth="yes"/>
      <point x="1908" y="266"/>
      <point x="1842" y="292"/>
      <point x="1795" y="337" type="curve" smooth="yes"/>
      <point x="1747" y="382"/>
      <point x="1719" y="446"/>
      <point x="1719" y="522" type="curve" smooth="yes"/>
      <point x="1719" y="607"/>
      <point x="1755" y="675"/>
      <point x="1813" y="722" type="curve" smooth="yes"/>
      <point x="1871" y="769"/>
      <point x="1950" y="794"/>
      <point x="2039" y="794" type="curve" smooth="yes"/>
      <point x="2138" y="794"/>
      <point x="2239" y="762"/>
      <point x="2316" y="697" type="curve" smooth="yes"/>
      <point x="2392" y="632"/>
      <point x="2444" y="532"/>
      <point x="2444" y="399" type="curve" smooth="yes"/>
      <point x="2444" y="286"/>
      <point x="2397" y="197"/>
      <point x="2331" y="132" type="curve" smooth="yes"/>
      <point x="2265" y="67"/>
      <point x="2179" y="24"/>
      <point x="2102" y="4" type="curve" smooth="yes"/>
      <point x="2065" y="-7"/>
      <point x="2003" y="-12"/>
      <point x="1919" y="-12" type="curve" smooth="yes"/>
      <point x="1848" y="-12"/>
      <point x="1779" y="5"/>
      <point x="1712" y="38" type="curve"/>
      <point x="1713" y="38" type="line"/>
      <point x="1570" y="107"/>
      <point x="1489" y="232"/>
      <point x="1454" y="344" type="curve" smooth="yes"/>
      <point x="1437" y="401"/>
      <point x="1428" y="461"/>
      <point x="1428" y="524" type="curve" smooth="yes"/>
      <point x="1428" y="669"/>
      <point x="1487" y="801"/>
      <point x="1583" y="897" type="curve" smooth="yes"/>
      <point x="1679" y="993"/>
      <point x="1810" y="1052"/>
      <point x="1957" y="1052" type="curve" smooth="yes"/>
      <point x="2153" y="1052"/>
      <point x="2314" y="989"/>
      <point x="2381" y="793" type="curve"/>
      <point x="2237" y="793" type="line"/>
      <point x="2206" y="850"/>
      <point x="2164" y="884"/>
      <point x="2116" y="904" type="curve" smooth="yes"/>
      <point x="2068" y="923"/>
      <point x="2015" y="928"/>
      <point x="1964" y="928" type="curve" smooth="yes"/>
      <point x="1941" y="928"/>
      <point x="1922" y="927"/>
      <point x="1906" y="924" type="curve"/>
      <point x="1907" y="924" type="line"/>
      <point x="1799" y="905"/>
      <point x="1714" y="849"/>
      <point x="1657" y="774" type="curve" smooth="yes"/>
      <point x="1600" y="699"/>
      <point x="1569" y="608"/>
      <point x="1569" y="521" type="curve" smooth="yes"/>
      <point x="1569" y="370"/>
      <point x="1625" y="270"/>
      <point x="1700" y="207" type="curve" smooth="yes"/>
      <point x="1775" y="144"/>
      <point x="1867" y="119"/>
      <point x="1942" y="119" type="curve" smooth="yes"/>
      <point x="2014" y="119"/>
      <point x="2072" y="129"/>
      <point x="2122" y="153" type="curve" smooth="yes"/>
      <point x="2172" y="176"/>
      <point x="2215" y="213"/>
      <point x="2258" y="265" type="curve" smooth="yes"/>
      <point x="2288" y="302"/>
      <point x="2303" y="347"/>
      <point x="2303" y="401" type="curve" smooth="yes"/>
      <point x="2303" y="450"/>
      <point x="2297" y="488"/>
      <point x="2286" y="519" type="curve" smooth="yes"/>
      <point x="2274" y="550"/>
      <point x="2258" y="574"/>
      <point x="2239" y="598" type="curve"/>
      <point x="2245" y="577"/>
      <point x="2249" y="559"/>
    </contour>
  </outline>
</glyph>
<glyph name="sinOo" format="1">
  <advance width="1457"/>
  <unicode hex="0D95"/>
  <note>
    sinOo
  </note>
  <outline>
    <contour>
      <point x="863" y="877" type="curve" smooth="yes"/>
      <point x="863" y="893"/>
      <point x="856" y="907"/>
      <point x="842" y="918" type="curve" smooth="yes"/>
      <point x="827" y="930"/>
      <point x="810" y="936"/>
      <point x="790" y="936" type="curve"/>
      <point x="747" y="933"/>
      <point x="725" y="914"/>
      <point x="725" y="879" type="curve" smooth="yes"/>
      <point x="725" y="848"/>
      <point x="756" y="823"/>
      <point x="792" y="823" type="curve" smooth="yes"/>
      <point x="839" y="823"/>
      <point x="863" y="841"/>
    </contour>
    <contour>
      <point x="338" y="1264" type="curve"/>
      <point x="344" y="1260"/>
      <point x="350" y="1255"/>
      <point x="355" y="1250" type="curve" smooth="yes"/>
      <point x="361" y="1244"/>
      <point x="364" y="1237"/>
      <point x="364" y="1230" type="curve" smooth="yes"/>
      <point x="364" y="1226"/>
      <point x="364" y="1223"/>
      <point x="363" y="1222" type="curve"/>
      <point x="463" y="1241"/>
      <point x="568" y="1251"/>
      <point x="688" y="1251" type="curve" smooth="yes"/>
      <point x="791" y="1251"/>
      <point x="869" y="1247"/>
      <point x="920" y="1239" type="curve" smooth="yes"/>
      <point x="992" y="1228"/>
      <point x="1056" y="1204"/>
      <point x="1112" y="1172" type="curve"/>
      <point x="1131" y="1183"/>
      <point x="1152" y="1204"/>
      <point x="1152" y="1225" type="curve" smooth="yes"/>
      <point x="1152" y="1265"/>
      <point x="1112" y="1296"/>
      <point x="1037" y="1316" type="curve" smooth="yes"/>
      <point x="962" y="1336"/>
      <point x="853" y="1346"/>
      <point x="713" y="1346" type="curve" smooth="yes"/>
      <point x="608" y="1346"/>
      <point x="511" y="1339"/>
      <point x="442" y="1327" type="curve" smooth="yes"/>
      <point x="407" y="1321"/>
      <point x="380" y="1314"/>
      <point x="360" y="1306" type="curve" smooth="yes"/>
      <point x="339" y="1297"/>
      <point x="329" y="1288"/>
      <point x="329" y="1278" type="curve" smooth="yes"/>
      <point x="329" y="1272"/>
      <point x="332" y="1267"/>
    </contour>
    <contour>
      <point x="1161" y="255" type="curve" smooth="yes"/>
      <point x="1205" y="344"/>
      <point x="1227" y="473"/>
      <point x="1227" y="629" type="curve" smooth="yes"/>
      <point x="1227" y="960"/>
      <point x="1079" y="1127"/>
      <point x="663" y="1127" type="curve" smooth="yes"/>
      <point x="470" y="1127"/>
      <point x="298" y="1090"/>
      <point x="146" y="1016" type="curve"/>
      <point x="146" y="1153" type="line"/>
      <point x="205" y="1165"/>
      <point x="234" y="1181"/>
      <point x="234" y="1200" type="curve" smooth="yes"/>
      <point x="234" y="1204"/>
      <point x="231" y="1208"/>
      <point x="224" y="1213" type="curve"/>
      <point x="225" y="1212" type="line"/>
      <point x="193" y="1231"/>
      <point x="177" y="1259"/>
      <point x="177" y="1296" type="curve" smooth="yes"/>
      <point x="177" y="1352"/>
      <point x="228" y="1396"/>
      <point x="320" y="1426" type="curve" smooth="yes"/>
      <point x="411" y="1456"/>
      <point x="543" y="1472"/>
      <point x="703" y="1472" type="curve" smooth="yes"/>
      <point x="892" y="1472"/>
      <point x="1041" y="1450"/>
      <point x="1142" y="1408" type="curve" smooth="yes"/>
      <point x="1242" y="1366"/>
      <point x="1296" y="1302"/>
      <point x="1296" y="1221" type="curve" smooth="yes"/>
      <point x="1296" y="1152"/>
      <point x="1271" y="1104"/>
      <point x="1220" y="1076" type="curve"/>
      <point x="1315" y="969"/>
      <point x="1365" y="828"/>
      <point x="1368" y="653" type="curve" smooth="yes"/>
      <point x="1368" y="620" type="line" smooth="yes"/>
      <point x="1368" y="470"/>
      <point x="1349" y="343"/>
      <point x="1310" y="239" type="curve" smooth="yes"/>
      <point x="1282" y="160"/>
      <point x="1236" y="98"/>
      <point x="1180" y="54" type="curve" smooth="yes"/>
      <point x="1123" y="10"/>
      <point x="1056" y="-14"/>
      <point x="985" y="-14" type="curve" smooth="yes"/>
      <point x="848" y="-14"/>
      <point x="760" y="34"/>
      <point x="719" y="130" type="curve"/>
      <point x="684" y="37"/>
      <point x="611" y="-10"/>
      <point x="500" y="-10" type="curve" smooth="yes"/>
      <point x="365" y="-10"/>
      <point x="262" y="52"/>
      <point x="192" y="153" type="curve" smooth="yes"/>
      <point x="122" y="253"/>
      <point x="86" y="393"/>
      <point x="86" y="549" type="curve" smooth="yes"/>
      <point x="86" y="694"/>
      <point x="119" y="822"/>
      <point x="176" y="911" type="curve" smooth="yes"/>
      <point x="232" y="1000"/>
      <point x="314" y="1054"/>
      <point x="410" y="1054" type="curve" smooth="yes"/>
      <point x="423" y="1054" type="line"/>
      <point x="422" y="1054" type="line"/>
      <point x="526" y="1050"/>
      <point x="578" y="1000"/>
      <point x="578" y="903" type="curve" smooth="yes"/>
      <point x="578" y="896"/>
      <point x="577" y="886"/>
      <point x="575" y="875" type="curve" smooth="yes"/>
      <point x="571" y="851"/>
      <point x="566" y="822"/>
      <point x="562" y="794" type="curve" smooth="yes"/>
      <point x="560" y="779"/>
      <point x="559" y="766"/>
      <point x="559" y="755" type="curve"/>
      <point x="568" y="675"/>
      <point x="625" y="631"/>
      <point x="729" y="631" type="curve" smooth="yes"/>
      <point x="801" y="631"/>
      <point x="859" y="665"/>
      <point x="878" y="729" type="curve"/>
      <point x="850" y="713"/>
      <point x="816" y="705"/>
      <point x="776" y="705" type="curve" smooth="yes"/>
      <point x="720" y="705"/>
      <point x="674" y="723"/>
      <point x="642" y="752" type="curve" smooth="yes"/>
      <point x="610" y="781"/>
      <point x="592" y="822"/>
      <point x="592" y="870" type="curve" smooth="yes"/>
      <point x="592" y="991"/>
      <point x="661" y="1052"/>
      <point x="799" y="1052" type="curve" smooth="yes"/>
      <point x="860" y="1052"/>
      <point x="915" y="1025"/>
      <point x="954" y="978" type="curve" smooth="yes"/>
      <point x="993" y="930"/>
      <point x="1016" y="863"/>
      <point x="1016" y="784" type="curve" smooth="yes"/>
      <point x="1016" y="693"/>
      <point x="985" y="624"/>
      <point x="933" y="578" type="curve" smooth="yes"/>
      <point x="880" y="532"/>
      <point x="804" y="508"/>
      <point x="713" y="508" type="curve" smooth="yes"/>
      <point x="626" y="508"/>
      <point x="557" y="532"/>
      <point x="506" y="576" type="curve" smooth="yes"/>
      <point x="455" y="619"/>
      <point x="425" y="682"/>
      <point x="418" y="761" type="curve"/>
      <point x="418" y="781"/>
      <point x="424" y="809"/>
      <point x="429" y="834" type="curve"/>
      <point x="431" y="847"/>
      <point x="433" y="859"/>
      <point x="436" y="870" type="curve"/>
      <point x="438" y="881"/>
      <point x="439" y="889"/>
      <point x="439" y="894" type="curve" smooth="yes"/>
      <point x="439" y="917"/>
      <point x="428" y="928"/>
      <point x="405" y="928" type="curve" smooth="yes"/>
      <point x="346" y="928"/>
      <point x="303" y="881"/>
      <point x="273" y="807" type="curve" smooth="yes"/>
      <point x="243" y="733"/>
      <point x="227" y="631"/>
      <point x="227" y="526" type="curve" smooth="yes"/>
      <point x="227" y="422"/>
      <point x="257" y="320"/>
      <point x="306" y="245" type="curve" smooth="yes"/>
      <point x="354" y="169"/>
      <point x="422" y="119"/>
      <point x="498" y="119" type="curve" smooth="yes"/>
      <point x="541" y="119"/>
      <point x="577" y="140"/>
      <point x="605" y="182" type="curve"/>
      <point x="605" y="181" type="line"/>
      <point x="631" y="220"/>
      <point x="644" y="266"/>
      <point x="644" y="319" type="curve" smooth="yes"/>
      <point x="644" y="428" type="line"/>
      <point x="776" y="428" type="line"/>
      <point x="776" y="324" type="line" smooth="yes"/>
      <point x="776" y="268"/>
      <point x="798" y="217"/>
      <point x="833" y="179" type="curve" smooth="yes"/>
      <point x="868" y="141"/>
      <point x="916" y="116"/>
      <point x="967" y="116" type="curve" smooth="yes"/>
      <point x="1052" y="116"/>
      <point x="1117" y="166"/>
    </contour>
  </outline>
</glyph>
<glyph name="sinAu" format="1">
  <advance width="2199"/>
  <unicode hex="0D96"/>
  <note>
    sinAu
  </note>
  <outline>
    <contour>
      <point x="856" y="877" type="curve" smooth="yes"/>
      <point x="856" y="893"/>
      <point x="849" y="907"/>
      <point x="835" y="918" type="curve" smooth="yes"/>
      <point x="820" y="930"/>
      <point x="803" y="936"/>
      <point x="783" y="936" type="curve"/>
      <point x="740" y="933"/>
      <point x="718" y="914"/>
      <point x="718" y="879" type="curve" smooth="yes"/>
      <point x="718" y="848"/>
      <point x="749" y="823"/>
      <point x="785" y="823" type="curve" smooth="yes"/>
      <point x="832" y="823"/>
      <point x="856" y="841"/>
    </contour>
    <contour>
      <point x="552" y="755" type="curve"/>
      <point x="561" y="675"/>
      <point x="618" y="631"/>
      <point x="722" y="631" type="curve" smooth="yes"/>
      <point x="794" y="631"/>
      <point x="852" y="665"/>
      <point x="871" y="729" type="curve"/>
      <point x="842" y="713"/>
      <point x="808" y="705"/>
      <point x="769" y="705" type="curve" smooth="yes"/>
      <point x="713" y="705"/>
      <point x="667" y="723"/>
      <point x="635" y="752" type="curve" smooth="yes"/>
      <point x="603" y="781"/>
      <point x="585" y="822"/>
      <point x="585" y="870" type="curve" smooth="yes"/>
      <point x="585" y="991"/>
      <point x="654" y="1052"/>
      <point x="792" y="1052" type="curve" smooth="yes"/>
      <point x="853" y="1052"/>
      <point x="908" y="1025"/>
      <point x="947" y="978" type="curve" smooth="yes"/>
      <point x="986" y="930"/>
      <point x="1009" y="863"/>
      <point x="1009" y="784" type="curve" smooth="yes"/>
      <point x="1009" y="693"/>
      <point x="978" y="624"/>
      <point x="926" y="578" type="curve" smooth="yes"/>
      <point x="873" y="532"/>
      <point x="797" y="508"/>
      <point x="706" y="508" type="curve" smooth="yes"/>
      <point x="619" y="508"/>
      <point x="550" y="532"/>
      <point x="499" y="576" type="curve" smooth="yes"/>
      <point x="448" y="619"/>
      <point x="418" y="682"/>
      <point x="411" y="761" type="curve"/>
      <point x="411" y="781"/>
      <point x="417" y="809"/>
      <point x="422" y="834" type="curve"/>
      <point x="424" y="847"/>
      <point x="426" y="859"/>
      <point x="429" y="870" type="curve"/>
      <point x="431" y="881"/>
      <point x="432" y="889"/>
      <point x="432" y="894" type="curve" smooth="yes"/>
      <point x="432" y="917"/>
      <point x="421" y="928"/>
      <point x="398" y="928" type="curve" smooth="yes"/>
      <point x="339" y="928"/>
      <point x="296" y="881"/>
      <point x="266" y="807" type="curve" smooth="yes"/>
      <point x="236" y="733"/>
      <point x="220" y="631"/>
      <point x="220" y="526" type="curve" smooth="yes"/>
      <point x="220" y="422"/>
      <point x="250" y="320"/>
      <point x="299" y="245" type="curve" smooth="yes"/>
      <point x="347" y="169"/>
      <point x="415" y="119"/>
      <point x="491" y="119" type="curve" smooth="yes"/>
      <point x="534" y="119"/>
      <point x="570" y="140"/>
      <point x="598" y="182" type="curve"/>
      <point x="598" y="181" type="line"/>
      <point x="624" y="220"/>
      <point x="637" y="266"/>
      <point x="637" y="319" type="curve" smooth="yes"/>
      <point x="637" y="428" type="line"/>
      <point x="769" y="428" type="line"/>
      <point x="769" y="324" type="line" smooth="yes"/>
      <point x="769" y="268"/>
      <point x="791" y="217"/>
      <point x="826" y="179" type="curve" smooth="yes"/>
      <point x="861" y="141"/>
      <point x="909" y="116"/>
      <point x="960" y="116" type="curve" smooth="yes"/>
      <point x="1044" y="116"/>
      <point x="1109" y="164"/>
      <point x="1153" y="251" type="curve" smooth="yes"/>
      <point x="1197" y="338"/>
      <point x="1220" y="462"/>
      <point x="1220" y="614" type="curve" smooth="yes"/>
      <point x="1220" y="970"/>
      <point x="1053" y="1276"/>
      <point x="716" y="1276" type="curve" smooth="yes"/>
      <point x="508" y="1276"/>
      <point x="363" y="1209"/>
      <point x="280" y="1075" type="curve"/>
      <point x="126" y="1075" type="line"/>
      <point x="238" y="1291"/>
      <point x="437" y="1399"/>
      <point x="722" y="1399" type="curve" smooth="yes"/>
      <point x="822" y="1399"/>
      <point x="918" y="1377"/>
      <point x="1003" y="1336" type="curve" smooth="yes"/>
      <point x="1044" y="1316"/>
      <point x="1086" y="1287"/>
      <point x="1123" y="1254" type="curve" smooth="yes"/>
      <point x="1159" y="1221"/>
      <point x="1192" y="1184"/>
      <point x="1216" y="1148" type="curve"/>
      <point x="1308" y="995"/>
      <point x="1361" y="817"/>
      <point x="1361" y="625" type="curve" smooth="yes"/>
      <point x="1361" y="473"/>
      <point x="1342" y="344"/>
      <point x="1303" y="239" type="curve" smooth="yes"/>
      <point x="1275" y="160"/>
      <point x="1229" y="98"/>
      <point x="1173" y="54" type="curve" smooth="yes"/>
      <point x="1116" y="10"/>
      <point x="1049" y="-14"/>
      <point x="978" y="-14" type="curve" smooth="yes"/>
      <point x="841" y="-14"/>
      <point x="753" y="34"/>
      <point x="712" y="130" type="curve"/>
      <point x="677" y="37"/>
      <point x="604" y="-10"/>
      <point x="493" y="-10" type="curve" smooth="yes"/>
      <point x="358" y="-10"/>
      <point x="255" y="52"/>
      <point x="185" y="153" type="curve" smooth="yes"/>
      <point x="115" y="253"/>
      <point x="79" y="393"/>
      <point x="79" y="549" type="curve" smooth="yes"/>
      <point x="79" y="694"/>
      <point x="112" y="822"/>
      <point x="169" y="911" type="curve" smooth="yes"/>
      <point x="225" y="1000"/>
      <point x="307" y="1054"/>
      <point x="403" y="1054" type="curve" smooth="yes"/>
      <point x="416" y="1054" type="line"/>
      <point x="415" y="1054" type="line"/>
      <point x="519" y="1050"/>
      <point x="571" y="1000"/>
      <point x="571" y="903" type="curve" smooth="yes"/>
      <point x="571" y="896"/>
      <point x="570" y="886"/>
      <point x="568" y="875" type="curve" smooth="yes"/>
      <point x="564" y="851"/>
      <point x="559" y="822"/>
      <point x="555" y="794" type="curve" smooth="yes"/>
      <point x="553" y="779"/>
      <point x="552" y="766"/>
    </contour>
    <contour>
      <point x="1443" y="731" type="curve" smooth="yes"/>
      <point x="1443" y="847"/>
      <point x="1468" y="951"/>
      <point x="1519" y="1044" type="curve"/>
      <point x="1665" y="1044" type="line"/>
      <point x="1608" y="961"/>
      <point x="1580" y="860"/>
      <point x="1580" y="739" type="curve" smooth="yes"/>
      <point x="1580" y="610"/>
      <point x="1608" y="545"/>
      <point x="1664" y="545" type="curve" smooth="yes"/>
      <point x="1704" y="545"/>
      <point x="1724" y="567"/>
      <point x="1724" y="610" type="curve" smooth="yes"/>
      <point x="1724" y="645"/>
      <point x="1713" y="662"/>
      <point x="1691" y="662" type="curve"/>
      <point x="1671" y="658" type="line"/>
      <point x="1648" y="701"/>
      <point x="1636" y="746"/>
      <point x="1636" y="793" type="curve" smooth="yes"/>
      <point x="1636" y="878"/>
      <point x="1661" y="944"/>
      <point x="1702" y="988" type="curve" smooth="yes"/>
      <point x="1743" y="1032"/>
      <point x="1802" y="1054"/>
      <point x="1871" y="1054" type="curve" smooth="yes"/>
      <point x="1970" y="1054"/>
      <point x="2045" y="1001"/>
      <point x="2095" y="906" type="curve" smooth="yes"/>
      <point x="2145" y="811"/>
      <point x="2170" y="677"/>
      <point x="2170" y="514" type="curve" smooth="yes"/>
      <point x="2170" y="350"/>
      <point x="2131" y="218"/>
      <point x="2065" y="127" type="curve" smooth="yes"/>
      <point x="1999" y="35"/>
      <point x="1906" y="-14"/>
      <point x="1799" y="-14" type="curve" smooth="yes"/>
      <point x="1691" y="-14"/>
      <point x="1608" y="17"/>
      <point x="1552" y="71" type="curve" smooth="yes"/>
      <point x="1496" y="125"/>
      <point x="1468" y="202"/>
      <point x="1468" y="297" type="curve" smooth="yes"/>
      <point x="1468" y="310" type="line" smooth="yes"/>
      <point x="1468" y="314"/>
      <point x="1468" y="318"/>
      <point x="1469" y="323" type="curve"/>
      <point x="1605" y="323" type="line"/>
      <point x="1606" y="187"/>
      <point x="1667" y="119"/>
      <point x="1789" y="119" type="curve" smooth="yes"/>
      <point x="1862" y="119"/>
      <point x="1923" y="164"/>
      <point x="1964" y="237" type="curve" smooth="yes"/>
      <point x="2004" y="309"/>
      <point x="2027" y="409"/>
      <point x="2027" y="520" type="curve" smooth="yes"/>
      <point x="2027" y="623"/>
      <point x="2010" y="726"/>
      <point x="1983" y="803" type="curve" smooth="yes"/>
      <point x="1955" y="879"/>
      <point x="1918" y="930"/>
      <point x="1879" y="930" type="curve" smooth="yes"/>
      <point x="1826" y="930"/>
      <point x="1779" y="878"/>
      <point x="1779" y="786" type="curve" smooth="yes"/>
      <point x="1779" y="774" type="line" smooth="yes"/>
      <point x="1779" y="770"/>
      <point x="1779" y="765"/>
      <point x="1780" y="760" type="curve"/>
      <point x="1837" y="744"/>
      <point x="1865" y="693"/>
      <point x="1865" y="606" type="curve" smooth="yes"/>
      <point x="1865" y="559"/>
      <point x="1847" y="514"/>
      <point x="1813" y="480" type="curve" smooth="yes"/>
      <point x="1779" y="446"/>
      <point x="1728" y="424"/>
      <point x="1664" y="424" type="curve" smooth="yes"/>
      <point x="1524" y="424"/>
      <point x="1443" y="534"/>
    </contour>
  </outline>
</glyph>
<glyph name="sinKha" format="1">
  <advance width="1467"/>
  <unicode hex="0D9B"/>
  <note>
    sinKha
  </note>
  <outline>
    <contour>
      <point x="382" y="285" type="curve" smooth="yes"/>
      <point x="335" y="285"/>
      <point x="300" y="250"/>
      <point x="300" y="203" type="curve" smooth="yes"/>
      <point x="300" y="156"/>
      <point x="335" y="121"/>
      <point x="382" y="121" type="curve" smooth="yes"/>
      <point x="429" y="121"/>
      <point x="467" y="157"/>
      <point x="467" y="201" type="curve" smooth="yes"/>
      <point x="467" y="248"/>
      <point x="430" y="285"/>
    </contour>
    <contour>
      <point x="1102" y="1083" type="curve" smooth="yes"/>
      <point x="1009" y="1197"/>
      <point x="875" y="1266"/>
      <point x="712" y="1266" type="curve" smooth="yes"/>
      <point x="497" y="1266"/>
      <point x="350" y="1189"/>
      <point x="270" y="1034" type="curve"/>
      <point x="125" y="1034" type="line"/>
      <point x="218" y="1290"/>
      <point x="449" y="1392"/>
      <point x="728" y="1392" type="curve" smooth="yes"/>
      <point x="928" y="1392"/>
      <point x="1092" y="1312"/>
      <point x="1208" y="1174" type="curve" smooth="yes"/>
      <point x="1323" y="1036"/>
      <point x="1388" y="839"/>
      <point x="1388" y="610" type="curve" smooth="yes"/>
      <point x="1388" y="431"/>
      <point x="1352" y="277"/>
      <point x="1289" y="167" type="curve" smooth="yes"/>
      <point x="1226" y="57"/>
      <point x="1135" y="-10"/>
      <point x="1027" y="-10" type="curve" smooth="yes"/>
      <point x="972" y="-10"/>
      <point x="928" y="1"/>
      <point x="893" y="23" type="curve"/>
      <point x="893" y="22" type="line"/>
      <point x="889" y="25"/>
      <point x="882" y="31"/>
      <point x="873" y="40" type="curve"/>
      <point x="853" y="58"/>
      <point x="830" y="79"/>
      <point x="807" y="95" type="curve" smooth="yes"/>
      <point x="796" y="103"/>
      <point x="786" y="107"/>
      <point x="778" y="107" type="curve" smooth="yes"/>
      <point x="735" y="107"/>
      <point x="714" y="54"/>
      <point x="714" y="-51" type="curve"/>
      <point x="579" y="-51" type="line"/>
      <point x="582" y="118"/>
      <point x="621" y="268"/>
      <point x="697" y="398" type="curve"/>
      <point x="732" y="450"/>
      <point x="767" y="504"/>
      <point x="802" y="557" type="curve"/>
      <point x="801" y="556" type="line"/>
      <point x="832" y="611"/>
      <point x="847" y="671"/>
      <point x="847" y="737" type="curve" smooth="yes"/>
      <point x="847" y="858"/>
      <point x="766" y="918"/>
      <point x="604" y="918" type="curve" smooth="yes"/>
      <point x="487" y="918"/>
      <point x="391" y="873"/>
      <point x="324" y="797" type="curve" smooth="yes"/>
      <point x="257" y="720"/>
      <point x="220" y="611"/>
      <point x="220" y="483" type="curve" smooth="yes"/>
      <point x="220" y="431"/>
      <point x="225" y="388"/>
      <point x="236" y="354" type="curve"/>
      <point x="275" y="398"/>
      <point x="328" y="420"/>
      <point x="397" y="420" type="curve" smooth="yes"/>
      <point x="452" y="420"/>
      <point x="505" y="397"/>
      <point x="545" y="360" type="curve" smooth="yes"/>
      <point x="584" y="323"/>
      <point x="609" y="270"/>
      <point x="609" y="213" type="curve" smooth="yes"/>
      <point x="609" y="150"/>
      <point x="586" y="95"/>
      <point x="547" y="55" type="curve" smooth="yes"/>
      <point x="508" y="15"/>
      <point x="454" y="-10"/>
      <point x="393" y="-10" type="curve" smooth="yes"/>
      <point x="296" y="-10"/>
      <point x="217" y="47"/>
      <point x="162" y="140" type="curve" smooth="yes"/>
      <point x="107" y="232"/>
      <point x="77" y="359"/>
      <point x="77" y="502" type="curve" smooth="yes"/>
      <point x="77" y="658"/>
      <point x="134" y="795"/>
      <point x="230" y="892" type="curve" smooth="yes"/>
      <point x="325" y="989"/>
      <point x="460" y="1048"/>
      <point x="616" y="1048" type="curve" smooth="yes"/>
      <point x="733" y="1048"/>
      <point x="828" y="1016"/>
      <point x="893" y="959" type="curve" smooth="yes"/>
      <point x="958" y="902"/>
      <point x="994" y="818"/>
      <point x="994" y="717" type="curve" smooth="yes"/>
      <point x="994" y="629"/>
      <point x="962" y="540"/>
      <point x="898" y="449" type="curve" smooth="yes"/>
      <point x="834" y="357"/>
      <point x="795" y="289"/>
      <point x="779" y="245" type="curve"/>
      <point x="782" y="246"/>
      <point x="785" y="246"/>
      <point x="788" y="246" type="curve" smooth="yes"/>
      <point x="796" y="246" type="line" smooth="yes"/>
      <point x="839" y="246"/>
      <point x="881" y="225"/>
      <point x="922" y="183" type="curve" smooth="yes"/>
      <point x="959" y="146"/>
      <point x="993" y="127"/>
      <point x="1023" y="127" type="curve" smooth="yes"/>
      <point x="1088" y="127"/>
      <point x="1145" y="188"/>
      <point x="1185" y="281" type="curve" smooth="yes"/>
      <point x="1224" y="374"/>
      <point x="1247" y="500"/>
      <point x="1247" y="629" type="curve" smooth="yes"/>
      <point x="1247" y="809"/>
      <point x="1194" y="969"/>
    </contour>
  </outline>
</glyph>
<glyph name="sinGa" format="1">
  <advance width="1519"/>
  <unicode hex="0D9C"/>
  <note>
    sinGa
  </note>
  <outline>
    <contour>
      <point x="915" y="597" type="curve" smooth="yes"/>
      <point x="956" y="541"/>
      <point x="981" y="464"/>
      <point x="981" y="377" type="curve" smooth="yes"/>
      <point x="981" y="274"/>
      <point x="946" y="185"/>
      <point x="875" y="110" type="curve"/>
      <point x="1011" y="110"/>
      <point x="1118" y="145"/>
      <point x="1191" y="214" type="curve" smooth="yes"/>
      <point x="1263" y="282"/>
      <point x="1303" y="384"/>
      <point x="1303" y="516" type="curve" smooth="yes"/>
      <point x="1303" y="627"/>
      <point x="1265" y="730"/>
      <point x="1204" y="804" type="curve" smooth="yes"/>
      <point x="1143" y="878"/>
      <point x="1057" y="924"/>
      <point x="961" y="924" type="curve" smooth="yes"/>
      <point x="870" y="924"/>
      <point x="796" y="893"/>
      <point x="741" y="845" type="curve" smooth="yes"/>
      <point x="686" y="796"/>
      <point x="650" y="729"/>
      <point x="635" y="660" type="curve"/>
      <point x="668" y="676"/>
      <point x="707" y="686"/>
      <point x="748" y="686" type="curve" smooth="yes"/>
      <point x="816" y="686"/>
      <point x="874" y="652"/>
    </contour>
    <contour>
      <point x="563" y="1051" type="curve" smooth="yes"/>
      <point x="585" y="1051" type="line"/>
      <point x="594" y="1050"/>
      <point x="601" y="1050"/>
      <point x="606" y="1050" type="curve"/>
      <point x="606" y="928" type="line"/>
      <point x="522" y="928"/>
      <point x="458" y="921"/>
      <point x="414" y="904" type="curve" smooth="yes"/>
      <point x="383" y="892"/>
      <point x="345" y="861"/>
      <point x="306" y="824" type="curve" smooth="yes"/>
      <point x="230" y="751"/>
      <point x="192" y="643"/>
      <point x="192" y="500" type="curve" smooth="yes"/>
      <point x="192" y="383"/>
      <point x="229" y="287"/>
      <point x="290" y="220" type="curve" smooth="yes"/>
      <point x="351" y="153"/>
      <point x="436" y="116"/>
      <point x="535" y="116" type="curve" smooth="yes"/>
      <point x="754" y="116"/>
      <point x="840" y="238"/>
      <point x="840" y="387" type="curve" smooth="yes"/>
      <point x="840" y="431"/>
      <point x="829" y="473"/>
      <point x="807" y="504" type="curve" smooth="yes"/>
      <point x="785" y="535"/>
      <point x="752" y="555"/>
      <point x="711" y="555" type="curve" smooth="yes"/>
      <point x="654" y="555"/>
      <point x="626" y="526"/>
      <point x="626" y="467" type="curve" smooth="yes"/>
      <point x="626" y="464"/>
      <point x="627" y="459"/>
      <point x="628" y="452" type="curve" smooth="yes"/>
      <point x="629" y="445"/>
      <point x="630" y="437"/>
      <point x="631" y="428" type="curve"/>
      <point x="497" y="428" type="line"/>
      <point x="492" y="464"/>
      <point x="490" y="500"/>
      <point x="490" y="539" type="curve" smooth="yes"/>
      <point x="490" y="708"/>
      <point x="543" y="837"/>
      <point x="629" y="922" type="curve" smooth="yes"/>
      <point x="715" y="1007"/>
      <point x="835" y="1050"/>
      <point x="971" y="1050" type="curve" smooth="yes"/>
      <point x="1104" y="1050"/>
      <point x="1222" y="988"/>
      <point x="1307" y="892" type="curve" smooth="yes"/>
      <point x="1392" y="795"/>
      <point x="1444" y="663"/>
      <point x="1444" y="522" type="curve" smooth="yes"/>
      <point x="1444" y="357"/>
      <point x="1391" y="223"/>
      <point x="1295" y="131" type="curve" smooth="yes"/>
      <point x="1198" y="39"/>
      <point x="1055" y="-12"/>
      <point x="875" y="-12" type="curve"/>
      <point x="875" y="109" type="line"/>
      <point x="861" y="95" type="line" smooth="yes"/>
      <point x="793" y="27"/>
      <point x="681" y="-10"/>
      <point x="521" y="-10" type="curve" smooth="yes"/>
      <point x="386" y="-10"/>
      <point x="270" y="42"/>
      <point x="187" y="134" type="curve" smooth="yes"/>
      <point x="103" y="226"/>
      <point x="54" y="357"/>
      <point x="54" y="514" type="curve" smooth="yes"/>
      <point x="54" y="654"/>
      <point x="97" y="788"/>
      <point x="182" y="888" type="curve" smooth="yes"/>
      <point x="267" y="987"/>
      <point x="395" y="1051"/>
    </contour>
  </outline>
</glyph>
<glyph name="sinGha" format="1">
  <advance width="1509"/>
  <unicode hex="0D9D"/>
  <note>
    sinGha
  </note>
  <outline>
    <contour>
      <point x="230" y="664" type="curve"/>
      <point x="76" y="664" type="line"/>
      <point x="76" y="782" type="line"/>
      <point x="227" y="782" type="line"/>
      <point x="231" y="904"/>
      <point x="277" y="987"/>
      <point x="366" y="1031" type="curve"/>
      <point x="365" y="1031" type="line"/>
      <point x="393" y="1046"/>
      <point x="433" y="1052"/>
      <point x="489" y="1052" type="curve" smooth="yes"/>
      <point x="674" y="1052"/>
      <point x="768" y="945"/>
      <point x="768" y="729" type="curve" smooth="yes"/>
      <point x="768" y="664" type="line"/>
      <point x="545" y="664" type="line" smooth="yes"/>
      <point x="441" y="664"/>
      <point x="377" y="637"/>
      <point x="338" y="593" type="curve"/>
      <point x="338" y="594" type="line"/>
      <point x="289" y="535"/>
      <point x="264" y="471"/>
      <point x="264" y="401" type="curve" smooth="yes"/>
      <point x="264" y="310"/>
      <point x="288" y="238"/>
      <point x="331" y="189" type="curve" smooth="yes"/>
      <point x="374" y="140"/>
      <point x="436" y="114"/>
      <point x="512" y="114" type="curve" smooth="yes"/>
      <point x="584" y="114"/>
      <point x="625" y="137"/>
      <point x="625" y="184" type="curve" smooth="yes"/>
      <point x="625" y="209"/>
      <point x="606" y="230"/>
      <point x="569" y="247" type="curve" smooth="yes"/>
      <point x="525" y="268"/>
      <point x="498" y="304"/>
      <point x="498" y="351" type="curve" smooth="yes"/>
      <point x="498" y="358"/>
      <point x="499" y="365"/>
      <point x="500" y="373" type="curve"/>
      <point x="500" y="372" type="line"/>
      <point x="508" y="421"/>
      <point x="531" y="458"/>
      <point x="575" y="480" type="curve" smooth="yes"/>
      <point x="619" y="502"/>
      <point x="685" y="512"/>
      <point x="780" y="512" type="curve" smooth="yes"/>
      <point x="967" y="512"/>
      <point x="1052" y="470"/>
      <point x="1052" y="350" type="curve" smooth="yes"/>
      <point x="1052" y="308"/>
      <point x="1026" y="272"/>
      <point x="973" y="241" type="curve" smooth="yes"/>
      <point x="942" y="222"/>
      <point x="927" y="201"/>
      <point x="927" y="176" type="curve" smooth="yes"/>
      <point x="927" y="135"/>
      <point x="963" y="115"/>
      <point x="1036" y="115" type="curve" smooth="yes"/>
      <point x="1077" y="115"/>
      <point x="1113" y="122"/>
      <point x="1161" y="146" type="curve"/>
      <point x="1160" y="146" type="line"/>
      <point x="1199" y="166"/>
      <point x="1230" y="201"/>
      <point x="1251" y="245" type="curve" smooth="yes"/>
      <point x="1272" y="288"/>
      <point x="1284" y="339"/>
      <point x="1284" y="394" type="curve" smooth="yes"/>
      <point x="1284" y="475"/>
      <point x="1259" y="541"/>
      <point x="1209" y="593" type="curve" smooth="yes"/>
      <point x="1178" y="626"/>
      <point x="1150" y="644"/>
      <point x="1118" y="653" type="curve" smooth="yes"/>
      <point x="1085" y="662"/>
      <point x="1048" y="664"/>
      <point x="1001" y="664" type="curve" smooth="yes"/>
      <point x="780" y="664" type="line"/>
      <point x="780" y="727" type="line" smooth="yes"/>
      <point x="780" y="770"/>
      <point x="781" y="801"/>
      <point x="784" y="824" type="curve" smooth="yes"/>
      <point x="793" y="893"/>
      <point x="824" y="951"/>
      <point x="869" y="991" type="curve" smooth="yes"/>
      <point x="914" y="1030"/>
      <point x="975" y="1052"/>
      <point x="1046" y="1052" type="curve" smooth="yes"/>
      <point x="1230" y="1052"/>
      <point x="1321" y="963"/>
      <point x="1321" y="766" type="curve"/>
      <point x="1182" y="766" type="line"/>
      <point x="1182" y="811"/>
      <point x="1176" y="852"/>
      <point x="1158" y="881" type="curve" smooth="yes"/>
      <point x="1140" y="909"/>
      <point x="1109" y="926"/>
      <point x="1060" y="926" type="curve" smooth="yes"/>
      <point x="960" y="926"/>
      <point x="924" y="874"/>
      <point x="921" y="782" type="curve"/>
      <point x="1038" y="782" type="line" smooth="yes"/>
      <point x="1146" y="782"/>
      <point x="1243" y="747"/>
      <point x="1312" y="680" type="curve" smooth="yes"/>
      <point x="1381" y="613"/>
      <point x="1423" y="514"/>
      <point x="1423" y="385" type="curve" smooth="yes"/>
      <point x="1423" y="265"/>
      <point x="1384" y="166"/>
      <point x="1316" y="96" type="curve" smooth="yes"/>
      <point x="1247" y="26"/>
      <point x="1150" y="-14"/>
      <point x="1034" y="-14" type="curve" smooth="yes"/>
      <point x="859" y="-14"/>
      <point x="784" y="57"/>
      <point x="784" y="180" type="curve" smooth="yes"/>
      <point x="784" y="215"/>
      <point x="793" y="247"/>
      <point x="811" y="274" type="curve"/>
      <point x="811" y="273" type="line"/>
      <point x="820" y="287"/>
      <point x="840" y="303"/>
      <point x="871" y="320" type="curve"/>
      <point x="871" y="319" type="line"/>
      <point x="887" y="329"/>
      <point x="897" y="336"/>
      <point x="902" y="341" type="curve" smooth="yes"/>
      <point x="907" y="346"/>
      <point x="909" y="350"/>
      <point x="909" y="354" type="curve" smooth="yes"/>
      <point x="909" y="382"/>
      <point x="863" y="396"/>
      <point x="772" y="396" type="curve" smooth="yes"/>
      <point x="686" y="396"/>
      <point x="643" y="383"/>
      <point x="643" y="356" type="curve" smooth="yes"/>
      <point x="643" y="350"/>
      <point x="654" y="340"/>
      <point x="677" y="325" type="curve"/>
      <point x="677" y="326" type="line"/>
      <point x="713" y="305"/>
      <point x="736" y="288"/>
      <point x="750" y="268" type="curve" smooth="yes"/>
      <point x="764" y="248"/>
      <point x="768" y="223"/>
      <point x="768" y="186" type="curve" smooth="yes"/>
      <point x="768" y="111"/>
      <point x="738" y="61"/>
      <point x="687" y="29" type="curve" smooth="yes"/>
      <point x="636" y="-3"/>
      <point x="565" y="-16"/>
      <point x="481" y="-16" type="curve" smooth="yes"/>
      <point x="381" y="-16"/>
      <point x="292" y="25"/>
      <point x="228" y="95" type="curve" smooth="yes"/>
      <point x="164" y="165"/>
      <point x="125" y="265"/>
      <point x="125" y="385" type="curve" smooth="yes"/>
      <point x="125" y="518"/>
      <point x="160" y="611"/>
    </contour>
    <contour>
      <point x="598" y="886" type="curve" smooth="yes"/>
      <point x="579" y="911"/>
      <point x="549" y="926"/>
      <point x="502" y="926" type="curve" smooth="yes"/>
      <point x="416" y="926"/>
      <point x="371" y="878"/>
      <point x="366" y="782" type="curve"/>
      <point x="627" y="782" type="line"/>
      <point x="624" y="825"/>
      <point x="617" y="861"/>
    </contour>
  </outline>
</glyph>
<glyph name="sinNga" format="1">
  <advance width="1461"/>
  <unicode hex="0D9E"/>
  <note>
    sinNga
  </note>
  <outline>
    <contour>
      <point x="307" y="889" type="curve" smooth="yes"/>
      <point x="276" y="889"/>
      <point x="251" y="862"/>
      <point x="251" y="829" type="curve" smooth="yes"/>
      <point x="251" y="798"/>
      <point x="278" y="774"/>
      <point x="311" y="774" type="curve" smooth="yes"/>
      <point x="342" y="774"/>
      <point x="366" y="801"/>
      <point x="366" y="834" type="curve" smooth="yes"/>
      <point x="366" y="865"/>
      <point x="339" y="889"/>
    </contour>
    <contour>
      <point x="485" y="823" type="curve" smooth="yes"/>
      <point x="485" y="800"/>
      <point x="480" y="776"/>
      <point x="471" y="752" type="curve"/>
      <point x="456" y="719"/>
      <point x="435" y="693"/>
      <point x="404" y="677" type="curve"/>
      <point x="416" y="677" type="line" smooth="yes"/>
      <point x="437" y="677"/>
      <point x="456" y="677"/>
      <point x="474" y="676" type="curve" smooth="yes"/>
      <point x="492" y="675"/>
      <point x="506" y="674"/>
      <point x="515" y="674" type="curve" smooth="yes"/>
      <point x="612" y="674"/>
      <point x="661" y="704"/>
      <point x="661" y="765" type="curve" smooth="yes"/>
      <point x="661" y="805"/>
      <point x="650" y="846"/>
      <point x="620" y="877" type="curve" smooth="yes"/>
      <point x="590" y="908"/>
      <point x="542" y="928"/>
      <point x="470" y="928" type="curve" smooth="yes"/>
      <point x="458" y="928" type="line" smooth="yes"/>
      <point x="455" y="928"/>
      <point x="451" y="928"/>
      <point x="446" y="927" type="curve"/>
      <point x="472" y="904"/>
      <point x="485" y="869"/>
    </contour>
    <contour>
      <point x="484" y="1216" type="curve" smooth="yes"/>
      <point x="408" y="1189"/>
      <point x="338" y="1142"/>
      <point x="289" y="1065" type="curve"/>
      <point x="135" y="1065" type="line"/>
      <point x="180" y="1161"/>
      <point x="257" y="1239"/>
      <point x="353" y="1295" type="curve"/>
      <point x="441" y="1342"/>
      <point x="562" y="1368"/>
      <point x="711" y="1368" type="curve" smooth="yes"/>
      <point x="935" y="1368"/>
      <point x="1098" y="1300"/>
      <point x="1211" y="1155" type="curve" smooth="yes"/>
      <point x="1324" y="1010"/>
      <point x="1377" y="840"/>
      <point x="1377" y="628" type="curve" smooth="yes"/>
      <point x="1377" y="444"/>
      <point x="1350" y="284"/>
      <point x="1287" y="171" type="curve" smooth="yes"/>
      <point x="1223" y="58"/>
      <point x="1124" y="-10"/>
      <point x="980" y="-10" type="curve" smooth="yes"/>
      <point x="951" y="-10"/>
      <point x="906" y="-4"/>
      <point x="846" y="8" type="curve"/>
      <point x="791" y="31"/>
      <point x="754" y="64"/>
      <point x="733" y="105" type="curve"/>
      <point x="692" y="33"/>
      <point x="608" y="-10"/>
      <point x="463" y="-10" type="curve" smooth="yes"/>
      <point x="346" y="-10"/>
      <point x="250" y="31"/>
      <point x="183" y="102" type="curve" smooth="yes"/>
      <point x="116" y="173"/>
      <point x="79" y="272"/>
      <point x="79" y="391" type="curve" smooth="yes"/>
      <point x="79" y="446"/>
      <point x="96" y="502"/>
      <point x="128" y="550" type="curve" smooth="yes"/>
      <point x="160" y="598"/>
      <point x="207" y="638"/>
      <point x="267" y="659" type="curve"/>
      <point x="223" y="666"/>
      <point x="189" y="688"/>
      <point x="165" y="719" type="curve" smooth="yes"/>
      <point x="141" y="750"/>
      <point x="129" y="790"/>
      <point x="129" y="831" type="curve" smooth="yes"/>
      <point x="129" y="902"/>
      <point x="164" y="957"/>
      <point x="224" y="994" type="curve" smooth="yes"/>
      <point x="284" y="1030"/>
      <point x="367" y="1050"/>
      <point x="466" y="1050" type="curve" smooth="yes"/>
      <point x="586" y="1050"/>
      <point x="669" y="1013"/>
      <point x="722" y="959" type="curve" smooth="yes"/>
      <point x="774" y="905"/>
      <point x="798" y="834"/>
      <point x="798" y="766" type="curve" smooth="yes"/>
      <point x="798" y="621"/>
      <point x="719" y="552"/>
      <point x="546" y="552" type="curve" smooth="yes"/>
      <point x="531" y="552"/>
      <point x="515" y="553"/>
      <point x="499" y="554" type="curve" smooth="yes"/>
      <point x="483" y="555"/>
      <point x="467" y="555"/>
      <point x="452" y="555" type="curve" smooth="yes"/>
      <point x="360" y="555"/>
      <point x="302" y="534"/>
      <point x="267" y="501" type="curve" smooth="yes"/>
      <point x="231" y="468"/>
      <point x="219" y="421"/>
      <point x="219" y="372" type="curve" smooth="yes"/>
      <point x="219" y="311"/>
      <point x="243" y="248"/>
      <point x="284" y="200" type="curve" smooth="yes"/>
      <point x="324" y="152"/>
      <point x="381" y="120"/>
      <point x="448" y="120" type="curve" smooth="yes"/>
      <point x="520" y="120"/>
      <point x="574" y="139"/>
      <point x="610" y="171" type="curve" smooth="yes"/>
      <point x="646" y="202"/>
      <point x="665" y="245"/>
      <point x="665" y="293" type="curve" smooth="yes"/>
      <point x="665" y="456" type="line"/>
      <point x="800" y="456" type="line"/>
      <point x="800" y="295" type="line" smooth="yes"/>
      <point x="800" y="262"/>
      <point x="820" y="218"/>
      <point x="854" y="183" type="curve" smooth="yes"/>
      <point x="888" y="147"/>
      <point x="936" y="120"/>
      <point x="995" y="120" type="curve" smooth="yes"/>
      <point x="1063" y="120"/>
      <point x="1125" y="160"/>
      <point x="1169" y="245" type="curve" smooth="yes"/>
      <point x="1213" y="329"/>
      <point x="1241" y="459"/>
      <point x="1241" y="638" type="curve" smooth="yes"/>
      <point x="1241" y="819"/>
      <point x="1194" y="971"/>
      <point x="1101" y="1078" type="curve" smooth="yes"/>
      <point x="1008" y="1185"/>
      <point x="869" y="1246"/>
      <point x="684" y="1246" type="curve" smooth="yes"/>
      <point x="607" y="1246"/>
      <point x="540" y="1235"/>
    </contour>
  </outline>
</glyph>
<glyph name="sinNnga" format="1">
  <advance width="1789"/>
  <unicode hex="0D9F"/>
  <note>
    sinNnga
  </note>
  <outline>
    <contour>
      <point x="1171" y="597" type="curve" smooth="yes"/>
      <point x="1212" y="541"/>
      <point x="1237" y="464"/>
      <point x="1237" y="377" type="curve" smooth="yes"/>
      <point x="1237" y="274"/>
      <point x="1202" y="185"/>
      <point x="1131" y="110" type="curve"/>
      <point x="1267" y="110"/>
      <point x="1374" y="145"/>
      <point x="1447" y="214" type="curve" smooth="yes"/>
      <point x="1519" y="282"/>
      <point x="1559" y="384"/>
      <point x="1559" y="516" type="curve" smooth="yes"/>
      <point x="1559" y="624"/>
      <point x="1522" y="726"/>
      <point x="1462" y="801" type="curve" smooth="yes"/>
      <point x="1401" y="876"/>
      <point x="1315" y="924"/>
      <point x="1216" y="924" type="curve" smooth="yes"/>
      <point x="1125" y="924"/>
      <point x="1052" y="893"/>
      <point x="997" y="845" type="curve" smooth="yes"/>
      <point x="942" y="796"/>
      <point x="906" y="729"/>
      <point x="891" y="660" type="curve"/>
      <point x="924" y="676"/>
      <point x="963" y="686"/>
      <point x="1004" y="686" type="curve" smooth="yes"/>
      <point x="1072" y="686"/>
      <point x="1130" y="652"/>
    </contour>
    <contour>
      <point x="793" y="1051" type="line"/>
      <point x="832" y="1051" type="line"/>
      <point x="845" y="1050"/>
      <point x="855" y="1050"/>
      <point x="862" y="1050" type="curve"/>
      <point x="862" y="928" type="line"/>
      <point x="778" y="928"/>
      <point x="714" y="921"/>
      <point x="670" y="904" type="curve" smooth="yes"/>
      <point x="639" y="892"/>
      <point x="601" y="861"/>
      <point x="562" y="824" type="curve" smooth="yes"/>
      <point x="486" y="751"/>
      <point x="448" y="643"/>
      <point x="448" y="500" type="curve" smooth="yes"/>
      <point x="448" y="383"/>
      <point x="485" y="287"/>
      <point x="546" y="220" type="curve" smooth="yes"/>
      <point x="607" y="153"/>
      <point x="692" y="116"/>
      <point x="791" y="116" type="curve" smooth="yes"/>
      <point x="1010" y="116"/>
      <point x="1096" y="238"/>
      <point x="1096" y="387" type="curve" smooth="yes"/>
      <point x="1096" y="431"/>
      <point x="1085" y="473"/>
      <point x="1063" y="504" type="curve" smooth="yes"/>
      <point x="1041" y="535"/>
      <point x="1008" y="555"/>
      <point x="967" y="555" type="curve" smooth="yes"/>
      <point x="910" y="555"/>
      <point x="882" y="526"/>
      <point x="882" y="467" type="curve" smooth="yes"/>
      <point x="882" y="458"/>
      <point x="882" y="443"/>
      <point x="885" y="428" type="curve"/>
      <point x="753" y="428" type="line"/>
      <point x="748" y="464"/>
      <point x="746" y="500"/>
      <point x="746" y="539" type="curve" smooth="yes"/>
      <point x="746" y="708"/>
      <point x="799" y="837"/>
      <point x="885" y="922" type="curve" smooth="yes"/>
      <point x="971" y="1007"/>
      <point x="1091" y="1050"/>
      <point x="1227" y="1050" type="curve" smooth="yes"/>
      <point x="1360" y="1050"/>
      <point x="1479" y="987"/>
      <point x="1564" y="890" type="curve" smooth="yes"/>
      <point x="1648" y="793"/>
      <point x="1700" y="661"/>
      <point x="1700" y="522" type="curve" smooth="yes"/>
      <point x="1700" y="357"/>
      <point x="1647" y="223"/>
      <point x="1551" y="131" type="curve" smooth="yes"/>
      <point x="1454" y="39"/>
      <point x="1311" y="-12"/>
      <point x="1131" y="-12" type="curve"/>
      <point x="1131" y="109" type="line"/>
      <point x="1117" y="95" type="line" smooth="yes"/>
      <point x="1049" y="27"/>
      <point x="934" y="-10"/>
      <point x="777" y="-10" type="curve" smooth="yes"/>
      <point x="642" y="-10"/>
      <point x="526" y="43"/>
      <point x="443" y="135" type="curve" smooth="yes"/>
      <point x="359" y="227"/>
      <point x="309" y="358"/>
      <point x="309" y="514" type="curve" smooth="yes"/>
      <point x="309" y="669"/>
      <point x="358" y="800"/>
      <point x="456" y="908" type="curve"/>
      <point x="464" y="916" type="line"/>
      <point x="395" y="912"/>
      <point x="338" y="867"/>
      <point x="298" y="796" type="curve" smooth="yes"/>
      <point x="258" y="724"/>
      <point x="235" y="627"/>
      <point x="235" y="520" type="curve" smooth="yes"/>
      <point x="235" y="333"/>
      <point x="286" y="163"/>
      <point x="388" y="10" type="curve"/>
      <point x="233" y="10" type="line"/>
      <point x="142" y="137"/>
      <point x="96" y="301"/>
      <point x="96" y="500" type="curve" smooth="yes"/>
      <point x="96" y="669"/>
      <point x="133" y="806"/>
      <point x="208" y="901" type="curve" smooth="yes"/>
      <point x="283" y="996"/>
      <point x="397" y="1049"/>
      <point x="549" y="1050" type="curve" smooth="yes"/>
      <point x="696" y="1050" type="line" smooth="yes"/>
      <point x="715" y="1050"/>
      <point x="733" y="1050"/>
      <point x="749" y="1051" type="curve"/>
    </contour>
  </outline>
</glyph>
<glyph name="sinCa" format="1">
  <advance width="1460"/>
  <unicode hex="0DA0"/>
  <note>
    sinCa
  </note>
  <outline>
    <contour>
      <point x="338" y="786" type="curve"/>
      <point x="678" y="786" type="line"/>
      <point x="670" y="882"/>
      <point x="614" y="927"/>
      <point x="510" y="930" type="curve" smooth="yes"/>
      <point x="422" y="930"/>
      <point x="354" y="882"/>
    </contour>
    <contour>
      <point x="219" y="605" type="curve"/>
      <point x="219" y="604" type="line"/>
      <point x="240" y="632"/>
      <point x="263" y="653"/>
      <point x="286" y="668" type="curve"/>
      <point x="57" y="668" type="line"/>
      <point x="57" y="786" type="line"/>
      <point x="198" y="786" type="line"/>
      <point x="203" y="869"/>
      <point x="239" y="935"/>
      <point x="295" y="982" type="curve" smooth="yes"/>
      <point x="351" y="1029"/>
      <point x="426" y="1054"/>
      <point x="510" y="1054" type="curve" smooth="yes"/>
      <point x="719" y="1054"/>
      <point x="826" y="925"/>
      <point x="829" y="668" type="curve"/>
      <point x="645" y="668" type="line" smooth="yes"/>
      <point x="610" y="668"/>
      <point x="574" y="667"/>
      <point x="534" y="659" type="curve" smooth="yes"/>
      <point x="494" y="650"/>
      <point x="450" y="633"/>
      <point x="402" y="602" type="curve" smooth="yes"/>
      <point x="333" y="559"/>
      <point x="296" y="502"/>
      <point x="292" y="431" type="curve"/>
      <point x="292" y="432" type="line"/>
      <point x="292" y="223"/>
      <point x="452" y="121"/>
      <point x="745" y="121" type="curve" smooth="yes"/>
      <point x="897" y="121"/>
      <point x="1019" y="170"/>
      <point x="1104" y="262" type="curve" smooth="yes"/>
      <point x="1189" y="354"/>
      <point x="1236" y="490"/>
      <point x="1236" y="663" type="curve" smooth="yes"/>
      <point x="1236" y="814"/>
      <point x="1189" y="948"/>
      <point x="1094" y="1065" type="curve" smooth="yes"/>
      <point x="998" y="1186"/>
      <point x="883" y="1243"/>
      <point x="738" y="1243" type="curve" smooth="yes"/>
      <point x="625" y="1243"/>
      <point x="538" y="1226"/>
      <point x="485" y="1203" type="curve" smooth="yes"/>
      <point x="411" y="1171"/>
      <point x="350" y="1120"/>
      <point x="302" y="1051" type="curve"/>
      <point x="157" y="1051" type="line"/>
      <point x="247" y="1264"/>
      <point x="430" y="1370"/>
      <point x="706" y="1370" type="curve" smooth="yes"/>
      <point x="1141" y="1370"/>
      <point x="1376" y="1038"/>
      <point x="1376" y="651" type="curve" smooth="yes"/>
      <point x="1376" y="447"/>
      <point x="1317" y="281"/>
      <point x="1210" y="168" type="curve" smooth="yes"/>
      <point x="1102" y="55"/>
      <point x="947" y="-8"/>
      <point x="755" y="-8" type="curve" smooth="yes"/>
      <point x="543" y="-5"/>
      <point x="391" y="35"/>
      <point x="292" y="107" type="curve" smooth="yes"/>
      <point x="193" y="179"/>
      <point x="147" y="281"/>
      <point x="147" y="408" type="curve" smooth="yes"/>
      <point x="147" y="476"/>
      <point x="160" y="537"/>
    </contour>
  </outline>
</glyph>
<glyph name="sinJa" format="1">
  <advance width="1403"/>
  <unicode hex="0DA2"/>
  <note>
    sinJa
  </note>
  <outline>
    <contour>
      <point x="716" y="892" type="curve" smooth="yes"/>
      <point x="732" y="937"/>
      <point x="758" y="973"/>
      <point x="801" y="1002" type="curve" smooth="yes"/>
      <point x="848" y="1034"/>
      <point x="898" y="1050"/>
      <point x="952" y="1050" type="curve" smooth="yes"/>
      <point x="962" y="1050" type="line"/>
      <point x="1019" y="1099"/>
      <point x="1057" y="1138"/>
      <point x="1076" y="1165" type="curve" smooth="yes"/>
      <point x="1121" y="1233"/>
      <point x="1149" y="1288"/>
      <point x="1150" y="1331" type="curve"/>
      <point x="1290" y="1331" type="line"/>
      <point x="1277" y="1210"/>
      <point x="1221" y="1108"/>
      <point x="1108" y="1024" type="curve"/>
      <point x="1127" y="1015"/>
      <point x="1146" y="1004"/>
      <point x="1161" y="991" type="curve"/>
      <point x="1160" y="991" type="line"/>
      <point x="1209" y="952"/>
      <point x="1234" y="890"/>
      <point x="1234" y="805" type="curve"/>
      <point x="1231" y="792"/>
      <point x="1227" y="779"/>
      <point x="1222" y="764" type="curve"/>
      <point x="1088" y="764" type="line"/>
      <point x="1152" y="741"/>
      <point x="1209" y="702"/>
      <point x="1250" y="646" type="curve" smooth="yes"/>
      <point x="1291" y="589"/>
      <point x="1317" y="515"/>
      <point x="1317" y="424" type="curve" smooth="yes"/>
      <point x="1317" y="280"/>
      <point x="1259" y="167"/>
      <point x="1151" y="90" type="curve" smooth="yes"/>
      <point x="1043" y="13"/>
      <point x="886" y="-28"/>
      <point x="687" y="-28" type="curve" smooth="yes"/>
      <point x="491" y="-28"/>
      <point x="334" y="13"/>
      <point x="226" y="90" type="curve" smooth="yes"/>
      <point x="118" y="167"/>
      <point x="60" y="280"/>
      <point x="60" y="424" type="curve" smooth="yes"/>
      <point x="61" y="528"/>
      <point x="95" y="616"/>
      <point x="156" y="680" type="curve" smooth="yes"/>
      <point x="217" y="743"/>
      <point x="306" y="780"/>
      <point x="419" y="780" type="curve" smooth="yes"/>
      <point x="544" y="780" type="line"/>
      <point x="541" y="822"/>
      <point x="532" y="854"/>
      <point x="518" y="876" type="curve"/>
      <point x="519" y="876" type="line"/>
      <point x="498" y="908"/>
      <point x="465" y="924"/>
      <point x="419" y="924" type="curve" smooth="yes"/>
      <point x="331" y="924"/>
      <point x="281" y="891"/>
      <point x="281" y="819" type="curve" smooth="yes"/>
      <point x="281" y="810"/>
      <point x="286" y="792"/>
      <point x="295" y="764" type="curve"/>
      <point x="155" y="764" type="line"/>
      <point x="144" y="804" type="line"/>
      <point x="144" y="972"/>
      <point x="246" y="1050"/>
      <point x="417" y="1050" type="curve" smooth="yes"/>
      <point x="540" y="1050"/>
      <point x="633" y="979"/>
      <point x="662" y="892" type="curve" smooth="yes"/>
      <point x="676" y="849"/>
      <point x="683" y="794"/>
      <point x="683" y="727" type="curve" smooth="yes"/>
      <point x="683" y="664" type="line"/>
      <point x="468" y="664" type="line" smooth="yes"/>
      <point x="405" y="664"/>
      <point x="358" y="657"/>
      <point x="326" y="642" type="curve" smooth="yes"/>
      <point x="290" y="626"/>
      <point x="259" y="595"/>
      <point x="237" y="556" type="curve" smooth="yes"/>
      <point x="215" y="516"/>
      <point x="201" y="468"/>
      <point x="201" y="416" type="curve" smooth="yes"/>
      <point x="201" y="320"/>
      <point x="248" y="241"/>
      <point x="333" y="186" type="curve" smooth="yes"/>
      <point x="417" y="130"/>
      <point x="538" y="100"/>
      <point x="689" y="100" type="curve" smooth="yes"/>
      <point x="838" y="100"/>
      <point x="961" y="130"/>
      <point x="1046" y="186" type="curve" smooth="yes"/>
      <point x="1130" y="241"/>
      <point x="1177" y="320"/>
      <point x="1177" y="416" type="curve"/>
      <point x="1176" y="451"/>
      <point x="1170" y="482"/>
      <point x="1161" y="513" type="curve"/>
      <point x="1142" y="566"/>
      <point x="1116" y="605"/>
      <point x="1076" y="629" type="curve" smooth="yes"/>
      <point x="1036" y="653"/>
      <point x="982" y="664"/>
      <point x="910" y="664" type="curve" smooth="yes"/>
      <point x="695" y="664" type="line"/>
      <point x="695" y="727" type="line" smooth="yes"/>
      <point x="695" y="792"/>
      <point x="700" y="847"/>
    </contour>
    <contour>
      <point x="834" y="780" type="curve"/>
      <point x="959" y="780" type="line" smooth="yes"/>
      <point x="1014" y="780"/>
      <point x="1056" y="775"/>
      <point x="1083" y="765" type="curve"/>
      <point x="1092" y="793"/>
      <point x="1097" y="811"/>
      <point x="1097" y="819" type="curve" smooth="yes"/>
      <point x="1097" y="891"/>
      <point x="1047" y="924"/>
      <point x="963" y="924" type="curve" smooth="yes"/>
      <point x="914" y="924"/>
      <point x="879" y="908"/>
      <point x="859" y="876" type="curve"/>
      <point x="860" y="876" type="line"/>
      <point x="847" y="852"/>
      <point x="838" y="820"/>
    </contour>
  </outline>
</glyph>
